<?xml version="1.0" encoding="UTF-8"?><svg xmlns="http://www.w3.org/2000/svg" width="38.63" height="38.63" viewBox="0 0 38.63 38.63"><defs><style>.d{fill:#fff;}.e{fill:none;stroke:#002d4f;stroke-miterlimit:10;stroke-width:.63px;}.f{fill:#af0036;}.g{fill:#002d4f;}</style></defs><g id="a"/><g id="b"><g id="c"><g><g><circle class="d" cx="19.32" cy="19.32" r="19"/><g><circle class="e" cx="19.32" cy="19.32" r="19"/><polygon class="g" points="34.52 30.35 36.76 35.13 31.29 33.66 34.52 30.35"/></g></g><path class="f" d="M19.08,22.36c-.35,.05-.66-.03-.94-.24-.28-.2-.45-.48-.51-.82l-1.46-8.53c-.06-.33,.01-.63,.21-.91,.2-.28,.46-.44,.8-.48l1.17-.15c.33-.04,.63,.04,.89,.26,.26,.22,.41,.49,.44,.82l.81,8.62c.03,.35-.06,.66-.27,.93-.21,.27-.49,.43-.84,.48l-.3,.04Zm.75,1.66c.33-.04,.63,.04,.9,.25,.27,.21,.43,.49,.47,.82l.07,.56c.04,.33-.04,.64-.24,.91-.21,.28-.47,.44-.81,.48l-.74,.1c-.33,.04-.63-.04-.9-.26-.27-.21-.43-.49-.47-.82l-.07-.56c-.04-.33,.04-.64,.24-.91,.21-.28,.47-.44,.81-.48l.74-.1Z"/></g></g></g></svg>