<?xml version="1.0" encoding="UTF-8"?><svg xmlns="http://www.w3.org/2000/svg" width="32" height="32" viewBox="0 0 32 32"><defs><style>.e{fill:#002d4f;}</style></defs><g id="a"/><g id="b"><g id="c"><g id="d"><path class="e" d="M16,0C7.16,0,0,7.16,0,16s7.16,16,16,16,16-7.16,16-16S24.84,0,16,0Zm8.58,21.08l-2.9,3.45c-.23,.28-.63,.35-.95,.18,0,0-.95-.46-1.67-.9-1.99-1.18-4.35-3.11-6.06-4.82-1.71-1.71-3.64-4.07-4.82-6.06-.43-.72-.89-1.67-.89-1.67-.17-.32-.09-.71,.18-.95l3.45-2.9c.3-.25,.75-.23,1.03,.05l2.75,2.75c.28,.28,.3,.72,.05,1.02l-1.16,1.44c-.23,.28-.23,.69,.01,.97,0,0,.82,1.23,2.17,2.57,1.35,1.35,2.57,2.17,2.57,2.17,.28,.24,.69,.24,.97,.01l1.44-1.16c.3-.25,.74-.22,1.02,.05l2.75,2.75c.28,.28,.3,.73,.04,1.03Z"/></g></g></g></svg>