<?xml version="1.0" encoding="UTF-8"?><svg xmlns="http://www.w3.org/2000/svg" width="182.29" height="157.58" viewBox="0 0 182.29 157.58"><defs><style>.d,.e,.f,.g,.h,.i,.j,.k,.l,.m,.n,.o,.p,.q{stroke-linecap:round;stroke-linejoin:round;}.d,.e,.k,.l,.o,.p{stroke-width:1.29px;}.d,.f,.g,.i,.j,.k,.l,.m,.n,.o,.p,.q{stroke:#231815;}.d,.r,.q{fill:#231815;}.e{stroke:#717071;}.e,.h,.l,.n{fill:none;}.s,.g,.t,.u,.p{fill:#fff;}.f{fill:#6d6c6c;}.f,.g,.h,.i,.j,.m,.n{stroke-width:1.29px;}.h{stroke:#fff;}.t{opacity:.5;}.i{fill:#888;}.j,.o,.v{fill:#dadadb;}.k,.m{fill:#f9be00;}.u{opacity:.55;}.q{stroke-width:.45px;}</style></defs><g id="a"/><g id="b"><g id="c"><g><path class="s" d="M152.97,74.18s-43.51-.78-64.68-.78-61.39,.78-61.39,.78c0,0,7.01-56.79,12.07-61.87,2.52-2.52,21.64-6.4,50.96-6.4s48.44,3.88,50.96,6.4c5.07,5.07,12.07,61.87,12.07,61.87Z"/><g><g><rect class="o" x="70.46" y="40.3" width="2.04" height="7.48"/><rect class="o" x="56.11" y="40.3" width="2.04" height="7.48"/></g><g><rect class="v" x="48.47" y="28.6" width="31.68" height="12.31" rx="2.58" ry="2.58"/><rect class="l" x="48.47" y="28.6" width="31.68" height="12.31" rx="2.58" ry="2.58"/></g><g><path class="v" d="M84.82,79.35c.09,1.42-.99,2.58-2.41,2.58H46.21c-1.42,0-2.51-1.16-2.41-2.58l2.09-31.52c.09-1.42,1.33-2.58,2.76-2.58h31.33c1.42,0,2.66,1.16,2.76,2.58l2.09,31.52Z"/><path class="l" d="M84.82,79.35c.09,1.42-.99,2.58-2.41,2.58H46.21c-1.42,0-2.51-1.16-2.41-2.58l2.09-31.52c.09-1.42,1.33-2.58,2.76-2.58h31.33c1.42,0,2.66,1.16,2.76,2.58l2.09,31.52Z"/></g></g><g><g><rect class="o" x="121.73" y="40.3" width="2.04" height="7.48"/><rect class="o" x="107.38" y="40.3" width="2.04" height="7.48"/></g><g><rect class="v" x="99.74" y="28.6" width="31.68" height="12.31" rx="2.58" ry="2.58"/><rect class="l" x="99.74" y="28.6" width="31.68" height="12.31" rx="2.58" ry="2.58"/></g><g><path class="v" d="M136.09,79.35c.09,1.42-.99,2.58-2.41,2.58h-36.2c-1.42,0-2.51-1.16-2.41-2.58l2.09-31.52c.09-1.42,1.33-2.58,2.76-2.58h31.33c1.42,0,2.66,1.16,2.76,2.58l2.09,31.52Z"/><path class="l" d="M136.09,79.35c.09,1.42-.99,2.58-2.41,2.58h-36.2c-1.42,0-2.51-1.16-2.41-2.58l2.09-31.52c.09-1.42,1.33-2.58,2.76-2.58h31.33c1.42,0,2.66,1.16,2.76,2.58l2.09,31.52Z"/></g></g><g><path class="m" d="M102.69,39.79c1.28-2.16,1.8-12.73,3.78-16.07,2.85-4.81,6.4-6.51,8.89-6.12,4.31-1.92,13.51-.82,17.36,4.68,2.71,3.86,2.5,8.07,1.8,12.68-.58,3.82,.23,10.1,.96,14.26,1.41,7.98-9.27,9.83-13.53,6.86-1.99-1.39-4.64-1-6.39-1.25-2.59-.37-2.03-.48-4.97-.99-2.38-.42-5.58-1.42-7.37-3.33-2.68-2.87-2.09-8.11-.54-10.72Z"/><path class="g" d="M120.59,100.77c-.18-2.37-.99-6.98-1.09-10.45-.41-14.89,1.51-27.81,4.34-35.38-2.92-.19-9.48-.85-13.24-1.1-4.15,10.68-3.16,30.28-3.16,30.28,0,0-.71,9.14-1.35,15.95,3.43,1.03,9.39,1.76,14.5,.7Z"/><path class="g" d="M120.27,43.24s-1.35,7.05,.36,9.43c1.63,2.26,3.32,2.51,3.32,2.51,0,0,1.35,3.77-1.18,6.11-2.12,1.96-7.35,1.33-8.97,1.11-1.45-.2-5.67-1.16-6.45-2.25-1.73-2.4,1.04-6.25,1.04-6.25,0,0,2.49,1.46,3.82-2.4,1.28-3.74,.5-8.22,.5-8.22"/><path class="g" d="M100.46,57.39c-.95,1.87-6.11,17.54-5.93,22.26,.15,4,.38,12.13,.38,12.13,0,0,3.71,1.31,4.94-.27,.13,5.83-1.18,14.84-1.48,15.29-.22,.32,3.65,1.19,8.43,1.3-.36-10.54,.64-23.98,.64-23.98,0,0,.05-17.35,2.25-27.65,.27-1.24,.69-1.94,1.5-3.28-2.18,.61-8.96,.71-10.73,4.21Z"/><path class="g" d="M129.61,56.51c-.77-.45-4.76-1.38-6.01-1.67-2.83,7.57-4.51,20.59-4.1,35.48,.21,7.72,.83,16.13,1.29,18.99,5.65,.43,12.61-.54,12.61-.54,0,0-3.29-18.02-3.4-18.42-.49-3.68-1.18-13.16,.83-21.19,.62-2.48,.92-11.41-1.22-12.65Z"/><path class="g" d="M125.99,75.31s2.48,9.99,3.28,12.17c3.15,1.81,8.27,4.16,10.08,1.27,0,0,.85-1.96,.27-5.43-.58-3.47-4.12-17.6-4.12-17.6-1.31-6.01-4.15-8.9-5.88-9.21"/><path class="g" d="M105.18,35.05c.61-2.28,1.25-5.62,1.25-5.62,0,0,2.37-.32,4.12-2.12,2.13-2.19,2.75-3.4,3.12-5.33,.74,2.67,6.24,3.66,9.73,7.68,3.66,4.22,3.72,12.97,2.83,14.04-3.3,3.96-8.78,7.39-13.39,5.98-5.8-1.78-9.24-8.69-7.66-14.63Z"/><path class="n" d="M122.5,24.69c2.55,1.58,5.33,5.65,5.95,10.72"/><path class="n" d="M125.13,23.11c2.29,1.47,4.74,4.76,5.06,7.05"/><path class="g" d="M113.37,35.74c-1.54,1.39-2.77,2.16-2.77,2.16l1.75,1.95"/><path class="r" d="M121.88,35.54c.02,.53-.4,.97-.92,.99-.53,.02-.97-.4-.99-.92-.02-.53,.4-.97,.92-.99,.53-.02,.97,.4,.99,.92Z"/><path class="r" d="M109.87,33.12c-.12,.51,.19,1.03,.71,1.15,.51,.12,1.03-.19,1.15-.71,.12-.51-.19-1.03-.71-1.15-.51-.12-1.03,.19-1.15,.71Z"/><path class="g" d="M112.05,43.28c.43,4.38,3.68,4.83,5.07,1.21l-5.07-1.21Z"/><path class="n" d="M126.84,42.55c.1,1.78,.07,2.21,.11,4.14,.05,1.93-.38,4.49-4.07,5.29"/><path class="m" d="M104.23,43.33c-.41,3.44,1.62,6.22,3.6,6.53"/><path class="n" d="M113.79,21.38c-.93,3.48-3.4,7.43-7.36,8.06"/><path class="n" d="M129.9,42.93c2.1,6.07-.15,9.26-1.67,9.91"/></g><g><path class="m" d="M79.69,109.81s-8.68,.43-19.19,.12c-8.02-.24-18.83-.36-18.83-.36,.42-2.23,1.22-27.54,1.22-27.54,0,0-1.66,.22-4.62-.58-4.27-1.16-6.24-4.74-6.24-4.74,1.39-6.01,3.58-17.44,8.43-23.68,1.28-1.65,13.81-5.25,14.35-5.4,2.05-.58,6.69-.06,12.45,.51,.03,0,10.69,3.36,12.01,3.95,2.05,.9,3.66,3.44,4.82,7.6,.57,2.04,3.35,10.12,4.43,16.44,0,0-2.27,2.79-5.08,4.04-3.2,1.42-4.97,1.39-4.97,1.39,0,0,1.39,26.02,1.21,28.25Z"/><path class="g" d="M58.02,39.29s-.73,6.64-2.97,9.01c-2.23,2.36,4.32,6.29,4.32,6.29,0,0,1.42,4.06,3.32,9.88,1.42-5.34,2.86-10.45,2.86-10.45,0,0,3.4-.83,2.19-4.8-1.21-3.96-.07-7.58-.07-7.58"/><path class="m" d="M65.54,54.14l8.55,.04c.09,0,.35-4.08-.58-6.01-1.5-3.12-4-3.83-4.04-3.81l-2.36,1.46s.45,3.05,0,4.55c-.45,1.5-1.57,3.77-1.57,3.77Z"/><path class="m" d="M59.48,54.38l-8.27,2.7c-.09,0-1-3.99-1.16-6.12-.13-1.71,.22-3.5,2.08-5.92,1.86-2.41,4.04-1.94,4.04-1.94,0,0-.5,4.05,.92,7.57,.74,1.82,2.38,3.72,2.38,3.72Z"/><path class="g" d="M71.24,29.91c2.02-.63,3.01,.67,2.78,2.54-.23,1.88-1.85,3.54-3.93,2.98"/><path class="g" d="M70.75,21.78c.81,2.91,1.21,8.38,1.59,12.54,.97,10.45-4.18,12.97-9.22,13.67-5.92,.82-9.71-1.13-13.1-7.45-1.68-3.14-3.13-9.06-2.74-13.11,.38-4.06,7.32-13.09,13.48-12.52,6.15,.57,8.35,.98,10,6.87Z"/><path class="g" d="M49.13,33.95c-2.08-.34-4.03,.94-3.63,2.79,.53,2.47,3.25,3.83,5.24,2.99"/><polyline class="g" points="63.83 30.94 66.78 35.48 64.8 37.19"/><path class="g" d="M49.25,37.27c-.32-.7-.92-.86-1.39-.96"/><path class="g" d="M58.31,40.52c1.58,5.6,6.53,4.66,7.29-.31l-7.29,.31Z"/><path class="r" d="M65.84,28.78c.04,.53,.5,.92,1.03,.87,.53-.04,.92-.5,.87-1.03-.04-.53-.5-.92-1.03-.87-.53,.04-.92,.5-.87,1.03Z"/><path class="r" d="M54.76,30.52c.04,.53,.5,.92,1.03,.87,.53-.04,.92-.5,.87-1.03-.04-.53-.5-.92-1.03-.87-.53,.04-.92,.5-.87,1.03Z"/><path class="q" d="M66.34,16.6c-.4,.04-1.79,1.16-2.45,2.44-.71,1.36-1.17,2.56-1.36,2.64-.44,.2-.4-3.82-.66-3.25-.25,.57-3.16,4.04-4.19,4.6-1.03,.56-.27-4.05-.92-3.18-.46,.62-1.25,2.24-1.73,2.86-.81,1.06-1.33,2.68-2.28,2.17-.52-.28-.24-3.64-1.42-2.18-.59,.73-3.42,4.61-2.65,7.22,.48,1.63,1.33,4.64,1.33,4.64l-2.96-.95s-7.43-12.4-.54-18.72c3.3-3.03,8.56-2.42,8.56-2.42,0,0,3.03-2.43,7.08-2.21,4.05,.22,9.24,2.73,9.97,9.39,.42,3.83-.32,7-.32,7,0,0-2.13-10.39-5.47-10.07Z"/><path class="h" d="M51.73,15.85c-.59,1.68-1.59,2.83-2.72,4.02"/><path class="h" d="M55.19,15.46c-.44,2.14-2.02,4.04-3.15,4.77"/></g><line class="m" x1="82.36" y1="90.22" x2="84.69" y2="90.32"/><line class="m" x1="48.8" y1="86.34" x2="47.2" y2="70.6"/><path class="g" d="M74.3,70.35c-.3,.92-1.76,1.26-3.27,.77-1.51-.49-2.49-1.63-2.19-2.55,.3-.92,1.76-1.26,3.27-.77,1.51,.49,2.49,1.63,2.19,2.55Z"/><path class="f" d="M32.04,34.89s53.52,45.96,62.2,54.8l-6.91,1.93s-27.16-28.77-56.73-51.43l1.45-5.3Z"/><path class="f" d="M148.81,34.89s-53.52,45.96-62.2,54.8l6.91,1.93s27.16-28.77,56.73-51.43l-1.45-5.3Z"/><path class="i" d="M82.91,78.84c0,10.9-8.84,19.74-19.74,19.74s-19.74-8.84-19.74-19.74,8.84-19.74,19.74-19.74,19.74,8.84,19.74,19.74Zm-19.74-15.61c-8.62,0-15.61,6.99-15.61,15.61s6.99,15.61,15.61,15.61,15.61-6.99,15.61-15.61-6.99-15.61-15.61-15.61Z"/><path class="g" d="M79.96,62.47c-1.76-1.73-3.8-3.21-5.45-2.24-1.51,.88-2.31,2.01-2.92,2.8-1.19,1.53-1.52,2.25-.81,2.99,1.27,1.32,4.37-2.2,4.37-2.2,0,0-2.7,3.37-1.88,4.35,.81,.97,3.99-2.13,3.99-2.13,0,0-2.35,3.65-1.86,4.2,1.17,1.32,4.31-2.53,4.31-2.53,0,0-2.4,3.44-1.84,4.11,.62,.74,3.18-.45,4.19-1.92,.98-1.43,1.34-1.91,.76-3.79-.35-1.16-2.01-2.82-2.85-3.65Z"/><path class="g" d="M51.96,68.06c.3,.92,1.76,1.26,3.27,.77,1.51-.49,2.49-1.63,2.19-2.55-.3-.92-1.76-1.26-3.27-.77-1.51,.49-2.49,1.63-2.19,2.55Z"/><path class="g" d="M45.87,62.84c1.76-1.73,3.8-3.21,5.45-2.24,1.51,.88,2.31,2.01,2.92,2.8,1.19,1.53,1.52,2.25,.81,2.99-1.27,1.32-4.37-2.2-4.37-2.2,0,0,2.7,3.37,1.88,4.35-.81,.97-3.99-2.13-3.99-2.13,0,0,2.35,3.65,1.86,4.2-1.17,1.33-4.31-2.53-4.31-2.53,0,0,2.4,3.44,1.84,4.11-.62,.74-3.18-.45-4.19-1.92-.98-1.43-1.34-1.91-.76-3.79,.35-1.16,2.01-2.82,2.85-3.65Z"/><path class="i" d="M86.79,82.42c0,7.25-7.73,13.12-23.37,13.12s-23.29-5.87-23.29-13.12,7.65-13.12,23.29-13.12,23.37,5.87,23.37,13.12Z"/><path class="j" d="M99.23,10.3h-7.23V1.78h-2.25V10.3h-7.23c-1.33,0-2.42,1.09-2.42,2.42v1.11c0,1.33,1.09,2.42,2.42,2.42h16.7c1.33,0,2.42-1.09,2.42-2.42v-1.11c0-1.33-1.09-2.42-2.42-2.42Z"/><g><g><rect class="r" x="11.33" y="116.11" width="21.66" height="40.83" rx="3.16" ry="3.16"/><rect class="l" x="11.33" y="116.11" width="21.66" height="40.83" rx="3.16" ry="3.16"/></g><g><rect class="r" x="146.54" y="116.11" width="21.66" height="40.83" rx="3.16" ry="3.16"/><rect class="l" x="146.54" y="116.11" width="21.66" height="40.83" rx="3.16" ry="3.16"/></g><path class="k" d="M160.29,78.72s16.83,1.05,19.2-1.71c2.37-2.76,2.89-11.83,1.05-13.68-1.84-1.84-15.52-1.05-17.36,0-1.84,1.05-4.87,11.83-4.87,11.83h-1s-6.86-62.5-12.84-67.01c-4.62-3.49-27.85-7.82-54.54-7.5-26.69-.32-49.92,4.01-54.54,7.5-5.99,4.52-12.84,67.01-12.84,67.01h-1s-2.49-9.28-4.33-10.33c-1.84-1.05-13.88-1.84-15.73,0-1.84,1.84-.5,10.16,1.87,12.92,2.37,2.76,16.22,.96,16.22,.96,0,0-2.56,7.69-6.27,16.57-3.71,8.88-5.05,37.99,0,44.02,2.48,2.96,38.8,6.27,76.79,6.27s74.31-3.31,76.79-6.27c5.05-6.04,3.71-35.15,0-44.02-3.71-8.88-6.61-16.57-6.61-16.57Zm-7.31-4.55s-43.51-.78-64.68-.78-61.39,.78-61.39,.78c0,0,7.01-56.79,12.07-61.87,2.52-2.52,21.64-6.4,50.96-6.4s48.44,3.88,50.96,6.4c5.07,5.07,12.07,61.87,12.07,61.87Z"/><polygon class="d" points="117.8 111.85 66.26 111.85 57.17 100.97 90.43 102.98 122.99 100.97 117.8 111.85"/><rect class="d" x="52.92" y="132.68" width="34.44" height="5.68"/><rect class="d" x="92.92" y="132.68" width="34.44" height="5.68"/><rect class="p" x="71.62" y="116.94" width="36.92" height="18.46"/><g><path class="s" d="M38.73,129.6c0,2.15-1.96,3.91-4.35,3.91h-7.87c-2.39,0-4.35-1.76-4.35-3.91s1.96-3.91,4.35-3.91h7.87c2.39,0,4.35,1.76,4.35,3.91Z"/><path class="l" d="M38.73,129.6c0,2.15-1.96,3.91-4.35,3.91h-7.87c-2.39,0-4.35-1.76-4.35-3.91s1.96-3.91,4.35-3.91h7.87c2.39,0,4.35,1.76,4.35,3.91Z"/></g><path class="p" d="M49.88,104.95c.9-4.55-8.39-10.23-20.76-12.69-4.99-.99-10.14-1.39-14.07-1.11-.75,1.61-1.19,2.85-1.73,4.15-.82,1.95-1.52,4.89-2.06,8.34,3.71,2.11,8.81,3.96,14.58,5.11,12.37,2.46,23.13,.76,24.04-3.79Z"/><g><path class="s" d="M139.83,129.6c0,2.15,1.96,3.91,4.35,3.91h7.87c2.39,0,4.35-1.76,4.35-3.91s-1.96-3.91-4.35-3.91h-7.87c-2.39,0-4.35,1.76-4.35,3.91Z"/><path class="l" d="M139.83,129.6c0,2.15,1.96,3.91,4.35,3.91h7.87c2.39,0,4.35-1.76,4.35-3.91s-1.96-3.91-4.35-3.91h-7.87c-2.39,0-4.35,1.76-4.35,3.91Z"/></g><path class="p" d="M130.41,104.95c-.9-4.55,8.39-10.23,20.76-12.69,4.99-.99,10.09-1.31,14.02-1.03,.86,1.77,1.24,2.77,1.78,4.07,.82,1.95,1.4,4.89,1.95,8.34-3.71,2.11-8.7,3.96-14.47,5.11-12.37,2.46-23.13,.76-24.04-3.79Z"/><path class="t" d="M3.22,66.55s9.19,5.99,12.92,7.08c0,0-1.4-3.89-.93-6.62,0,0-4.75-1.95-11.99-.47Z"/><path class="t" d="M176.04,66.55s-9.19,5.99-12.92,7.08c0,0,1.4-3.89,.93-6.62,0,0,4.75-1.95,11.99-.47Z"/><path class="u" d="M29.31,77.59s32.66,19.87,61.39,22.18c0,0-30.96-7.93-37.71-22.93,0,0-11.04-.11-23.68,.75Z"/><g><line class="e" x1="14.72" y1="143.93" x2="14.72" y2="155.69"/><line class="e" x1="18.57" y1="143.93" x2="18.57" y2="155.69"/><line class="e" x1="22.43" y1="143.93" x2="22.43" y2="155.69"/><line class="e" x1="26.29" y1="143.93" x2="26.29" y2="155.69"/><line class="e" x1="30.14" y1="143.93" x2="30.14" y2="155.69"/></g><g><line class="e" x1="150.09" y1="143.93" x2="150.09" y2="155.69"/><line class="e" x1="153.95" y1="143.93" x2="153.95" y2="155.69"/><line class="e" x1="157.8" y1="143.93" x2="157.8" y2="155.69"/><line class="e" x1="161.66" y1="143.93" x2="161.66" y2="155.69"/><line class="e" x1="165.52" y1="143.93" x2="165.52" y2="155.69"/></g></g></g></g></g></svg>