<?xml version="1.0" encoding="UTF-8"?><svg xmlns="http://www.w3.org/2000/svg" width="25" height="24" viewBox="0 0 25 24"><defs><style>.d{fill:#fff;fill-rule:evenodd;}</style></defs><g id="a"/><g id="b"><g id="c"><path class="d" d="M25,10.22C25,4.59,19.39,0,12.5,0S0,4.59,0,10.22c0,5.05,4.45,9.28,10.45,10.08,.41,.09,.96,.27,1.1,.62,.13,.32,.08,.82,.04,1.14l-.18,1.08c-.06,.32-.25,1.24,1.08,.68,1.33-.57,7.2-4.27,9.82-7.31,1.81-2,2.68-4.03,2.68-6.29ZM5.22,7.5c.13,0,.24,.11,.24,.25v4.36h2.38c.13,0,.24,.11,.24,.24v.88c0,.14-.11,.25-.24,.25h-3.5c-.07,0-.12-.03-.17-.07h0c-.04-.05-.07-.11-.07-.18V7.74c0-.14,.11-.25,.24-.25h.88Zm15.62,0c.13,0,.24,.11,.24,.25v.88c0,.14-.11,.25-.24,.25h-2.38v.93h2.38c.13,0,.24,.11,.24,.25v.88c0,.14-.11,.25-.24,.25h-2.38v.93h2.38c.13,0,.24,.11,.24,.24v.88c0,.14-.11,.25-.24,.25h-3.5c-.07,0-.13-.03-.17-.07h0c-.04-.05-.07-.11-.07-.18V7.74c0-.07,.03-.12,.07-.17h0s.1-.08,.17-.08h3.5Zm-10.88,0c.13,0,.24,.11,.24,.24v5.49c0,.13-.11,.24-.24,.24h-.88c-.13,0-.24-.11-.24-.24V7.74c0-.14,.11-.24,.24-.24h.88Zm2.22,0h.08v.02h.03v.02h.03v.02h.02v.02h.02v.02l.02,.02,2.5,3.4v-3.26c0-.14,.11-.24,.24-.24h.88c.14,0,.24,.11,.24,.24v5.49c0,.13-.11,.24-.24,.24h-.96v-.02h-.04v-.02h-.02l-.06-.06-2.5-3.4v3.26c0,.13-.11,.24-.24,.24h-.88c-.13,0-.24-.11-.24-.24V7.74c0-.14,.11-.24,.24-.24h.88Z"/></g></g></svg>