<svg id="Layer_1" data-name="Layer 1" xmlns="http://www.w3.org/2000/svg" viewBox="0 0 30 30"><defs><style>.cls-1{fill:#fff;}</style></defs><path class="cls-1" d="M-4148.5,406a15,15,0,0,0-15,15,15,15,0,0,0,15,15,15,15,0,0,0,15-15A15,15,0,0,0-4148.5,406Zm0,24.56a9.56,9.56,0,0,1-9.56-9.56,9.56,9.56,0,0,1,9.56-9.56,9.56,9.56,0,0,1,9.56,9.56A9.56,9.56,0,0,1-4148.5,430.56Z" transform="translate(4163.5 -406)"/><path class="cls-1" d="M-4148.5,421.92a.92.92,0,0,0,.92-.92.92.92,0,0,0-.92-.92.92.92,0,0,0-.92.92A.92.92,0,0,0-4148.5,421.92Z" transform="translate(4163.5 -406)"/><path class="cls-1" d="M-4154.67,417.52a.63.63,0,0,0,.38.37l3.3,1.07a1,1,0,0,0,.9-.15,1,1,0,0,0,.42-.81v-3.46a.63.63,0,0,0-.23-.48.64.64,0,0,0-.52-.11s.05,0-.28.06a7.3,7.3,0,0,0-3.8,2.8c-.19.27-.12.19-.12.19A.63.63,0,0,0-4154.67,417.52Z" transform="translate(4163.5 -406)"/><path class="cls-1" d="M-4151.07,421.84a1,1,0,0,0-.65-.65l-3.29-1.07a.59.59,0,0,0-.52.07.6.6,0,0,0-.27.45s0-.05,0,.29a7.29,7.29,0,0,0,1.48,4.48c.19.27.14.17.14.17a.6.6,0,0,0,.49.21.61.61,0,0,0,.46-.25l2-2.8A1,1,0,0,0-4151.07,421.84Z" transform="translate(4163.5 -406)"/><path class="cls-1" d="M-4147.68,424.12a1,1,0,0,0-.82-.42,1,1,0,0,0-.81.42l-2,2.8a.6.6,0,0,0-.09.52.57.57,0,0,0,.35.39s-.07,0,.26.12a7.4,7.4,0,0,0,4.72,0c.31-.11.21-.09.21-.09a.59.59,0,0,0,.35-.39.6.6,0,0,0-.1-.52Z" transform="translate(4163.5 -406)"/><path class="cls-1" d="M-4142,420.12l-3.29,1.07a1,1,0,0,0-.65.65,1,1,0,0,0,.14.9l2,2.8a.61.61,0,0,0,.46.25.6.6,0,0,0,.49-.21s0,.06.19-.22a7.33,7.33,0,0,0,1.43-4.5c0-.32,0-.22,0-.22a.57.57,0,0,0-.27-.45A.59.59,0,0,0-4142,420.12Z" transform="translate(4163.5 -406)"/><path class="cls-1" d="M-4146.91,418.81a1,1,0,0,0,.9.15l3.3-1.07a.63.63,0,0,0,.38-.37.63.63,0,0,0-.05-.52s.05,0-.16-.25a7.32,7.32,0,0,0-3.83-2.76c-.31-.09-.22-.05-.22-.05a.63.63,0,0,0-.51.12.61.61,0,0,0-.23.47V418A1,1,0,0,0-4146.91,418.81Z" transform="translate(4163.5 -406)"/></svg>