<?xml version="1.0" encoding="UTF-8"?><svg xmlns="http://www.w3.org/2000/svg" width="217.47" height="61.73" viewBox="0 0 217.47 61.73"><defs><style>.d{fill:#002d4f;}.e{fill:#0075cc;}</style></defs><g id="a"/><g id="b"><g id="c"><g><path class="d" d="M4.38,56.23c-2.92-3.17-4.38-8.11-4.38-14.81,0-12.9,6.05-19.35,18.15-19.35,1.81,0,3.66,.19,5.54,.57,1.88,.38,3.35,.88,4.4,1.49,.94,.54,1.41,1.12,1.41,1.74,0,.51-.2,1.17-.6,1.98-.4,.82-.88,1.54-1.44,2.17-.56,.63-1.06,.95-1.49,.95-.11,0-.54-.16-1.3-.49s-1.69-.62-2.77-.87c-1.09-.25-2.39-.38-3.91-.38-3.19,0-5.55,1.01-7.09,3.04-1.54,2.03-2.31,5.09-2.31,9.18,0,8.26,3.1,12.39,9.29,12.39,1.63,0,3.04-.16,4.24-.49,1.2-.33,2.35-.74,3.48-1.25,.58-.29,.98-.43,1.2-.43,.54,0,1.06,.31,1.55,.92s.89,1.31,1.2,2.09c.31,.78,.46,1.35,.46,1.71,0,.94-.63,1.78-1.9,2.5-1.2,.69-2.77,1.21-4.73,1.55-1.96,.34-3.79,.52-5.49,.52-6.09,0-10.59-1.58-13.51-4.76Z"/><path class="d" d="M35.84,60.03c-.34-.34-.52-.9-.52-1.66V24.14c0-1.16,1.09-1.74,3.26-1.74h1.85c2.17,0,3.26,.58,3.26,1.74v29.29h11.74c.58,0,1,.22,1.25,.65,.25,.43,.38,1.12,.38,2.07v1.69c0,.94-.13,1.63-.38,2.07-.25,.43-.67,.65-1.25,.65h-17.93c-.76,0-1.31-.17-1.66-.52Z"/><path class="d" d="M110.85,57.53c-2.75-2.3-4.13-5.53-4.13-9.7V24.14c0-1.16,1.09-1.74,3.26-1.74h1.85c2.17,0,3.26,.58,3.26,1.74v23.15c0,1.92,.69,3.5,2.07,4.73,1.38,1.23,3.15,1.85,5.33,1.85s3.96-.62,5.35-1.85c1.39-1.23,2.09-2.81,2.09-4.73V24.14c0-1.16,1.09-1.74,3.26-1.74h1.79c2.17,0,3.26,.58,3.26,1.74v23.69c0,4.17-1.38,7.4-4.13,9.7-2.75,2.3-6.63,3.45-11.63,3.45s-8.88-1.15-11.63-3.45Z"/><path class="d" d="M146.47,60.03c-.34-.34-.52-.9-.52-1.66V24.68c0-.76,.17-1.31,.52-1.66s.9-.52,1.66-.52h11.63c5.62,0,9.92,1.64,12.91,4.92,2.99,3.28,4.48,7.98,4.48,14.1s-1.49,10.82-4.48,14.1c-2.99,3.28-7.29,4.92-12.91,4.92h-11.63c-.76,0-1.31-.17-1.66-.52Zm13.29-6.6c2.9,0,5.09-1.01,6.58-3.04,1.48-2.03,2.23-4.98,2.23-8.86s-.74-6.83-2.23-8.86c-1.49-2.03-3.68-3.04-6.58-3.04h-5.38v23.8h5.38Z"/><path class="d" d="M189.11,59.77c-.55-.77-.97-1.65-1.27-2.64-.3-.99-.45-1.79-.45-2.38,0-.54,.06-.92,.19-1.12,.12-.2,.38-.35,.78-.45,3.77-1.04,7.11-2.85,10.01-5.43s4.95-5.66,6.14-9.23c-2.28,1.24-4.76,1.86-7.44,1.86-2.13,0-4.32-.52-6.55-1.56s-4.14-2.74-5.73-5.1c-1.59-2.36-2.38-5.4-2.38-9.12s.84-6.97,2.53-9.45c1.69-2.48,3.84-4.3,6.48-5.47,2.63-1.17,5.46-1.75,8.49-1.75s5.87,.66,8.52,1.97c2.65,1.32,4.83,3.42,6.51,6.33,1.69,2.9,2.53,6.61,2.53,11.13,0,8.49-1.9,15.22-5.69,20.21-3.8,4.99-7.83,8.46-12.09,10.42-4.27,1.96-7.12,2.94-8.56,2.94-.79,0-1.46-.38-2.01-1.15Zm17.04-29.88c.05-.75,.07-1.89,.07-3.42,0-3.47-.58-5.98-1.75-7.52-1.17-1.54-2.72-2.31-4.65-2.31-1.79,0-3.29,.72-4.5,2.16-1.22,1.44-1.82,3.28-1.82,5.51s.6,4.08,1.79,5.4c1.19,1.32,2.85,1.97,4.99,1.97,1.79,0,3.75-.6,5.88-1.79Z"/><g><path class="e" d="M80.58,21.56c-11.09,0-20.08,8.99-20.08,20.08s8.99,20.08,20.08,20.08,20.08-8.99,20.08-20.08c0-11.09-8.99-20.08-20.08-20.08Zm0,32.89c-7.07,0-12.8-5.73-12.8-12.8s5.73-12.8,12.8-12.8,12.8,5.73,12.8,12.8-5.73,12.8-12.8,12.8Z"/><path class="e" d="M80.58,42.89c.68,0,1.24-.55,1.24-1.24s-.55-1.24-1.24-1.24-1.24,.55-1.24,1.24c0,.68,.55,1.24,1.24,1.24Z"/><path class="e" d="M72.32,36.99c.09,.23,.27,.41,.51,.49l4.41,1.43c.41,.13,.86,.06,1.21-.19,.35-.25,.56-.66,.56-1.09v-4.64c0-.25-.11-.48-.31-.63-.19-.15-.45-.21-.69-.15,0,0,.07-.05-.38,.09-2.08,.66-3.87,1.99-5.09,3.74-.25,.36-.16,.26-.16,.26-.13,.21-.15,.47-.07,.7Z"/><path class="e" d="M77.14,42.77c-.13-.41-.46-.73-.87-.87l-4.41-1.43c-.24-.08-.49-.04-.7,.1-.21,.14-.34,.36-.36,.61,0,0-.03-.08-.03,.39-.02,2.18,.7,4.29,1.98,6,.26,.35,.2,.23,.2,.23,.16,.19,.4,.29,.65,.28,.25,0,.48-.13,.62-.33l2.73-3.75c.25-.35,.32-.8,.19-1.21Z"/><path class="e" d="M81.67,45.82c-.25-.35-.66-.56-1.09-.56s-.84,.21-1.09,.56l-2.73,3.75c-.14,.2-.19,.46-.12,.7,.07,.24,.24,.43,.47,.53,0,0-.08,0,.36,.15,2.07,.69,4.3,.66,6.32-.03,.41-.14,.28-.12,.28-.12,.23-.1,.4-.29,.47-.53,.07-.24,.02-.49-.13-.69l-2.73-3.75Z"/><path class="e" d="M89.3,40.47l-4.41,1.43c-.41,.13-.73,.45-.87,.87-.13,.41-.06,.86,.19,1.21l2.72,3.75c.15,.2,.38,.32,.62,.33,.25,.01,.48-.09,.65-.28,0,0-.02,.08,.25-.3,1.3-1.75,1.96-3.88,1.92-6.02,0-.44-.03-.3-.03-.3-.02-.25-.15-.47-.36-.61-.21-.14-.46-.17-.7-.09Z"/><path class="e" d="M82.71,38.72c.35,.25,.8,.32,1.21,.19l4.41-1.43c.24-.08,.42-.26,.51-.49,.09-.23,.06-.49-.07-.7,0,0,.07,.05-.2-.33-1.27-1.78-3.08-3.06-5.13-3.69-.42-.13-.29-.07-.29-.07-.24-.06-.49,0-.69,.16-.19,.15-.31,.39-.31,.63v4.64c0,.43,.21,.84,.56,1.09Z"/></g><g><path class="e" d="M52.83,12.92V3.65h-2.95c-.1,0-.18-.04-.23-.11-.05-.07-.08-.19-.08-.35v-.25c0-.16,.03-.28,.08-.35s.13-.11,.23-.11h7.2c.11,0,.19,.04,.24,.11s.07,.19,.07,.35v.25c0,.16-.02,.28-.07,.35-.05,.07-.13,.11-.24,.11h-2.9V12.92c0,.23-.2,.34-.61,.34h-.12c-.41,0-.61-.11-.61-.34Z"/><path class="e" d="M60.41,12.92V2.79c0-.22,.2-.34,.61-.34h.12c.41,0,.61,.11,.61,.34V12.92c0,.23-.21,.34-.61,.34h-.12c-.41,0-.61-.11-.61-.34Z"/><path class="e" d="M65.99,12.92V2.94c0-.16,.04-.28,.11-.35s.19-.11,.35-.11h2.58c1.23,0,2.15,.22,2.77,.65,.62,.44,.93,1.12,.93,2.07,0,.63-.15,1.17-.46,1.6-.31,.44-.74,.77-1.31,.99v.06c.3,.1,.55,.3,.75,.6s.41,.74,.64,1.32l1.2,3.03c.03,.09,.05,.16,.05,.21,0,.16-.21,.25-.65,.25h-.15c-.15,0-.29-.02-.4-.07-.11-.05-.18-.11-.22-.18l-1.17-3.01c-.23-.58-.51-.98-.84-1.19-.34-.21-.82-.31-1.44-.31h-1.38v4.42c0,.23-.21,.34-.61,.34h-.12c-.41,0-.61-.11-.61-.34Zm3.38-5.59c.36,0,.69-.09,.99-.26,.3-.17,.54-.4,.71-.69,.17-.29,.26-.6,.26-.94,0-.6-.18-1.05-.55-1.35s-.88-.45-1.52-.45h-1.92v3.69h2.03Z"/><path class="e" d="M76.71,13.12c-.07-.07-.11-.19-.11-.35V2.94c0-.16,.04-.28,.11-.35,.07-.07,.19-.11,.35-.11h5.36c.11,0,.19,.04,.24,.11,.05,.07,.07,.19,.07,.35v.25c0,.16-.02,.28-.07,.35-.05,.07-.13,.11-.24,.11h-4.47v3.5h4.01c.11,0,.19,.04,.24,.11,.05,.07,.07,.19,.07,.35v.25c0,.16-.02,.28-.07,.35-.05,.07-.13,.11-.24,.11h-4.01v3.75h4.48c.11,0,.19,.04,.24,.11,.05,.07,.07,.19,.07,.35v.25c0,.16-.02,.28-.07,.35-.05,.07-.13,.11-.24,.11h-5.38c-.16,0-.28-.04-.35-.11Z"/><path class="e" d="M91.24,13.12c-.07-.07-.11-.19-.11-.35V2.94c0-.16,.04-.28,.11-.35,.07-.07,.19-.11,.35-.11h5.36c.11,0,.19,.04,.24,.11,.05,.07,.07,.19,.07,.35v.25c0,.16-.02,.28-.07,.35-.05,.07-.13,.11-.24,.11h-4.47v3.5h4.01c.11,0,.19,.04,.24,.11,.05,.07,.07,.19,.07,.35v.25c0,.16-.02,.28-.07,.35-.05,.07-.13,.11-.24,.11h-4.01v3.75h4.48c.11,0,.19,.04,.24,.11,.05,.07,.07,.19,.07,.35v.25c0,.16-.02,.28-.07,.35-.05,.07-.13,.11-.24,.11h-5.38c-.16,0-.28-.04-.35-.11Z"/><path class="e" d="M99.71,13.2c-.11-.04-.16-.11-.16-.2,0-.07,.04-.16,.12-.28l3.44-5.1-3.07-4.64c-.08-.11-.12-.21-.12-.28,0-.17,.24-.26,.71-.26h.21c.17,0,.31,.02,.42,.05,.1,.03,.18,.09,.25,.18l2.46,3.7,2.53-3.72c.09-.14,.31-.22,.66-.22h.09c.26,0,.44,.02,.54,.06,.11,.04,.16,.11,.16,.2,0,.07-.04,.16-.12,.28l-3.07,4.56,3.46,5.18c.08,.11,.12,.21,.12,.28,0,.17-.24,.26-.71,.26h-.25c-.17,0-.31-.01-.41-.05-.1-.03-.18-.09-.25-.18l-2.83-4.22-2.86,4.24c-.09,.14-.31,.21-.66,.21h-.12c-.26,0-.44-.02-.55-.06Z"/><path class="e" d="M111.93,11.99c-.8-.89-1.21-2.27-1.21-4.14,0-3.64,1.66-5.47,4.98-5.47,.5,0,.99,.05,1.45,.16,.47,.11,.84,.24,1.11,.39,.25,.14,.37,.28,.37,.4,0,.14-.06,.33-.19,.55-.13,.23-.24,.34-.33,.34-.03,0-.16-.06-.39-.19-.23-.13-.51-.24-.84-.34-.33-.1-.71-.15-1.14-.15-1.24,0-2.15,.34-2.73,1.03-.58,.69-.88,1.78-.88,3.29s.29,2.56,.87,3.25c.58,.69,1.47,1.04,2.68,1.04,.5,0,.93-.06,1.29-.18,.36-.12,.71-.27,1.06-.45,.14-.09,.24-.14,.29-.14,.09,0,.21,.11,.34,.34,.13,.22,.2,.39,.2,.49,0,.15-.16,.32-.49,.51-.31,.17-.7,.32-1.17,.43-.47,.11-.98,.17-1.52,.17-1.69,0-2.94-.44-3.74-1.33Z"/><path class="e" d="M122.09,12.92V2.79c0-.22,.2-.34,.61-.34h.12c.41,0,.61,.11,.61,.34V7.13h5.56V2.79c0-.22,.2-.34,.61-.34h.12c.41,0,.61,.11,.61,.34V12.92c0,.23-.21,.34-.61,.34h-.12c-.41,0-.61-.11-.61-.34v-4.62h-5.56v4.62c0,.23-.21,.34-.61,.34h-.12c-.41,0-.61-.11-.61-.34Z"/><path class="e" d="M133.26,13c0-.05,.02-.12,.05-.21l3.64-10.09c.06-.16,.27-.25,.61-.25h.45c.37,0,.57,.08,.61,.25l3.64,10.11c.03,.07,.05,.14,.05,.2,0,.17-.22,.26-.66,.26h-.12c-.36,0-.56-.08-.61-.25l-.91-2.52h-4.52l-.88,2.52c-.05,.16-.26,.25-.61,.25h-.08c-.44,0-.66-.09-.66-.26Zm6.33-3.67l-1.61-4.58c-.05-.16-.11-.46-.18-.89h-.03c-.08,.41-.16,.71-.23,.89l-1.61,4.58h3.67Z"/><path class="e" d="M145.1,12.92V2.79c0-.22,.2-.34,.61-.34h.32c.16,0,.29,.02,.39,.06,.1,.04,.18,.12,.25,.23l4.82,7.28c.17,.26,.34,.56,.51,.92l.06-.02c-.02-.24-.03-.58-.03-1.04V2.79c0-.22,.21-.34,.61-.34h.11c.41,0,.61,.11,.61,.34V12.92c0,.23-.21,.34-.61,.34h-.31c-.27,0-.45-.07-.54-.21l-4.95-7.46c-.17-.26-.34-.56-.51-.92l-.06,.02c.02,.24,.03,.58,.03,1.04v7.2c0,.23-.2,.34-.61,.34h-.11c-.41,0-.61-.11-.61-.34Z"/><path class="e" d="M164.93,7.79c.07,.07,.11,.19,.11,.35v4.07c0,.4-.32,.68-.96,.85-.64,.17-1.46,.25-2.47,.25-1.55,0-2.72-.45-3.53-1.34-.81-.89-1.21-2.24-1.21-4.04,0-3.71,1.66-5.56,4.98-5.56,.48,0,.95,.05,1.41,.15s.82,.22,1.11,.38c.28,.15,.42,.3,.42,.43,0,.14-.06,.33-.19,.55-.13,.23-.24,.34-.33,.34-.03,0-.16-.06-.39-.19-.23-.13-.51-.24-.84-.34-.33-.1-.71-.15-1.14-.15-1.3,0-2.23,.36-2.78,1.08-.55,.72-.83,1.78-.83,3.18s.26,2.39,.77,3.17c.51,.78,1.4,1.17,2.67,1.17,.38,0,.75-.02,1.11-.05,.36-.04,.65-.08,.87-.15v-3.1h-1.8c-.1,0-.18-.04-.23-.11-.05-.07-.08-.19-.08-.35v-.25c0-.16,.03-.28,.08-.35,.05-.07,.13-.11,.23-.11h2.69c.16,0,.28,.04,.35,.11Z"/><path class="e" d="M169.15,13.12c-.07-.07-.11-.19-.11-.35V2.94c0-.16,.04-.28,.11-.35,.07-.07,.19-.11,.35-.11h5.36c.11,0,.19,.04,.24,.11,.05,.07,.07,.19,.07,.35v.25c0,.16-.02,.28-.07,.35-.05,.07-.13,.11-.24,.11h-4.47v3.5h4.01c.11,0,.19,.04,.24,.11,.05,.07,.07,.19,.07,.35v.25c0,.16-.02,.28-.07,.35-.05,.07-.13,.11-.24,.11h-4.01v3.75h4.48c.11,0,.19,.04,.24,.11,.05,.07,.07,.19,.07,.35v.25c0,.16-.02,.28-.07,.35-.05,.07-.13,.11-.24,.11h-5.38c-.16,0-.28-.04-.35-.11Z"/></g><g><g><path class="e" d="M28.97,1.41h3.36l-.45-1.41h-3.36l.45,1.41Zm2.88-.68c0,.07-.07,.12-.16,.12s-.16-.05-.16-.12,.07-.12,.16-.12,.16,.05,.16,.12Zm-2.6,0c0,.07-.07,.12-.16,.12s-.16-.05-.16-.12,.07-.12,.16-.12,.16,.05,.16,.12Z"/><path class="e" d="M28.52,13.34h3.36l.45-1.41h-3.36l-.45,1.41Zm3.17-.61c-.09,0-.16-.05-.16-.12s.07-.12,.16-.12,.16,.05,.16,.12-.07,.12-.16,.12Zm-2.6,0c-.09,0-.16-.05-.16-.12s.07-.12,.16-.12,.16,.05,.16,.12-.07,.12-.16,.12Z"/><path class="e" d="M32.43,11.62l.71-2.24v-1.08s-.06,.02-.09,.02c-.09,0-.16-.05-.16-.12s.07-.12,.16-.12c.03,0,.06,0,.09,.02v-.77h-2.72l-1.35,4.28h3.36Zm-2.14-3.42c0-.07,.07-.12,.16-.12s.16,.05,.16,.12-.07,.12-.16,.12-.16-.05-.16-.12Zm-.73,2.47c0-.07,.07-.12,.16-.12s.16,.05,.16,.12-.07,.12-.16,.12-.16-.05-.16-.12Zm2.6,0c0-.07,.07-.12,.16-.12s.16,.05,.16,.12-.07,.12-.16,.12-.16-.05-.16-.12Z"/><path class="e" d="M33.14,6v-.77s-.06,.02-.09,.02c-.09,0-.16-.05-.16-.12s.07-.12,.16-.12c.03,0,.06,0,.09,.02v-1.08l-.71-2.24h-3.36l1.35,4.28h2.72Zm-3.58-3.34c0-.07,.07-.12,.16-.12s.16,.05,.16,.12-.07,.12-.16,.12-.16-.05-.16-.12Zm2.6,0c0-.07,.07-.12,.16-.12s.16,.05,.16,.12-.07,.12-.16,.12-.16-.05-.16-.12Zm-1.87,2.47c0-.07,.07-.12,.16-.12s.16,.05,.16,.12-.07,.12-.16,.12-.16-.05-.16-.12Z"/><path class="e" d="M28.52,5.04s.07,.06,.07,.1-.03,.08-.07,.1v.77h.65l-.65-2.05v1.08Z"/><path class="e" d="M28.52,7.33v.77s.07,.06,.07,.1-.03,.08-.07,.1v1.08l.65-2.05h-.65Z"/><path class="e" d="M33.14,5.04s.07,.06,.07,.1-.03,.08-.07,.1v.77h.65l-.65-2.05v1.08Z"/><path class="e" d="M33.14,7.33v.77s.07,.06,.07,.1-.03,.08-.07,.1v1.08l.65-2.05h-.65Z"/><path class="e" d="M41.94,5.04s.07,.06,.07,.1-.03,.08-.07,.1v.77h.65l-.65-2.05v1.08Z"/><path class="e" d="M41.94,7.33v.77s.07,.06,.07,.1-.03,.08-.07,.1v1.08l.65-2.05h-.65Z"/><path class="e" d="M24.98,5.04s.07,.06,.07,.1-.03,.08-.07,.1v.77h.65l-.65-2.05v1.08Z"/><path class="e" d="M24.98,7.33v.77s.07,.06,.07,.1-.03,.08-.07,.1v1.08l.65-2.05h-.65Z"/><path class="e" d="M16.82,5.04s.07,.06,.07,.1-.03,.08-.07,.1v.77h.65l-.65-2.05v1.08Z"/><path class="e" d="M16.82,7.33v.77s.07,.06,.07,.1-.03,.08-.07,.1v1.08l.65-2.05h-.65Z"/><path class="e" d="M8.66,5.04s.07,.06,.07,.1-.03,.08-.07,.1v.77h.65l-.65-2.05v1.08Z"/><path class="e" d="M8.66,7.33v.77s.07,.06,.07,.1-.03,.08-.07,.1v1.08l.65-2.05h-.65Z"/></g><g><path class="e" d="M37.78,1.41h3.36l-.45-1.41h-3.36l.45,1.41Zm2.88-.68c0,.07-.07,.12-.16,.12s-.16-.05-.16-.12,.07-.12,.16-.12,.16,.05,.16,.12Zm-2.6,0c0,.07-.07,.12-.16,.12s-.16-.05-.16-.12,.07-.12,.16-.12,.16,.05,.16,.12Z"/><path class="e" d="M37.33,13.34h3.36l.45-1.41h-3.36l-.45,1.41Zm3.17-.61c-.09,0-.16-.05-.16-.12s.07-.12,.16-.12,.16,.05,.16,.12-.07,.12-.16,.12Zm-2.6,0c-.09,0-.16-.05-.16-.12s.07-.12,.16-.12,.16,.05,.16,.12-.07,.12-.16,.12Z"/><path class="e" d="M41.24,11.62l.71-2.24v-1.08s-.06,.02-.09,.02c-.09,0-.16-.05-.16-.12s.07-.12,.16-.12c.03,0,.06,0,.09,.02v-.77h-2.72l-1.35,4.28h3.36Zm-2.14-3.42c0-.07,.07-.12,.16-.12s.16,.05,.16,.12-.07,.12-.16,.12-.16-.05-.16-.12Zm-.73,2.47c0-.07,.07-.12,.16-.12s.16,.05,.16,.12-.07,.12-.16,.12-.16-.05-.16-.12Zm2.6,0c0-.07,.07-.12,.16-.12s.16,.05,.16,.12-.07,.12-.16,.12-.16-.05-.16-.12Z"/><path class="e" d="M41.94,6v-.77s-.06,.02-.09,.02c-.09,0-.16-.05-.16-.12s.07-.12,.16-.12c.03,0,.06,0,.09,.02v-1.08l-.71-2.24h-3.36l1.35,4.28h2.72Zm-3.58-3.34c0-.07,.07-.12,.16-.12s.16,.05,.16,.12-.07,.12-.16,.12-.16-.05-.16-.12Zm2.6,0c0-.07,.07-.12,.16-.12s.16,.05,.16,.12-.07,.12-.16,.12-.16-.05-.16-.12Zm-1.87,2.47c0-.07,.07-.12,.16-.12s.16,.05,.16,.12-.07,.12-.16,.12-.16-.05-.16-.12Z"/><path class="e" d="M37.33,5.04s.07,.06,.07,.1-.03,.08-.07,.1v.77h.65l-.65-2.05v1.08Z"/><path class="e" d="M37.33,7.33v.77s.07,.06,.07,.1-.03,.08-.07,.1v1.08l.65-2.05h-.65Z"/><path class="e" d="M4.14,5.04s.07,.06,.07,.1-.03,.08-.07,.1v.77h.65l-.65-2.05v1.08Z"/><path class="e" d="M4.14,7.33v.77s.07,.06,.07,.1-.03,.08-.07,.1v1.08l.65-2.05h-.65Z"/></g><g><path class="e" d="M20.81,1.41h3.36l-.45-1.41h-3.36l.45,1.41Zm2.88-.68c0,.07-.07,.12-.16,.12s-.16-.05-.16-.12,.07-.12,.16-.12,.16,.05,.16,.12Zm-2.6,0c0,.07-.07,.12-.16,.12s-.16-.05-.16-.12,.07-.12,.16-.12,.16,.05,.16,.12Z"/><path class="e" d="M20.37,13.34h3.36l.45-1.41h-3.36l-.45,1.41Zm3.17-.61c-.09,0-.16-.05-.16-.12s.07-.12,.16-.12,.16,.05,.16,.12-.07,.12-.16,.12Zm-2.6,0c-.09,0-.16-.05-.16-.12s.07-.12,.16-.12,.16,.05,.16,.12-.07,.12-.16,.12Z"/><path class="e" d="M24.27,11.62l.71-2.24v-1.08s-.06,.02-.09,.02c-.09,0-.16-.05-.16-.12s.07-.12,.16-.12c.03,0,.06,0,.09,.02v-.77h-2.72l-1.35,4.28h3.36Zm-2.14-3.42c0-.07,.07-.12,.16-.12s.16,.05,.16,.12-.07,.12-.16,.12-.16-.05-.16-.12Zm-.73,2.47c0-.07,.07-.12,.16-.12s.16,.05,.16,.12-.07,.12-.16,.12-.16-.05-.16-.12Zm2.6,0c0-.07,.07-.12,.16-.12s.16,.05,.16,.12-.07,.12-.16,.12-.16-.05-.16-.12Z"/><path class="e" d="M24.98,6v-.77s-.06,.02-.09,.02c-.09,0-.16-.05-.16-.12s.07-.12,.16-.12c.03,0,.06,0,.09,.02v-1.08l-.71-2.24h-3.36l1.35,4.28h2.72Zm-3.58-3.34c0-.07,.07-.12,.16-.12s.16,.05,.16,.12-.07,.12-.16,.12-.16-.05-.16-.12Zm2.6,0c0-.07,.07-.12,.16-.12s.16,.05,.16,.12-.07,.12-.16,.12-.16-.05-.16-.12Zm-1.87,2.47c0-.07,.07-.12,.16-.12s.16,.05,.16,.12-.07,.12-.16,.12-.16-.05-.16-.12Z"/><path class="e" d="M20.37,5.04s.07,.06,.07,.1-.03,.08-.07,.1v.77h.65l-.65-2.05v1.08Z"/><path class="e" d="M20.37,7.33v.77s.07,.06,.07,.1-.03,.08-.07,.1v1.08l.65-2.05h-.65Z"/></g><g><path class="e" d="M12.65,1.41h3.36l-.45-1.41h-3.36l.45,1.41Zm2.88-.68c0,.07-.07,.12-.16,.12s-.16-.05-.16-.12,.07-.12,.16-.12,.16,.05,.16,.12Zm-2.6,0c0,.07-.07,.12-.16,.12s-.16-.05-.16-.12,.07-.12,.16-.12,.16,.05,.16,.12Z"/><path class="e" d="M12.21,13.34h3.36l.45-1.41h-3.36l-.45,1.41Zm3.17-.61c-.09,0-.16-.05-.16-.12s.07-.12,.16-.12,.16,.05,.16,.12-.07,.12-.16,.12Zm-2.6,0c-.09,0-.16-.05-.16-.12s.07-.12,.16-.12,.16,.05,.16,.12-.07,.12-.16,.12Z"/><path class="e" d="M16.12,11.62l.71-2.24v-1.08s-.06,.02-.09,.02c-.09,0-.16-.05-.16-.12s.07-.12,.16-.12c.03,0,.06,0,.09,.02v-.77h-2.72l-1.35,4.28h3.36Zm-2.14-3.42c0-.07,.07-.12,.16-.12s.16,.05,.16,.12-.07,.12-.16,.12-.16-.05-.16-.12Zm-.73,2.47c0-.07,.07-.12,.16-.12s.16,.05,.16,.12-.07,.12-.16,.12-.16-.05-.16-.12Zm2.6,0c0-.07,.07-.12,.16-.12s.16,.05,.16,.12-.07,.12-.16,.12-.16-.05-.16-.12Z"/><path class="e" d="M16.82,6v-.77s-.06,.02-.09,.02c-.09,0-.16-.05-.16-.12s.07-.12,.16-.12c.03,0,.06,0,.09,.02v-1.08l-.71-2.24h-3.36l1.35,4.28h2.72Zm-3.58-3.34c0-.07,.07-.12,.16-.12s.16,.05,.16,.12-.07,.12-.16,.12-.16-.05-.16-.12Zm2.6,0c0-.07,.07-.12,.16-.12s.16,.05,.16,.12-.07,.12-.16,.12-.16-.05-.16-.12Zm-1.87,2.47c0-.07,.07-.12,.16-.12s.16,.05,.16,.12-.07,.12-.16,.12-.16-.05-.16-.12Z"/><path class="e" d="M12.21,5.04s.07,.06,.07,.1-.03,.08-.07,.1v.77h.65l-.65-2.05v1.08Z"/><path class="e" d="M12.21,7.33v.77s.07,.06,.07,.1-.03,.08-.07,.1v1.08l.65-2.05h-.65Z"/></g><g><path class="e" d="M4.5,1.41h3.36l-.45-1.41h-3.36l.45,1.41Zm2.88-.68c0,.07-.07,.12-.16,.12s-.16-.05-.16-.12,.07-.12,.16-.12,.16,.05,.16,.12Zm-2.6,0c0,.07-.07,.12-.16,.12s-.16-.05-.16-.12,.07-.12,.16-.12,.16,.05,.16,.12Z"/><path class="e" d="M4.05,13.34h3.36l.45-1.41h-3.36l-.45,1.41Zm3.17-.61c-.09,0-.16-.05-.16-.12s.07-.12,.16-.12,.16,.05,.16,.12-.07,.12-.16,.12Zm-2.6,0c-.09,0-.16-.05-.16-.12s.07-.12,.16-.12,.16,.05,.16,.12-.07,.12-.16,.12Z"/><path class="e" d="M7.96,11.62l.71-2.24v-1.08s-.06,.02-.09,.02c-.09,0-.16-.05-.16-.12s.07-.12,.16-.12c.03,0,.06,0,.09,.02v-.77h-2.72l-1.35,4.28h3.36Zm-2.14-3.42c0-.07,.07-.12,.16-.12s.16,.05,.16,.12-.07,.12-.16,.12-.16-.05-.16-.12Zm-.73,2.47c0-.07,.07-.12,.16-.12s.16,.05,.16,.12-.07,.12-.16,.12-.16-.05-.16-.12Zm2.6,0c0-.07,.07-.12,.16-.12s.16,.05,.16,.12-.07,.12-.16,.12-.16-.05-.16-.12Z"/><path class="e" d="M8.66,6v-.77s-.06,.02-.09,.02c-.09,0-.16-.05-.16-.12s.07-.12,.16-.12c.03,0,.06,0,.09,.02v-1.08l-.71-2.24h-3.36l1.35,4.28h2.72Zm-3.58-3.34c0-.07,.07-.12,.16-.12s.16,.05,.16,.12-.07,.12-.16,.12-.16-.05-.16-.12Zm2.6,0c0-.07,.07-.12,.16-.12s.16,.05,.16,.12-.07,.12-.16,.12-.16-.05-.16-.12Zm-1.87,2.47c0-.07,.07-.12,.16-.12s.16,.05,.16,.12-.07,.12-.16,.12-.16-.05-.16-.12Z"/></g></g></g></g></g></svg>