<?xml version="1.0" encoding="UTF-8"?><svg xmlns="http://www.w3.org/2000/svg" width="40" height="40" viewBox="0 0 40 40"><defs><style>.e{fill:#fff;}.f{fill:#002d4f;}</style></defs><g id="a"/><g id="b"><g id="c"><g id="d"><circle class="f" cx="20" cy="20" r="20"/><path class="e" d="M23.8,13.24c1.04,.67,1.83,1.55,2.37,2.67,.54,1.11,.81,2.35,.81,3.71,0,1.48-.29,2.79-.88,3.91s-1.4,2-2.44,2.64c-1.04,.64-2.26,.97-3.67,1-1.48,0-2.75-.33-3.79-.99s-1.84-1.55-2.38-2.67c-.55-1.12-.82-2.36-.82-3.72,0-1.47,.29-2.76,.88-3.88,.59-1.12,1.41-2,2.46-2.65,1.05-.64,2.27-.98,3.65-1.01,1.5,0,2.77,.33,3.81,1Zm-7.47,9.16c.34,.78,.81,1.38,1.44,1.82,.62,.43,1.35,.65,2.19,.65,.78,0,1.49-.19,2.11-.58,.62-.39,1.13-.96,1.51-1.73s.58-1.74,.58-2.92c0-.99-.17-1.87-.49-2.62-.33-.76-.81-1.35-1.43-1.8s-1.36-.66-2.22-.66c-.74,0-1.44,.22-2.08,.65s-1.16,1.04-1.54,1.81c-.39,.77-.58,1.69-.58,2.75,0,.98,.17,1.86,.5,2.64Zm10.29,3.81l-1.6,1.41-5.06-4.7,1.83-1.41,4.83,4.7Z"/></g></g></g></svg>