<?xml version="1.0" encoding="UTF-8"?><svg xmlns="http://www.w3.org/2000/svg" width="282" height="20" viewBox="0 0 282 20"><defs><style>.d{fill:#b9bec1;}</style></defs><g id="a"/><g id="b"><g id="c"><g><rect class="d" width="10.05" height="10"/><rect class="d" x="10.05" y="10" width="10.05" height="10"/><rect class="d" x="20.15" width="10.05" height="10"/><rect class="d" x="30.2" y="10" width="10.05" height="10"/><rect class="d" x="40.3" width="10.05" height="10"/><rect class="d" x="50.36" y="10" width="10.05" height="10"/><rect class="d" x="60.46" width="10.05" height="10"/><rect class="d" x="70.51" y="10" width="10.05" height="10"/><rect class="d" x="80.61" width="10.05" height="10"/><rect class="d" x="90.66" y="10" width="10.05" height="10"/><rect class="d" x="100.76" width="10.05" height="10"/><rect class="d" x="110.81" y="10" width="10.05" height="10"/><rect class="d" x="120.91" width="10.05" height="10"/><rect class="d" x="130.97" y="10" width="10.05" height="10"/><rect class="d" x="141.07" width="10.05" height="10"/><rect class="d" x="151.12" y="10" width="10.05" height="10"/><rect class="d" x="161.22" width="10.05" height="10"/><rect class="d" x="171.27" y="10" width="10.05" height="10"/><rect class="d" x="181.37" width="10.05" height="10"/><rect class="d" x="191.42" y="10" width="10.05" height="10"/><rect class="d" x="201.52" width="10.05" height="10"/><rect class="d" x="211.58" y="10" width="10.05" height="10"/><rect class="d" x="221.68" width="10.05" height="10"/><rect class="d" x="231.73" y="10" width="10.05" height="10"/><rect class="d" x="241.79" width="10.05" height="10"/><rect class="d" x="251.85" y="10" width="10.05" height="10"/><rect class="d" x="261.9" width="10.05" height="10"/><rect class="d" x="271.95" y="10" width="10.05" height="10"/></g></g></g></svg>