<?xml version="1.0" encoding="UTF-8"?><svg xmlns="http://www.w3.org/2000/svg" width="23" height="22" viewBox="0 0 23 22"><defs><style>.d{fill:#fff;fill-rule:evenodd;}</style></defs><g id="a"/><g id="b"><g id="c"><path class="d" d="M23,9.37C23,4.2,17.84,0,11.5,0S0,4.2,0,9.37c0,4.63,4.09,8.51,9.62,9.24,.37,.08,.88,.25,1.01,.57,.12,.29,.08,.75,.04,1.04l-.16,.99c-.05,.29-.23,1.14,1,.62,1.23-.52,6.62-3.91,9.04-6.7,1.67-1.83,2.46-3.7,2.46-5.76ZM4.8,6.87c.12,0,.22,.1,.22,.23v4h2.19c.12,0,.22,.1,.22,.22v.81c0,.12-.1,.23-.22,.23H4c-.06,0-.11-.02-.15-.06h0s-.06-.1-.06-.16V7.1c0-.12,.1-.23,.22-.23h.81Zm14.37,0c.12,0,.22,.1,.22,.23v.81c0,.12-.1,.23-.22,.23h-2.19v.85h2.19c.12,0,.22,.1,.22,.23v.81c0,.12-.1,.23-.22,.23h-2.19v.85h2.19c.12,0,.22,.1,.22,.22v.81c0,.12-.1,.23-.22,.23h-3.22c-.06,0-.12-.02-.16-.06h0s-.06-.1-.06-.16V7.1c0-.06,.02-.11,.06-.15h0s.09-.07,.16-.07h3.22Zm-10.01,0c.12,0,.22,.1,.22,.22v5.03c0,.12-.1,.22-.22,.22h-.81c-.12,0-.22-.1-.22-.22V7.1c0-.12,.1-.22,.22-.22h.81Zm2.04,0h.07v.02h.03v.02h.03v.02h.02v.03h.02l.02,.02,2.3,3.11v-2.99c0-.12,.1-.22,.22-.22h.81c.12,0,.22,.1,.22,.22v5.03c0,.12-.1,.22-.22,.22h-.88v-.02h-.04v-.02h-.02l-.06-.06-2.3-3.12v2.99c0,.12-.1,.22-.22,.22h-.81c-.12,0-.22-.1-.22-.22V7.1c0-.12,.1-.22,.22-.22h.81Z"/></g></g></svg>