<?xml version="1.0" encoding="UTF-8"?><svg xmlns="http://www.w3.org/2000/svg" width="185" height="52.51" viewBox="0 0 185 52.51"><defs><style>.d{fill:#002d4f;}.e{fill:#0075cc;}</style></defs><g id="a"/><g id="b"><g id="c"><g><path class="d" d="M3.72,47.83c-2.48-2.7-3.72-6.9-3.72-12.6,0-10.97,5.15-16.46,15.44-16.46,1.54,0,3.11,.16,4.72,.49,1.6,.32,2.85,.75,3.74,1.27,.8,.46,1.2,.96,1.2,1.48,0,.43-.17,.99-.51,1.69-.34,.69-.75,1.31-1.22,1.85-.48,.54-.9,.81-1.27,.81-.09,0-.46-.14-1.11-.42s-1.43-.52-2.36-.74c-.92-.22-2.03-.32-3.33-.32-2.71,0-4.72,.86-6.03,2.59-1.31,1.73-1.96,4.33-1.96,7.81,0,7.03,2.64,10.54,7.91,10.54,1.39,0,2.59-.14,3.61-.42,1.02-.28,2-.63,2.96-1.06,.49-.25,.83-.37,1.02-.37,.46,0,.9,.26,1.32,.79s.75,1.12,1.02,1.78c.26,.66,.39,1.15,.39,1.46,0,.8-.54,1.51-1.62,2.13-1.02,.59-2.36,1.03-4.02,1.32-1.66,.29-3.22,.44-4.67,.44-5.18,0-9.01-1.35-11.49-4.05Z"/><path class="d" d="M30.49,51.07c-.29-.29-.44-.76-.44-1.41V20.53c0-.99,.92-1.48,2.77-1.48h1.57c1.85,0,2.77,.49,2.77,1.48v24.92h9.99c.49,0,.85,.19,1.06,.55,.21,.37,.32,.96,.32,1.76v1.43c0,.8-.11,1.39-.32,1.76-.22,.37-.57,.55-1.06,.55h-15.26c-.65,0-1.12-.15-1.41-.44Z"/><path class="d" d="M94.3,48.94c-2.34-1.96-3.51-4.71-3.51-8.25V20.53c0-.99,.92-1.48,2.77-1.48h1.57c1.85,0,2.77,.49,2.77,1.48v19.69c0,1.63,.58,2.97,1.76,4.02,1.17,1.05,2.68,1.57,4.53,1.57s3.37-.52,4.55-1.57c1.19-1.05,1.78-2.39,1.78-4.02V20.53c0-.99,.92-1.48,2.77-1.48h1.53c1.85,0,2.77,.49,2.77,1.48v20.16c0,3.54-1.17,6.3-3.51,8.25-2.34,1.96-5.64,2.94-9.89,2.94s-7.55-.98-9.89-2.94Z"/><path class="d" d="M124.6,51.07c-.29-.29-.44-.76-.44-1.41V21c0-.65,.15-1.12,.44-1.41s.76-.44,1.41-.44h9.89c4.78,0,8.44,1.4,10.98,4.18,2.54,2.79,3.81,6.79,3.81,12s-1.27,9.21-3.81,12c-2.54,2.79-6.2,4.18-10.98,4.18h-9.89c-.65,0-1.12-.15-1.41-.44Zm11.3-5.62c2.47,0,4.33-.86,5.59-2.59,1.26-1.73,1.9-4.24,1.9-7.54s-.63-5.81-1.9-7.54c-1.26-1.73-3.13-2.59-5.59-2.59h-4.58v20.25h4.58Z"/><path class="d" d="M160.88,50.84c-.47-.65-.82-1.4-1.08-2.25-.25-.84-.38-1.52-.38-2.03,0-.46,.05-.78,.16-.95,.11-.17,.33-.29,.66-.38,3.21-.89,6.05-2.43,8.52-4.62,2.47-2.19,4.21-4.81,5.22-7.85-1.94,1.06-4.05,1.58-6.33,1.58-1.82,0-3.67-.44-5.57-1.33-1.9-.89-3.52-2.33-4.88-4.34-1.35-2-2.03-4.59-2.03-7.76s.72-5.93,2.15-8.04c1.43-2.11,3.27-3.66,5.51-4.65,2.24-.99,4.64-1.49,7.22-1.49s4.99,.56,7.25,1.68c2.26,1.12,4.1,2.91,5.54,5.38,1.43,2.47,2.15,5.63,2.15,9.47,0,7.22-1.61,12.95-4.84,17.19-3.23,4.24-6.66,7.2-10.29,8.86-3.63,1.67-6.06,2.5-7.28,2.5-.68,0-1.25-.33-1.71-.98Zm14.5-25.42c.04-.63,.06-1.6,.06-2.91,0-2.95-.5-5.09-1.49-6.39-.99-1.31-2.31-1.96-3.96-1.96-1.52,0-2.8,.61-3.83,1.84-1.03,1.22-1.55,2.79-1.55,4.69s.51,3.47,1.52,4.59c1.01,1.12,2.43,1.68,4.24,1.68,1.52,0,3.19-.51,5-1.52Z"/><g><path class="e" d="M68.55,18.34c-9.44,0-17.09,7.65-17.09,17.09s7.65,17.09,17.09,17.09,17.09-7.65,17.09-17.09c0-9.44-7.65-17.09-17.09-17.09Zm0,27.98c-6.02,0-10.89-4.88-10.89-10.89s4.88-10.89,10.89-10.89,10.89,4.88,10.89,10.89-4.88,10.89-10.89,10.89Z"/><path class="e" d="M68.55,36.48c.58,0,1.05-.47,1.05-1.05s-.47-1.05-1.05-1.05-1.05,.47-1.05,1.05c0,.58,.47,1.05,1.05,1.05Z"/><path class="e" d="M61.52,31.47c.07,.2,.23,.35,.43,.41l3.75,1.22c.35,.11,.73,.05,1.03-.16,.3-.22,.47-.56,.47-.93v-3.94c0-.21-.1-.41-.26-.54-.16-.13-.38-.18-.59-.13,0,0,.06-.04-.32,.08-1.77,.56-3.29,1.69-4.33,3.18-.21,.31-.13,.22-.13,.22-.11,.18-.13,.4-.06,.6Z"/><path class="e" d="M65.62,36.38c-.11-.35-.39-.62-.74-.74l-3.75-1.22c-.2-.06-.42-.03-.59,.08-.18,.12-.29,.31-.31,.52,0,0-.02-.07-.03,.33-.02,1.86,.59,3.65,1.69,5.1,.22,.3,.17,.19,.17,.19,.14,.16,.34,.25,.55,.24,.21,0,.41-.11,.53-.28l2.32-3.19c.22-.3,.28-.68,.16-1.03Z"/><path class="e" d="M69.48,38.98c-.22-.3-.56-.47-.93-.47s-.71,.18-.93,.47l-2.32,3.19c-.12,.17-.16,.39-.11,.59,.06,.2,.2,.37,.4,.45,0,0-.07,0,.31,.13,1.76,.59,3.65,.56,5.37-.03,.35-.12,.23-.1,.23-.1,.19-.08,.34-.25,.4-.45,.06-.2,.02-.42-.11-.59l-2.32-3.19Z"/><path class="e" d="M75.97,34.42l-3.75,1.22c-.35,.11-.62,.39-.74,.74-.11,.35-.05,.73,.16,1.03l2.32,3.19c.12,.17,.32,.27,.53,.28,.21,0,.41-.08,.55-.24,0,0-.02,.07,.22-.25,1.11-1.49,1.67-3.3,1.64-5.12,0-.37-.02-.25-.02-.25-.02-.21-.13-.4-.31-.52-.18-.12-.39-.15-.59-.08Z"/><path class="e" d="M70.36,32.94c.3,.22,.68,.28,1.03,.16l3.75-1.22c.2-.06,.36-.22,.43-.41,.07-.2,.05-.42-.06-.6,0,0,.06,.04-.17-.28-1.08-1.51-2.62-2.61-4.36-3.14-.36-.11-.25-.06-.25-.06-.21-.05-.42,0-.58,.13-.17,.13-.26,.33-.26,.54v3.95c0,.37,.18,.71,.47,.93Z"/></g><g><path class="e" d="M44.94,10.99V3.1h-2.51c-.09,0-.15-.03-.2-.09-.04-.06-.07-.16-.07-.3v-.21c0-.14,.02-.24,.07-.3,.04-.06,.11-.09,.2-.09h6.13c.1,0,.16,.03,.2,.09s.06,.16,.06,.3v.21c0,.14-.02,.24-.06,.3-.04,.06-.11,.09-.2,.09h-2.47v7.89c0,.19-.17,.29-.52,.29h-.1c-.35,0-.52-.1-.52-.29Z"/><path class="e" d="M51.39,10.99V2.37c0-.19,.17-.29,.52-.29h.1c.35,0,.52,.1,.52,.29V10.99c0,.19-.17,.29-.52,.29h-.1c-.35,0-.52-.1-.52-.29Z"/><path class="e" d="M56.13,10.99V2.5c0-.14,.03-.24,.09-.3s.16-.09,.3-.09h2.2c1.05,0,1.83,.19,2.36,.56,.53,.37,.79,.96,.79,1.76,0,.54-.13,1-.39,1.37-.26,.37-.63,.65-1.11,.84v.05c.25,.09,.46,.26,.63,.51s.35,.63,.54,1.12l1.02,2.57c.03,.08,.04,.14,.04,.18,0,.14-.18,.21-.55,.21h-.13c-.13,0-.24-.02-.34-.06-.1-.04-.16-.09-.18-.15l-.99-2.56c-.19-.5-.43-.83-.72-1.01-.29-.18-.7-.27-1.23-.27h-1.18v3.76c0,.19-.17,.29-.52,.29h-.1c-.35,0-.52-.1-.52-.29Zm2.87-4.76c.3,0,.59-.07,.84-.22,.26-.15,.46-.34,.61-.59s.22-.51,.22-.8c0-.51-.16-.9-.47-1.15s-.74-.38-1.29-.38h-1.63v3.14h1.72Z"/><path class="e" d="M65.25,11.16c-.06-.06-.09-.16-.09-.3V2.5c0-.14,.03-.24,.09-.3,.06-.06,.16-.09,.3-.09h4.56c.1,0,.16,.03,.2,.09s.06,.16,.06,.3v.21c0,.14-.02,.24-.06,.3-.04,.06-.11,.09-.2,.09h-3.8v2.98h3.41c.1,0,.16,.03,.2,.09,.04,.06,.06,.16,.06,.3v.21c0,.14-.02,.24-.06,.3-.04,.06-.11,.09-.2,.09h-3.41v3.19h3.82c.1,0,.16,.03,.2,.09s.06,.16,.06,.3v.21c0,.14-.02,.24-.06,.3s-.11,.09-.2,.09h-4.57c-.14,0-.24-.03-.3-.09Z"/><path class="e" d="M77.61,11.16c-.06-.06-.09-.16-.09-.3V2.5c0-.14,.03-.24,.09-.3,.06-.06,.16-.09,.3-.09h4.56c.1,0,.16,.03,.2,.09s.06,.16,.06,.3v.21c0,.14-.02,.24-.06,.3-.04,.06-.11,.09-.2,.09h-3.8v2.98h3.41c.1,0,.16,.03,.2,.09,.04,.06,.06,.16,.06,.3v.21c0,.14-.02,.24-.06,.3-.04,.06-.11,.09-.2,.09h-3.41v3.19h3.82c.1,0,.16,.03,.2,.09s.06,.16,.06,.3v.21c0,.14-.02,.24-.06,.3s-.11,.09-.2,.09h-4.57c-.14,0-.24-.03-.3-.09Z"/><path class="e" d="M84.82,11.23c-.09-.03-.14-.09-.14-.17,0-.06,.03-.14,.1-.24l2.93-4.34-2.61-3.95c-.07-.1-.1-.17-.1-.24,0-.15,.2-.22,.6-.22h.18c.15,0,.27,.01,.35,.04,.09,.03,.16,.08,.21,.16l2.09,3.15,2.16-3.16c.08-.12,.27-.18,.56-.18h.08c.22,0,.37,.02,.46,.05,.09,.04,.14,.09,.14,.17,0,.06-.03,.14-.1,.24l-2.61,3.88,2.94,4.4c.07,.1,.1,.17,.1,.24,0,.15-.2,.22-.6,.22h-.21c-.15,0-.27-.01-.35-.04-.09-.03-.16-.08-.21-.16l-2.4-3.59-2.43,3.61c-.08,.12-.27,.18-.56,.18h-.1c-.22,0-.37-.02-.46-.05Z"/><path class="e" d="M95.22,10.2c-.68-.75-1.03-1.93-1.03-3.52,0-3.1,1.41-4.65,4.23-4.65,.43,0,.84,.05,1.23,.14,.4,.09,.71,.2,.95,.33,.21,.12,.31,.24,.31,.34,0,.12-.05,.28-.16,.47-.11,.19-.2,.29-.28,.29-.03,0-.14-.05-.33-.16-.2-.11-.44-.2-.72-.29s-.61-.12-.97-.12c-1.05,0-1.83,.29-2.33,.88s-.74,1.52-.74,2.8,.25,2.18,.74,2.76c.49,.59,1.25,.88,2.28,.88,.43,0,.79-.05,1.1-.15,.3-.1,.61-.23,.9-.39,.12-.08,.2-.12,.25-.12,.08,0,.17,.1,.29,.29,.11,.19,.17,.33,.17,.42,0,.13-.14,.27-.42,.43-.26,.15-.59,.27-.99,.37s-.83,.14-1.29,.14c-1.44,0-2.5-.38-3.18-1.13Z"/><path class="e" d="M103.86,10.99V2.37c0-.19,.17-.29,.52-.29h.1c.35,0,.52,.1,.52,.29v3.7h4.73V2.37c0-.19,.17-.29,.52-.29h.1c.35,0,.52,.1,.52,.29V10.99c0,.19-.17,.29-.52,.29h-.1c-.35,0-.52-.1-.52-.29v-3.93h-4.73v3.93c0,.19-.17,.29-.52,.29h-.1c-.35,0-.52-.1-.52-.29Z"/><path class="e" d="M113.36,11.06s.01-.1,.04-.18l3.1-8.58c.05-.14,.23-.21,.52-.21h.38c.31,0,.49,.07,.52,.21l3.1,8.6c.03,.06,.04,.12,.04,.17,0,.15-.19,.22-.56,.22h-.1c-.3,0-.48-.07-.52-.21l-.77-2.14h-3.84l-.74,2.14c-.04,.14-.22,.21-.52,.21h-.07c-.37,0-.56-.07-.56-.22Zm5.38-3.12l-1.37-3.89c-.04-.14-.1-.39-.16-.76h-.03c-.07,.35-.13,.6-.2,.76l-1.37,3.89h3.12Z"/><path class="e" d="M123.43,10.99V2.37c0-.19,.17-.29,.52-.29h.27c.14,0,.25,.02,.33,.05,.08,.04,.15,.1,.22,.2l4.1,6.19c.15,.22,.29,.48,.43,.78h.05c-.02-.21-.03-.51-.03-.9V2.37c0-.19,.17-.29,.52-.29h.09c.35,0,.52,.1,.52,.29V10.99c0,.19-.17,.29-.52,.29h-.26c-.23,0-.38-.06-.46-.18l-4.21-6.35c-.15-.22-.29-.48-.43-.78h-.05c.02,.21,.03,.51,.03,.9v6.13c0,.19-.17,.29-.52,.29h-.09c-.35,0-.52-.1-.52-.29Z"/><path class="e" d="M140.3,6.63c.06,.06,.09,.16,.09,.3v3.46c0,.34-.27,.58-.82,.72-.54,.14-1.24,.22-2.1,.22-1.32,0-2.32-.38-3-1.14-.69-.76-1.03-1.9-1.03-3.44,0-3.15,1.41-4.73,4.23-4.73,.41,0,.81,.04,1.2,.12,.39,.08,.7,.19,.94,.32,.24,.13,.36,.25,.36,.37,0,.12-.05,.28-.16,.47-.11,.19-.2,.29-.28,.29-.03,0-.14-.05-.33-.16-.2-.11-.44-.2-.72-.29s-.61-.12-.97-.12c-1.11,0-1.89,.3-2.36,.91-.47,.61-.71,1.51-.71,2.7,0,1.13,.22,2.03,.65,2.7,.44,.67,1.19,1,2.27,1,.32,0,.64-.01,.95-.05,.31-.03,.56-.07,.74-.12v-2.64h-1.53c-.09,0-.15-.03-.2-.09s-.07-.16-.07-.3v-.21c0-.14,.02-.24,.07-.3s.11-.09,.2-.09h2.29c.14,0,.24,.03,.3,.09Z"/><path class="e" d="M143.89,11.16c-.06-.06-.09-.16-.09-.3V2.5c0-.14,.03-.24,.09-.3,.06-.06,.16-.09,.3-.09h4.56c.1,0,.16,.03,.2,.09s.06,.16,.06,.3v.21c0,.14-.02,.24-.06,.3-.04,.06-.11,.09-.2,.09h-3.8v2.98h3.41c.1,0,.16,.03,.2,.09,.04,.06,.06,.16,.06,.3v.21c0,.14-.02,.24-.06,.3-.04,.06-.11,.09-.2,.09h-3.41v3.19h3.82c.1,0,.16,.03,.2,.09s.06,.16,.06,.3v.21c0,.14-.02,.24-.06,.3s-.11,.09-.2,.09h-4.57c-.14,0-.24-.03-.3-.09Z"/></g><g><g><path class="e" d="M24.65,1.2h2.86l-.38-1.2h-2.86l.38,1.2Zm2.45-.58c0,.06-.06,.1-.13,.1s-.13-.05-.13-.1,.06-.1,.13-.1,.13,.05,.13,.1Zm-2.21,0c0,.06-.06,.1-.13,.1s-.13-.05-.13-.1,.06-.1,.13-.1,.13,.05,.13,.1Z"/><path class="e" d="M24.27,11.35h2.86l.38-1.2h-2.86l-.38,1.2Zm2.7-.52c-.07,0-.13-.05-.13-.1s.06-.1,.13-.1,.13,.05,.13,.1-.06,.1-.13,.1Zm-2.21,0c-.07,0-.13-.05-.13-.1s.06-.1,.13-.1,.13,.05,.13,.1-.06,.1-.13,.1Z"/><path class="e" d="M27.59,9.88l.6-1.9v-.92s-.05,.02-.08,.02c-.07,0-.13-.05-.13-.1s.06-.1,.13-.1c.03,0,.05,0,.08,.02v-.65h-2.31l-1.15,3.64h2.86Zm-1.82-2.91c0-.06,.06-.1,.13-.1s.13,.05,.13,.1-.06,.1-.13,.1-.13-.05-.13-.1Zm-.62,2.1c0-.06,.06-.1,.13-.1s.13,.05,.13,.1-.06,.1-.13,.1-.13-.05-.13-.1Zm2.21,0c0-.06,.06-.1,.13-.1s.13,.05,.13,.1-.06,.1-.13,.1-.13-.05-.13-.1Z"/><path class="e" d="M28.19,5.11v-.65s-.05,.02-.08,.02c-.07,0-.13-.05-.13-.1s.06-.1,.13-.1c.03,0,.05,0,.08,.02v-.92l-.6-1.9h-2.86l1.15,3.64h2.31Zm-3.05-2.84c0-.06,.06-.1,.13-.1s.13,.05,.13,.1-.06,.1-.13,.1-.13-.05-.13-.1Zm2.21,0c0-.06,.06-.1,.13-.1s.13,.05,.13,.1-.06,.1-.13,.1-.13-.05-.13-.1Zm-1.59,2.1c0-.06,.06-.1,.13-.1s.13,.05,.13,.1-.06,.1-.13,.1-.13-.05-.13-.1Z"/><path class="e" d="M24.27,4.29s.06,.05,.06,.08-.02,.07-.06,.08v.65h.55l-.55-1.74v.92Z"/><path class="e" d="M24.27,6.24v.65s.06,.05,.06,.08-.02,.07-.06,.08v.92l.55-1.74h-.55Z"/><path class="e" d="M28.19,4.29s.06,.05,.06,.08-.02,.07-.06,.08v.65h.55l-.55-1.74v.92Z"/><path class="e" d="M28.19,6.24v.65s.06,.05,.06,.08-.02,.07-.06,.08v.92l.55-1.74h-.55Z"/><path class="e" d="M35.68,4.29s.06,.05,.06,.08-.02,.07-.06,.08v.65h.55l-.55-1.74v.92Z"/><path class="e" d="M35.68,6.24v.65s.06,.05,.06,.08-.02,.07-.06,.08v.92l.55-1.74h-.55Z"/><path class="e" d="M21.25,4.29s.06,.05,.06,.08-.02,.07-.06,.08v.65h.55l-.55-1.74v.92Z"/><path class="e" d="M21.25,6.24v.65s.06,.05,.06,.08-.02,.07-.06,.08v.92l.55-1.74h-.55Z"/><path class="e" d="M14.31,4.29s.06,.05,.06,.08-.02,.07-.06,.08v.65h.55l-.55-1.74v.92Z"/><path class="e" d="M14.31,6.24v.65s.06,.05,.06,.08-.02,.07-.06,.08v.92l.55-1.74h-.55Z"/><path class="e" d="M7.37,4.29s.06,.05,.06,.08-.02,.07-.06,.08v.65h.55l-.55-1.74v.92Z"/><path class="e" d="M7.37,6.24v.65s.06,.05,.06,.08-.02,.07-.06,.08v.92l.55-1.74h-.55Z"/></g><g><path class="e" d="M32.14,1.2h2.86l-.38-1.2h-2.86l.38,1.2Zm2.45-.58c0,.06-.06,.1-.13,.1s-.13-.05-.13-.1,.06-.1,.13-.1,.13,.05,.13,.1Zm-2.21,0c0,.06-.06,.1-.13,.1s-.13-.05-.13-.1,.06-.1,.13-.1,.13,.05,.13,.1Z"/><path class="e" d="M31.76,11.35h2.86l.38-1.2h-2.86l-.38,1.2Zm2.7-.52c-.07,0-.13-.05-.13-.1s.06-.1,.13-.1,.13,.05,.13,.1-.06,.1-.13,.1Zm-2.21,0c-.07,0-.13-.05-.13-.1s.06-.1,.13-.1,.13,.05,.13,.1-.06,.1-.13,.1Z"/><path class="e" d="M35.08,9.88l.6-1.9v-.92s-.05,.02-.08,.02c-.07,0-.13-.05-.13-.1s.06-.1,.13-.1c.03,0,.05,0,.08,.02v-.65h-2.31l-1.15,3.64h2.86Zm-1.82-2.91c0-.06,.06-.1,.13-.1s.13,.05,.13,.1-.06,.1-.13,.1-.13-.05-.13-.1Zm-.62,2.1c0-.06,.06-.1,.13-.1s.13,.05,.13,.1-.06,.1-.13,.1-.13-.05-.13-.1Zm2.21,0c0-.06,.06-.1,.13-.1s.13,.05,.13,.1-.06,.1-.13,.1-.13-.05-.13-.1Z"/><path class="e" d="M35.68,5.11v-.65s-.05,.02-.08,.02c-.07,0-.13-.05-.13-.1s.06-.1,.13-.1c.03,0,.05,0,.08,.02v-.92l-.6-1.9h-2.86l1.15,3.64h2.31Zm-3.05-2.84c0-.06,.06-.1,.13-.1s.13,.05,.13,.1-.06,.1-.13,.1-.13-.05-.13-.1Zm2.21,0c0-.06,.06-.1,.13-.1s.13,.05,.13,.1-.06,.1-.13,.1-.13-.05-.13-.1Zm-1.59,2.1c0-.06,.06-.1,.13-.1s.13,.05,.13,.1-.06,.1-.13,.1-.13-.05-.13-.1Z"/><path class="e" d="M31.76,4.29s.06,.05,.06,.08-.02,.07-.06,.08v.65h.55l-.55-1.74v.92Z"/><path class="e" d="M31.76,6.24v.65s.06,.05,.06,.08-.02,.07-.06,.08v.92l.55-1.74h-.55Z"/><path class="e" d="M3.52,4.29s.06,.05,.06,.08-.02,.07-.06,.08v.65h.55l-.55-1.74v.92Z"/><path class="e" d="M3.52,6.24v.65s.06,.05,.06,.08-.02,.07-.06,.08v.92l.55-1.74h-.55Z"/></g><g><path class="e" d="M17.71,1.2h2.86l-.38-1.2h-2.86l.38,1.2Zm2.45-.58c0,.06-.06,.1-.13,.1s-.13-.05-.13-.1,.06-.1,.13-.1,.13,.05,.13,.1Zm-2.21,0c0,.06-.06,.1-.13,.1s-.13-.05-.13-.1,.06-.1,.13-.1,.13,.05,.13,.1Z"/><path class="e" d="M17.33,11.35h2.86l.38-1.2h-2.86l-.38,1.2Zm2.7-.52c-.07,0-.13-.05-.13-.1s.06-.1,.13-.1,.13,.05,.13,.1-.06,.1-.13,.1Zm-2.21,0c-.07,0-.13-.05-.13-.1s.06-.1,.13-.1,.13,.05,.13,.1-.06,.1-.13,.1Z"/><path class="e" d="M20.65,9.88l.6-1.9v-.92s-.05,.02-.08,.02c-.07,0-.13-.05-.13-.1s.06-.1,.13-.1c.03,0,.05,0,.08,.02v-.65h-2.31l-1.15,3.64h2.86Zm-1.82-2.91c0-.06,.06-.1,.13-.1s.13,.05,.13,.1-.06,.1-.13,.1-.13-.05-.13-.1Zm-.62,2.1c0-.06,.06-.1,.13-.1s.13,.05,.13,.1-.06,.1-.13,.1-.13-.05-.13-.1Zm2.21,0c0-.06,.06-.1,.13-.1s.13,.05,.13,.1-.06,.1-.13,.1-.13-.05-.13-.1Z"/><path class="e" d="M21.25,5.11v-.65s-.05,.02-.08,.02c-.07,0-.13-.05-.13-.1s.06-.1,.13-.1c.03,0,.05,0,.08,.02v-.92l-.6-1.9h-2.86l1.15,3.64h2.31Zm-3.05-2.84c0-.06,.06-.1,.13-.1s.13,.05,.13,.1-.06,.1-.13,.1-.13-.05-.13-.1Zm2.21,0c0-.06,.06-.1,.13-.1s.13,.05,.13,.1-.06,.1-.13,.1-.13-.05-.13-.1Zm-1.59,2.1c0-.06,.06-.1,.13-.1s.13,.05,.13,.1-.06,.1-.13,.1-.13-.05-.13-.1Z"/><path class="e" d="M17.33,4.29s.06,.05,.06,.08-.02,.07-.06,.08v.65h.55l-.55-1.74v.92Z"/><path class="e" d="M17.33,6.24v.65s.06,.05,.06,.08-.02,.07-.06,.08v.92l.55-1.74h-.55Z"/></g><g><path class="e" d="M10.77,1.2h2.86l-.38-1.2h-2.86l.38,1.2Zm2.45-.58c0,.06-.06,.1-.13,.1s-.13-.05-.13-.1,.06-.1,.13-.1,.13,.05,.13,.1Zm-2.21,0c0,.06-.06,.1-.13,.1s-.13-.05-.13-.1,.06-.1,.13-.1,.13,.05,.13,.1Z"/><path class="e" d="M10.39,11.35h2.86l.38-1.2h-2.86l-.38,1.2Zm2.7-.52c-.07,0-.13-.05-.13-.1s.06-.1,.13-.1,.13,.05,.13,.1-.06,.1-.13,.1Zm-2.21,0c-.07,0-.13-.05-.13-.1s.06-.1,.13-.1,.13,.05,.13,.1-.06,.1-.13,.1Z"/><path class="e" d="M13.71,9.88l.6-1.9v-.92s-.05,.02-.08,.02c-.07,0-.13-.05-.13-.1s.06-.1,.13-.1c.03,0,.05,0,.08,.02v-.65h-2.31l-1.15,3.64h2.86Zm-1.82-2.91c0-.06,.06-.1,.13-.1s.13,.05,.13,.1-.06,.1-.13,.1-.13-.05-.13-.1Zm-.62,2.1c0-.06,.06-.1,.13-.1s.13,.05,.13,.1-.06,.1-.13,.1-.13-.05-.13-.1Zm2.21,0c0-.06,.06-.1,.13-.1s.13,.05,.13,.1-.06,.1-.13,.1-.13-.05-.13-.1Z"/><path class="e" d="M14.31,5.11v-.65s-.05,.02-.08,.02c-.07,0-.13-.05-.13-.1s.06-.1,.13-.1c.03,0,.05,0,.08,.02v-.92l-.6-1.9h-2.86l1.15,3.64h2.31Zm-3.05-2.84c0-.06,.06-.1,.13-.1s.13,.05,.13,.1-.06,.1-.13,.1-.13-.05-.13-.1Zm2.21,0c0-.06,.06-.1,.13-.1s.13,.05,.13,.1-.06,.1-.13,.1-.13-.05-.13-.1Zm-1.59,2.1c0-.06,.06-.1,.13-.1s.13,.05,.13,.1-.06,.1-.13,.1-.13-.05-.13-.1Z"/><path class="e" d="M10.39,4.29s.06,.05,.06,.08-.02,.07-.06,.08v.65h.55l-.55-1.74v.92Z"/><path class="e" d="M10.39,6.24v.65s.06,.05,.06,.08-.02,.07-.06,.08v.92l.55-1.74h-.55Z"/></g><g><path class="e" d="M3.83,1.2h2.86l-.38-1.2H3.45l.38,1.2Zm2.45-.58c0,.06-.06,.1-.13,.1s-.13-.05-.13-.1,.06-.1,.13-.1,.13,.05,.13,.1Zm-2.21,0c0,.06-.06,.1-.13,.1s-.13-.05-.13-.1,.06-.1,.13-.1,.13,.05,.13,.1Z"/><path class="e" d="M3.45,11.35h2.86l.38-1.2H3.83l-.38,1.2Zm2.7-.52c-.07,0-.13-.05-.13-.1s.06-.1,.13-.1,.13,.05,.13,.1-.06,.1-.13,.1Zm-2.21,0c-.07,0-.13-.05-.13-.1s.06-.1,.13-.1,.13,.05,.13,.1-.06,.1-.13,.1Z"/><path class="e" d="M6.77,9.88l.6-1.9v-.92s-.05,.02-.08,.02c-.07,0-.13-.05-.13-.1s.06-.1,.13-.1c.03,0,.05,0,.08,.02v-.65h-2.31l-1.15,3.64h2.86Zm-1.82-2.91c0-.06,.06-.1,.13-.1s.13,.05,.13,.1-.06,.1-.13,.1-.13-.05-.13-.1Zm-.62,2.1c0-.06,.06-.1,.13-.1s.13,.05,.13,.1-.06,.1-.13,.1-.13-.05-.13-.1Zm2.21,0c0-.06,.06-.1,.13-.1s.13,.05,.13,.1-.06,.1-.13,.1-.13-.05-.13-.1Z"/><path class="e" d="M7.37,5.11v-.65s-.05,.02-.08,.02c-.07,0-.13-.05-.13-.1s.06-.1,.13-.1c.03,0,.05,0,.08,.02v-.92l-.6-1.9H3.91l1.15,3.64h2.31Zm-3.05-2.84c0-.06,.06-.1,.13-.1s.13,.05,.13,.1-.06,.1-.13,.1-.13-.05-.13-.1Zm2.21,0c0-.06,.06-.1,.13-.1s.13,.05,.13,.1-.06,.1-.13,.1-.13-.05-.13-.1Zm-1.59,2.1c0-.06,.06-.1,.13-.1s.13,.05,.13,.1-.06,.1-.13,.1-.13-.05-.13-.1Z"/></g></g></g></g></g></svg>