<?xml version="1.0" encoding="UTF-8"?><svg xmlns="http://www.w3.org/2000/svg" width="280" height="80" viewBox="0 0 280 80"><defs><style>.d{fill:#fff;}.e{fill:none;stroke:#fff;stroke-miterlimit:10;stroke-width:2px;}.f{fill:#0075cc;}</style></defs><g id="a"/><g id="b"><g id="c"><g><rect class="f" y="0" width="280" height="80" rx="40" ry="40"/><g><polyline class="e" points="219 41.25 219 48.25 249 48.25 249 41.25"/><line class="e" x1="234" y1="42.25" x2="234" y2="30.25"/><polyline class="e" points="227.25 34.83 234 41.58 240.75 34.83"/></g><g><path class="d" d="M34.8,42.05v4.01h-2.58v-11.77h4.45c1.53,0,2.68,.31,3.48,.93,.79,.62,1.19,1.53,1.19,2.73s-.44,2.25-1.31,2.99-2.02,1.11-3.42,1.11h-1.8Zm-.02-5.91v4.05h.69c1.29,0,2.15-.18,2.57-.54,.42-.36,.63-.9,.63-1.64,0-.61-.2-1.07-.61-1.39-.4-.32-1.2-.48-2.39-.48h-.88Z"/><path class="d" d="M43.21,46.06v-11.77h3.68c1.67,0,2.97,.21,3.9,.64,.93,.43,1.67,1.08,2.21,1.97,.54,.89,.81,1.98,.81,3.29,0,1.18-.28,2.24-.84,3.18-.56,.94-1.31,1.62-2.25,2.05-.94,.43-2.2,.64-3.8,.64h-3.71Zm2.58-9.92v8.07h1.27c2.7,0,4.05-1.35,4.05-4.05s-1.35-4.02-4.05-4.02h-1.27Z"/><path class="d" d="M64.08,36.24h-5.67v2.62h5.14v1.95h-5.12v5.26h-2.58v-11.77h8.23v1.95Z"/><path class="d" d="M78.9,34.56c-.03,.91-.1,1.69-.21,2.35-.22,1.23-.57,2.37-1.04,3.4-.47,1.03-1.13,1.99-1.96,2.87-.83,.88-1.89,1.65-3.17,2.31s-2.76,1.17-4.44,1.55l-.78-2.03c2.73-.53,4.87-1.56,6.43-3.09-1.26-.62-2.69-1.22-4.29-1.81l1.09-1.79c1.39,.45,2.91,1.08,4.57,1.87,.59-.99,1.03-2.23,1.3-3.7h-5.19c-1.31,2.17-3.07,3.91-5.29,5.22l-1.25-1.63c1.36-.84,2.53-1.9,3.51-3.2,.98-1.29,1.68-2.64,2.09-4.05l2.4,.3c-.19,.55-.36,1.03-.52,1.43h4.55c-.34-.84-.66-1.55-.96-2.12l1.05-.38c.48,.93,.84,1.67,1.06,2.24l-.74,.26h1.78Zm1.28-.35l-1.12,.41c-.34-.85-.69-1.63-1.04-2.32l1.07-.4c.43,.83,.8,1.6,1.09,2.3Z"/><path class="d" d="M94.97,36.12c0,3.77-.82,6.43-2.46,8-1.64,1.57-4.35,2.52-8.12,2.87l-.51-2.06c1.98-.24,3.44-.53,4.37-.86,.93-.33,1.71-.78,2.32-1.35,.61-.57,1.03-1.08,1.24-1.54,.21-.46,.38-1.08,.5-1.87s.19-1.61,.19-2.46h-8.52v4.25h-2.32v-6.23h5.36v-1.98h2.4v1.98h5.54v1.26Z"/><path class="d" d="M105.47,36.81l-1.43,1.94c-.77-.49-1.45-.91-2.05-1.25-.6-.34-1.94-1.04-4.04-2.09l1.23-1.79c1.64,.65,3.73,1.72,6.29,3.2Zm6.34,1.91c-1.32,2.44-3.05,4.3-5.18,5.59-2.13,1.28-4.83,2.08-8.09,2.4l-.53-2.19c1.78-.16,3.27-.43,4.45-.81,1.19-.38,2.23-.88,3.12-1.5,.89-.62,1.65-1.24,2.28-1.88,.63-.64,1.32-1.59,2.07-2.86l1.88,1.25Z"/><path class="d" d="M126.59,46.43h-12.66v-11.91h12.66v11.91Zm-2.43-2v-7.95h-7.86v7.95h7.86Z"/><path class="d" d="M143.51,41.19h-14.35v-2.08h14.35v2.08Z"/><path class="d" d="M159.5,40.96l-1.48,1.85c-2.22-1.5-4.52-2.67-6.9-3.48v7.62h-2.46v-14.09h2.48v4.17c2.64,.85,5.42,2.16,8.35,3.94Zm-3.31-4.55l-1.14,.44c-.43-1.06-.78-1.86-1.07-2.41l1.1-.43c.44,.84,.81,1.64,1.11,2.4Zm2.37-.51l-1.12,.41c-.36-.91-.72-1.71-1.07-2.4l1.07-.4c.43,.82,.8,1.61,1.12,2.38Z"/></g></g></g></g></svg>