<?xml version="1.0" encoding="UTF-8"?><svg xmlns="http://www.w3.org/2000/svg" width="16" height="16" viewBox="0 0 16 16"><defs><style>.e{fill:#fff;}</style></defs><g id="a"/><g id="b"><g id="c"><g id="d"><path class="e" d="M8,16c4.42,0,8-3.58,8-8S12.42,0,8,0C3.58,0,0,3.58,0,8s3.58,8,8,8ZM3.32,7.19l2.8-3.02c.21-.22,.49-.34,.77-.34,.25,0,.51,.09,.71,.28,.43,.39,.45,1.06,.06,1.48l-1.17,1.26h6.4c.58,0,1.05,.47,1.05,1.05s-.47,1.05-1.05,1.05H6.33l1.37,1.64c.37,.44,.31,1.1-.13,1.48-.44,.37-1.11,.31-1.48-.13l-2.81-3.36c-.34-.4-.32-1,.03-1.38Z"/></g></g></g></svg>