<?xml version="1.0" encoding="UTF-8"?><svg xmlns="http://www.w3.org/2000/svg" width="40" height="40" viewBox="0 0 40 40"><defs><style>.f{fill:#fff;}.g{fill:#00b900;}</style></defs><g id="a"/><g id="b"><g id="c"><g id="d"><rect class="g" width="40" height="40" rx="8.67" ry="8.67"/><g id="e"><g><path class="f" d="M34.05,18.43c0-6.47-6.48-11.73-14.46-11.73S5.14,11.96,5.14,18.43c0,5.8,5.14,10.66,12.09,11.57,.47,.1,1.11,.31,1.27,.71,.15,.37,.1,.94,.05,1.31,0,0-.17,1.02-.21,1.24-.06,.37-.29,1.43,1.25,.78,1.54-.65,8.32-4.9,11.36-8.39h0c2.09-2.3,3.1-4.63,3.1-7.22"/><g><path class="g" d="M17.28,15.19h-1.26c-.16,0-.28,.13-.28,.28v6.36c0,.16,.13,.28,.28,.28h.98c.16,0,.28-.13,.28-.28v-6.36c0-.16-.12-.28-.27-.28"/><path class="g" d="M23.43,15.19h-.49c-.16,0-.28,.13-.28,.28v3.78l-3.02-3.93s-.01-.02-.02-.03h0l-.02-.02h0l-.02-.02h0l-.02-.02h-.02v-.02h-.04l-.02-.02h-1.15c-.16-.01-.28,.11-.28,.27v6.36c0,.16,.13,.28,.28,.28h.98c.16,0,.28-.13,.28-.28v-3.74l3.02,3.9s.05,.05,.07,.07h.02v.02h.04v.02h.03s.05,.02,.08,.02h1.07c.16,0,.28-.13,.28-.28v-6.24c0-.16-.13-.28-.28-.28"/><path class="g" d="M14.2,20.57h-3.08v-5.1c0-.16-.13-.28-.28-.28h-.98c-.16,0-.28,.13-.28,.28v6.36h0c0,.08,.03,.15,.08,.2h0c.05,.06,.12,.09,.19,.09h4.05c.16,0,.28-.13,.28-.28v-.96c0-.16-.13-.28-.28-.28"/><path class="g" d="M29.23,16.73c.16,.16,.35-.13,.35-.13v-1.13c0-.16-.13-.28-.28-.28h-4.05c-.08,0-.14,.03-.2,.08h0c-.05,.06-.08,.13-.08,.2h0v6.35h0c0,.08,.03,.15,.08,.2h0c.05,.06,.12,.09,.19,.09h4.05c.16,0,.28-.13,.28-.28v-.96s-.2-.28-.35-.3h-2.72v-.77h2.72c.16-.28,.35-.56,.35-.56v-1.01s-.2-.28-.35-.73h-2.72v-.77h2.72Z"/></g></g></g></g></g></g></svg>