<?xml version="1.0" encoding="UTF-8"?><svg xmlns="http://www.w3.org/2000/svg" width="280" height="80" viewBox="0 0 280 80"><defs><style>.d{fill:#fff;}.e{fill:none;stroke:#fff;stroke-miterlimit:10;stroke-width:2px;}.f{fill:#0075cc;}</style></defs><g id="a"/><g id="b"><g id="c"><g><rect class="f" y="0" width="280" height="80" rx="40" ry="40"/><g><polyline class="e" points="219 41.25 219 48.25 249 48.25 249 41.25"/><line class="e" x1="234" y1="42.25" x2="234" y2="30.25"/><polyline class="e" points="227.25 34.83 234 41.58 240.75 34.83"/></g><g><path class="d" d="M40.43,46.06h-8.2v-11.77h8.2v1.95h-5.64v2.52h5.24v1.95h-5.24v3.41h5.64v1.95Z"/><path class="d" d="M52.79,46.06h-3.06l-2.73-4.2-2.78,4.2h-2.8l4.16-5.91-4.07-5.86h3.05l2.66,4.04,2.72-4.04h2.82l-4.1,5.76,4.14,6.02Z"/><path class="d" d="M63.44,45.27c-.99,.45-1.78,.74-2.36,.85-.58,.11-1.15,.17-1.69,.17-1.8,0-3.22-.54-4.26-1.61-1.04-1.07-1.55-2.57-1.55-4.49s.52-3.38,1.57-4.48c1.05-1.1,2.46-1.65,4.25-1.65,1.38,0,2.73,.33,4.04,.99v2.41h-.27c-1.22-1.04-2.38-1.56-3.48-1.56s-1.88,.37-2.48,1.12c-.61,.75-.91,1.81-.91,3.18s.31,2.41,.93,3.14c.62,.74,1.45,1.11,2.48,1.11,.54,0,1.07-.09,1.59-.29,.52-.19,1.15-.61,1.9-1.27h.25v2.38Z"/><path class="d" d="M73.54,46.06h-8.2v-11.77h8.2v1.95h-5.64v2.52h5.24v1.95h-5.24v3.41h5.64v1.95Z"/><path class="d" d="M83.97,46.06h-8.17v-11.77h2.58v9.82h5.59v1.95Z"/><path class="d" d="M98.64,34.56c-.03,.91-.1,1.69-.21,2.35-.22,1.23-.57,2.37-1.04,3.4-.47,1.03-1.13,1.99-1.96,2.87-.83,.88-1.89,1.65-3.17,2.31s-2.76,1.17-4.44,1.55l-.78-2.03c2.73-.53,4.87-1.56,6.43-3.09-1.26-.62-2.69-1.22-4.29-1.81l1.09-1.79c1.39,.45,2.91,1.08,4.57,1.87,.59-.99,1.03-2.23,1.3-3.7h-5.19c-1.31,2.17-3.07,3.91-5.29,5.22l-1.25-1.63c1.36-.84,2.53-1.9,3.51-3.2,.98-1.29,1.68-2.64,2.09-4.05l2.4,.3c-.19,.55-.36,1.03-.52,1.43h4.55c-.34-.84-.66-1.55-.96-2.12l1.05-.38c.48,.93,.84,1.67,1.06,2.24l-.74,.26h1.78Zm1.28-.35l-1.12,.41c-.34-.85-.69-1.63-1.04-2.32l1.07-.4c.43,.83,.8,1.6,1.09,2.3Z"/><path class="d" d="M114.72,36.12c0,3.77-.82,6.43-2.46,8-1.64,1.57-4.35,2.52-8.12,2.87l-.51-2.06c1.98-.24,3.44-.53,4.37-.86,.93-.33,1.71-.78,2.32-1.35,.61-.57,1.03-1.08,1.24-1.54,.21-.46,.38-1.08,.5-1.87s.19-1.61,.19-2.46h-8.52v4.25h-2.32v-6.23h5.36v-1.98h2.4v1.98h5.54v1.26Z"/><path class="d" d="M125.22,36.81l-1.43,1.94c-.77-.49-1.45-.91-2.05-1.25-.6-.34-1.94-1.04-4.04-2.09l1.23-1.79c1.64,.65,3.73,1.72,6.29,3.2Zm6.34,1.91c-1.32,2.44-3.05,4.3-5.18,5.59-2.13,1.28-4.83,2.08-8.09,2.4l-.53-2.19c1.78-.16,3.27-.43,4.45-.81,1.19-.38,2.23-.88,3.12-1.5,.89-.62,1.65-1.24,2.28-1.88,.63-.64,1.32-1.59,2.07-2.86l1.88,1.25Z"/><path class="d" d="M146.33,46.43h-12.66v-11.91h12.66v11.91Zm-2.43-2v-7.95h-7.86v7.95h7.86Z"/><path class="d" d="M163.25,41.19h-14.35v-2.08h14.35v2.08Z"/><path class="d" d="M179.25,40.96l-1.48,1.85c-2.22-1.5-4.52-2.67-6.9-3.48v7.62h-2.46v-14.09h2.48v4.17c2.64,.85,5.42,2.16,8.35,3.94Zm-3.31-4.55l-1.14,.44c-.43-1.06-.78-1.86-1.07-2.41l1.1-.43c.44,.84,.81,1.64,1.11,2.4Zm2.37-.51l-1.12,.41c-.36-.91-.72-1.71-1.07-2.4l1.07-.4c.43,.82,.8,1.61,1.12,2.38Z"/></g></g></g></g></svg>