<?xml version="1.0" encoding="UTF-8"?><svg xmlns="http://www.w3.org/2000/svg" width="40" height="40" viewBox="0 0 40 40"><defs><style>.d{fill:#fff;}.e{fill:#1da1f2;}</style></defs><g id="a"/><g id="b"><g id="c"><g><rect class="e" width="40" height="40" rx="8.67" ry="8.67"/><path class="d" d="M16.53,29.46c8.95,0,13.85-7.42,13.85-13.85,0-.21,0-.42-.01-.63,.95-.69,1.78-1.54,2.43-2.52-.87,.39-1.81,.65-2.79,.77,1-.6,1.78-1.56,2.14-2.69-.94,.56-1.98,.96-3.09,1.18-.89-.95-2.15-1.54-3.55-1.54-2.69,0-4.87,2.18-4.87,4.87,0,.38,.04,.75,.13,1.11-4.05-.2-7.63-2.14-10.03-5.08-.42,.72-.66,1.55-.66,2.45,0,1.69,.86,3.18,2.17,4.05-.8-.02-1.55-.24-2.2-.61,0,.02,0,.04,0,.06,0,2.36,1.68,4.33,3.9,4.77-.41,.11-.84,.17-1.28,.17-.31,0-.62-.03-.92-.09,.62,1.93,2.42,3.34,4.55,3.38-1.67,1.31-3.76,2.08-6.04,2.08-.39,0-.78-.02-1.16-.07,2.15,1.38,4.71,2.19,7.46,2.19"/></g></g></g></svg>