<?xml version="1.0" encoding="UTF-8"?><svg xmlns="http://www.w3.org/2000/svg" width="13" height="13" viewBox="0 0 13 13"><defs><style>.e{fill:#fff;}</style></defs><g id="a"/><g id="b"><g id="c"><g id="d"><g><path class="e" d="M10.98,0H2.02C.9,0,0,.9,0,2.02H0L5.56,7.1c.27,.24,.6,.36,.94,.36,.34,0,.67-.12,.94-.36L13,2.03h0c0-1.12-.9-2.03-2.02-2.03Z"/><path class="e" d="M6.5,8.98c-.7,0-1.4-.25-1.96-.76L0,4.08v6.91c0,1.12,.9,2.02,2.02,2.02H10.98c1.12,0,2.02-.9,2.02-2.02V4.08l-4.54,4.14c-.55,.5-1.26,.76-1.96,.76Z"/></g></g></g></g></svg>