<?xml version="1.0" encoding="UTF-8"?><svg xmlns="http://www.w3.org/2000/svg" width="12.42" height="26.17" viewBox="0 0 12.42 26.17"><defs><style>.d{fill:#0075cc;}</style></defs><g id="a"/><g id="b"><g id="c"><g><polygon class="d" points="2.05 5.23 2.37 6.05 2.94 6.81 3.18 7.65 3.64 8.44 4.05 9.24 4.49 10.03 4.74 10.87 5.23 11.65 5.53 12.47 5.97 13.26 6.31 14.08 6.67 14.93 7.07 15.77 7.58 16.58 7.92 17.44 8.38 18.27 8.73 19.12 9.21 19.94 9.64 20.77 10.06 21.61 10.46 22.45 10.78 23.31 11.2 24.15 11.56 25 11.92 25.8 11.58 25.02 11.38 24.17 11.23 23.32 10.95 22.48 10.77 21.62 10.79 20.75 10.42 19.92 10.43 19.07 10.13 18.27 10.08 17.44 9.9 16.62 9.6 15.81 9.46 14.99 9.31 14.17 9.14 13.31 8.83 12.46 8.6 11.61 8.51 10.74 8.22 9.89 8.23 9.01 7.91 8.17 7.84 7.3 7.59 6.45 7.39 5.59 7.13 4.74 7.08 3.87 6.97 3 6.62 2.16 6.4 1.3 6.37 .43 5.18 .23 3.96 .46 2.75 .73 1.51 .93 .43 1.26 .69 2.05 1.12 2.82 1.48 3.61 1.78 4.42 2.05 5.23"/><path class="d" d="M3.46,5.7l.03,.12-.1-.18,.48,.8,.07,.12s.03,.06,.03,.09l.13,.86-.06-.13,.27,.61,.07,.15,.05,.1,.03,.08,.12,.31,.12,.31,.05,.14,.06,.15,.26,.61,.03,.07,.16,.85-.04-.08,.42,.8,.02,.04h0l.22,.85-.02-.03c.12,.27,.27,.53,.4,.8v.02h.01c.16,.43,.29,.85,.48,1.27,.09,.21,.17,.41,.28,.62l.3,.62v-.02l.51,.81v.02h.01l.37,.86v-.02l.47,.82h0v.02l.39,.84v-.03l.49,.81,.46,.84,.46,.83,.41,.85v.02l.32,.86v-.03l.29,.62,.08,.15,.08,.17,.14,.31,.56,1.24-.98,.22-.35-.78v-.04h-.02l-.21-.86-.16-.87v.05c-.08-.28-.19-.56-.31-.84v-.04l-.25-.85v-.08l-.03-.87,.03,.16-.4-.82s-.03-.08-.03-.12v-.05c-.02-.28,0-.56,.02-.84l.02,.14-.27-.81v-.02s-.02-.05-.02-.08l-.03-.83v.05l-.15-.82v.05l-.25-.81v-.03l-.02-.03c-.1-.85-.21-1.67-.35-2.51v.04c-.08-.28-.19-.56-.29-.84l-.24-.88v-.04l-.1-.87v.06l-.26-.85h0s-.01-.06,0-.08c.01-.29,0-.59,.04-.88l.02,.09-.22-.86v-.04h-.01c.02-.3,.02-.59-.01-.88v.03l-.2-.64-.05-.16-.05-.17-.09-.32-.09-.32-.05-.15-.06-.16-.22-.63v-.05c-.04-.29-.07-.58-.08-.87l-.1-.85v.05l-.32-.84h0v-.03l-.21-.86h0v-.04l-.02-.88,.27,.24-1.19-.21h.16c-.2,.03-.41,.07-.61,.11l-.6,.12c-.4,.09-.8,.18-1.2,.3h-.03c-.4,.1-.8,.21-1.21,.31l.09-.02c-.17,.07-.34,.14-.52,.2l-.54,.17,.34-.48c.09,.26,.16,.53,.27,.79l-.03-.06,.54,.74,.25,.42,.12,.19c.04,.08,.07,.1,.13,.22l.84,1.58,.35,.66Zm-1.27,1.06l-.5-1.48-.27-.81-.3-.79-.35-.76-.44-.77v-.03h-.02L.01,1.33c-.05-.14,.04-.28,.22-.34h.03c.35-.13,.71-.24,1.09-.33l.07-.02,1.26-.15h-.02c.41-.06,.82-.15,1.22-.24L5.1,0s.09-.01,.14,0h.01l1.2,.18c.16,.02,.27,.12,.27,.23h0l.04,.88v-.04l.22,.85v-.03l.34,.84s.01,.03,.01,.05h0l.12,.89c.03,.29,.02,.58,.03,.87v-.05l.16,.64,.04,.16,.04,.17,.07,.32,.07,.32,.03,.15,.04,.16,.17,.64h0v.03c.02,.29,.06,.58,.13,.87v-.05l.41,.82s.01,.03,.01,.04v.05c.03,.29,.01,.59,.02,.88v-.08l.29,.84s.01,.04,.01,.06l.09,.87v-.04l.22,.83c.1,.28,.2,.56,.31,.84h0v.04c.22,.82,.41,1.67,.59,2.5l-.02-.06,.33,.8v.05l.22,.81v.05l.09,.83-.02-.1,.32,.8s.02,.08,.02,.12v.02c0,.28,.02,.56,0,.84l-.03-.16,.33,.84v.03s.03,.09,.03,.13l-.06,.87v-.08l.12,.86v-.04c.06,.28,.15,.57,.24,.85h0v.05l.13,.84,.18,.85-.02-.05,.32,.78h0c.08,.2-.07,.4-.34,.46s-.54-.05-.62-.24l-.52-1.26-.13-.32-.06-.14-.07-.16-.31-.62v-.02h-.01l-.33-.87v.02l-.4-.83-.44-.83-.44-.82-.48-.82v-.03h-.02l-.37-.86v.03l-.45-.82v-.03h-.02l-.36-.86,.03,.05c-.17-.27-.35-.54-.51-.81l-.02-.03h0l-.28-.63-.14-.33-.12-.32-.49-1.27,.02,.03c-.14-.26-.27-.53-.42-.79v-.03h-.02l-.32-.83,.03,.06-.51-.77s-.02-.04-.03-.06h0l-.27-.85,.03,.06-.34-.59-.17-.31-.16-.3-.16-.3-.07-.13-.09-.15-.36-.58s-.02-.04-.03-.06v-.02l-.26-.84,.06,.13-.21-.26Z"/></g></g></g></svg>