<?xml version="1.0" encoding="UTF-8"?><svg xmlns="http://www.w3.org/2000/svg" width="196.16" height="148.86" xmlns:xlink="http://www.w3.org/1999/xlink" viewBox="0 0 196.16 148.86"><defs><style>.f{stroke-width:1.54px;}.f,.g,.h,.i,.j,.k,.l,.m,.n,.o,.p{fill:#fff;}.f,.h,.i,.j,.q,.k,.l,.r,.s,.m,.n,.t,.o,.u,.v,.w,.x,.y,.p{stroke-linecap:round;stroke-linejoin:round;}.f,.h,.i,.j,.q,.k,.l,.r,.s,.m,.n,.o,.u,.w,.x,.y,.p{stroke:#231815;}.h{stroke-width:1.29px;}.i,.x{stroke-width:1.54px;}.a`{isolation:isolate;}.j{stroke-width:1.31px;}.q,.s,.n,.w{stroke-width:1.56px;}.q,.aa,.x{fill:#f9be00;}.k{stroke-width:1.3px;}.l,.u{stroke-width:1.44px;}.ab{clip-path:url(#e);}.r,.ac,.t,.u,.v,.w,.y{fill:none;}.r,.p{stroke-width:1.16px;}.s,.ad{fill:#231815;}.ae{clip-path:url(#d);}.m{stroke-width:1.41px;}.t{stroke:#fff;stroke-width:1.08px;}.o{stroke-width:1.28px;}.aa{mix-blend-mode:multiply;}.v{stroke:#f9be00;stroke-width:1.65px;}.y{stroke-width:.98px;}</style><clipPath id="d"><rect class="ac" x="13.36" width="77.37" height="106"/></clipPath><clipPath id="e"><rect class="ac" x="99.35" y=".26" width="86.78" height="106"/></clipPath></defs><g class="a`"><g id="a"/><g id="b"><g id="c"><g><g><g><g><circle class="p" cx="9.74" cy="18.05" r="9.16"/><path class="r" d="M12.25,28.43s-4.84-5.41-5.82-7.29c-.98-1.88-.05-3.12,.97-3.66,1.71-.89,3.57-.34,4.24,.94,.67,1.28,.82,2.4-.12,2.89s-2.03-.35-2.48-1.21-.57-3.18,1.31-4.16c2.05-1.07,3.41,.39,4.04,1.59,.62,1.2,2.69,8.38,2.69,8.38"/><polygon class="p" points="20.69 35.21 17.55 36.84 16.08 34.81 19.86 32.84 20.69 35.21"/><g><path class="g" d="M18.65,23.83c.32,.61-.28,1.55-1.32,2.09l-5.48,2.86c-1.04,.54-2.15,.49-2.47-.12s.28-1.55,1.32-2.09l5.48-2.86c1.04-.54,2.15-.49,2.47,.12Z"/><path class="r" d="M18.65,23.83c.32,.61-.28,1.55-1.32,2.09l-5.48,2.86c-1.04,.54-2.15,.49-2.47-.12s.28-1.55,1.32-2.09l5.48-2.86c1.04-.54,2.15-.49,2.47,.12Z"/></g><g><path class="g" d="M19.8,26.04c.32,.61-.28,1.55-1.32,2.09l-5.48,2.86c-1.04,.54-2.15,.49-2.47-.12s.28-1.55,1.32-2.09l5.48-2.86c1.04-.54,2.15-.49,2.47,.12Z"/><path class="r" d="M19.8,26.04c.32,.61-.28,1.55-1.32,2.09l-5.48,2.86c-1.04,.54-2.15,.49-2.47-.12s.28-1.55,1.32-2.09l5.48-2.86c1.04-.54,2.15-.49,2.47,.12Z"/></g><g><path class="g" d="M20.95,28.24c.32,.61-.28,1.55-1.32,2.09l-5.48,2.86c-1.04,.54-2.15,.49-2.47-.12s.28-1.55,1.32-2.09l5.48-2.86c1.04-.54,2.15-.49,2.47,.12Z"/><path class="r" d="M20.95,28.24c.32,.61-.28,1.55-1.32,2.09l-5.48,2.86c-1.04,.54-2.15,.49-2.47-.12s.28-1.55,1.32-2.09l5.48-2.86c1.04-.54,2.15-.49,2.47,.12Z"/></g><g><path class="g" d="M22.1,30.44c.32,.61-.28,1.55-1.32,2.09l-5.48,2.86c-1.04,.54-2.15,.49-2.47-.12s.28-1.55,1.32-2.09l5.48-2.86c1.04-.54,2.15-.49,2.47,.12Z"/><path class="r" d="M22.1,30.44c.32,.61-.28,1.55-1.32,2.09l-5.48,2.86c-1.04,.54-2.15,.49-2.47-.12s.28-1.55,1.32-2.09l5.48-2.86c1.04-.54,2.15-.49,2.47,.12Z"/></g></g><circle class="aa" cx="10.82" cy="18.51" r="7.21" transform="translate(-2.12 1.42) rotate(-6.83)"/></g><g class="ae"><g><path class="q" d="M84.8,66.84c-.37-.88-1.09-1.36-1.84-1.82-.82-.51-2.16-1.04-3.74-1.55-1.37-.54-2.63-.88-3.34-.98-5.23-1.41-11.12-2.51-11.17-2.52-8.07-.81-14.58-1.53-17.45-.72-3,.84-8.19,2.55-12.34,3.95-2.31,.18-7.45,1.35-9.21,3.69-6.49,8.64-4.06,43-1.13,50.4,.76,1.91,3.65,2.18,7.52,1.53,.33,8.79,.86,25.84,.55,26.46-.38,.76,9.85,1.76,21.1,2.08,14.74,.43,27.35-2.08,27.35-2.08,0,0-.55-12.95-.42-28.35,1.18-.24,2.09-.72,2.63-1.5,4.44-6.43,7.77-39.65,1.49-48.6Z"/><path class="n" d="M38.05,38.43c-2.88-.68-4.15,1.23-3.64,3.83,.5,2.6,2.93,4.77,5.78,3.79"/><path class="n" d="M39.33,43.37c-.38-1.01-1.2-1.29-1.86-1.47"/><polygon class="n" points="39.14 61.86 53.54 104.48 68.41 61.05 39.14 61.86"/><path class="n" d="M61.63,49.62s-.66,9.35,1.82,13.17c2.48,3.82-.83,3.6-.83,3.6,0,0-2.62,.99-8.41,1.13-6.68,.16-8.36-.82-8.36-.82,0,0-2.26,.6,.42-4.56,2.67-5.16,1.48-11.71,1.48-11.71"/><path class="n" d="M54.02,66.77l5.85,6.67c.11,.05,2.5-3.69,3.75-6.41,1.3-2.83,2.72-6.1,2.65-6.11l-2.87-3.77s-3.86,4.16-5.41,5.72c-1.54,1.56-3.97,3.9-3.97,3.9Z"/><path class="n" d="M54.02,66.77l-5.85,6.67c-.11,.05-2.5-3.69-3.75-6.41-1.3-2.83-2.72-6.1-2.65-6.11l2.87-3.77s3.86,4.16,5.41,5.72c1.54,1.56,3.97,3.9,3.97,3.9Z"/><path class="s" d="M40.52,14.16c-2.81,.18-5.02-1.14-5.02-1.14-.39,2.57,1.35,4.37,2.72,5.37-.06,.18-1.01,1.06-1.06,1.26-2.35,8.27,4.14,14.2,4.14,14.2l7.88-20.97s-5.65-5.15-8.66,1.28Z"/><path class="n" d="M39.75,23.79c-1.28,4.04-.88,11.84-1.01,17.69-.34,14.71,7.11,17.73,14.22,18.22,8.36,.58,13.47-2.52,17.6-11.69,2.05-4.55,3.5-12.97,2.57-18.6-.93-5.64-10.06-15.65-18.6-14.25-8.55,1.4-12.47,1.33-14.77,8.63Z"/><path class="s" d="M72.98,39.57s10.15-13.34-.7-24.22c-7.21-7.24-24.63-7.27-26.03-.88-.19,.85,5.04,1.94,8.48,11.27,0,0,1.86-1.09,2.23-3.81,0,0,2.62,3.8,6.78,5.24,4.91,1.69,7.86,5.73,8.05,6.81,.19,1.08,.41,6.99,.41,6.99,0,0,.52-2.66,1.85-2.16,1.33,.5-1.08,.76-1.08,.76"/><path class="n" d="M71.17,38.71c2.88-.68,5.84,.95,5.34,3.55-.5,2.6-3.63,4.77-6.48,3.79"/><path class="k" d="M51.23,36.91c-2.27,3.15-3.55,3.92-3.55,3.92l3.38,2.63"/><path class="n" d="M71.32,43.37c.38-1.01,1.2-1.29,1.86-1.47"/><path class="t" d="M62.45,15.08c2.55,4.76,5,6.78,6.68,7.64"/><path class="t" d="M59.12,15.55c2.39,4.85,4.77,6.95,6.42,7.86"/><circle class="m" cx="54.57" cy="77.48" r="1.87" transform="translate(-6.84 5.3) rotate(-5.23)"/><g><path class="g" d="M51.74,32.87v2.64c0,1.45-1.75,2.64-3.89,2.64h-3.43c-2.14,0-3.89-1.19-3.89-2.64v-2.64"/><path class="y" d="M51.74,32.87v2.64c0,1.45-1.75,2.64-3.89,2.64h-3.43c-2.14,0-3.89-1.19-3.89-2.64v-2.64"/></g><g><path class="g" d="M67.62,32.87v2.64c0,1.45-1.75,2.64-3.89,2.64h-3.43c-2.14,0-3.89-1.19-3.89-2.64v-2.64"/><path class="y" d="M67.62,32.87v2.64c0,1.45-1.75,2.64-3.89,2.64h-3.43c-2.14,0-3.89-1.19-3.89-2.64v-2.64"/></g><line class="y" x1="72.97" y1="34.41" x2="67.79" y2="34.41"/><line class="y" x1="56.32" y1="34.41" x2="52" y2="34.41"/><line class="y" x1="40.2" y1="34.34" x2="38.46" y2="34.34"/><path class="n" d="M43.09,101.9c4.32-.24,6.07,2.74,6.38,1.82,.31-.93,2.11-6.33,2.11-6.33-5.55-4.32-6.78-5.7-10.75-6.33-2.38-.38-3.91-.14-6.1,.93,.48,2.04,2.61,9.36,2.61,9.36,0,0,3.87,.65,5.76,.55Z"/><path class="n" d="M68.98,88.91s4.05-1.95,7.13-1.54c3.09,.41,6.27,.57,5.5,2.52-.31,.79-3.75,.31-3.75,.31,0,0,5.79,1.15,4.8,2.62-.98,1.45-5.47,.46-5.47,.46,0,0,4.68,2.01,3.82,3.03-1.37,1.65-5.67,.15-5.37,.05,0,0,4.44,2.14,3.55,3.07-1.26,1.31-3.63,.29-5.42-.03-1.65-.3-4.87,.72-5.59,1.23-.72,.51-9.57-2.67-9.57-2.67,0,0,5.55-6.93,10.35-9.05Z"/><line class="w" x1="33.73" y1="102.74" x2="38.72" y2="101.66"/><path class="w" d="M55.91,110.56c-10.33,4.58-29.21,12.08-31.33,6.73"/><line class="w" x1="32.5" y1="83.87" x2="37.33" y2="101.35"/><path class="n" d="M75.83,96.36c-1.18-.67-3.37-.67-5.53-.62"/><path class="n" d="M76.83,93.17c-1.65-.75-5.07-.75-6.27-.57"/><path class="n" d="M77.55,90.09c-1.23-.27-4.35-.1-5.66-.03"/><polyline class="n" points="53 96.11 49.09 94.25 45.05 106.12 48.75 107.28"/><path class="q" d="M72.92,101.45c-.62,.31-20.19-6.81-20.81-6.65-.62,.15-4.94,13.78-4.94,13.78,0,0,31.61,13.41,36.14,6.86"/><path class="q" d="M74.05,86.85c.31-.21,1.65-4.01,1.65-4.01"/><path class="ad" d="M62.74,33.15c.1,.73-.42,1.41-1.15,1.51-.73,.1-1.41-.42-1.51-1.15-.1-.73,.42-1.41,1.15-1.51,.73-.1,1.41,.42,1.51,1.15Z"/><path class="ad" d="M48.31,33.15c.1,.73-.42,1.41-1.15,1.51-.73,.1-1.41-.42-1.51-1.15-.1-.73,.42-1.41,1.15-1.51,.73-.1,1.41,.42,1.51,1.15Z"/><path class="j" d="M49.83,48.83c2.01,.45,6.82,.3,9.94-.51,0,0,.36,7.28-4.7,7.54-3.52,.18-5.24-7.03-5.24-7.03Z"/><g><line class="v" x1="85.76" y1="12.74" x2="81" y2="14.06"/><line class="v" x1="82.39" y1="7.03" x2="78.93" y2="10.55"/><line class="v" x1="76.62" y1="3.76" x2="75.38" y2="8.55"/></g></g></g></g><g><g><g><circle class="p" cx="186.42" cy="25.55" r="9.16" transform="translate(77.88 179.25) rotate(-62.57)"/><path class="r" d="M179.56,33.73s1.48-7.11,2.41-9.01c.93-1.91,2.48-1.9,3.52-1.39,1.73,.84,2.4,2.67,1.76,3.97s-1.44,2.08-2.4,1.62c-.95-.46-.92-1.84-.5-2.71,.42-.87,2.22-2.35,4.12-1.42,2.08,1.01,1.71,2.98,1.12,4.19-.59,1.21-5.14,7.14-5.14,7.14"/><polygon class="p" points="179.13 44.55 175.95 43 176.71 40.61 180.54 42.47 179.13 44.55"/><g><path class="g" d="M187.06,36.15c-.3,.61-1.41,.7-2.46,.18l-5.55-2.71c-1.05-.51-1.67-1.44-1.37-2.05s1.41-.7,2.46-.18l5.55,2.71c1.05,.51,1.67,1.44,1.37,2.05Z"/><path class="r" d="M187.06,36.15c-.3,.61-1.41,.7-2.46,.18l-5.55-2.71c-1.05-.51-1.67-1.44-1.37-2.05s1.41-.7,2.46-.18l5.55,2.71c1.05,.51,1.67,1.44,1.37,2.05Z"/></g><g><path class="g" d="M185.97,38.38c-.3,.61-1.41,.7-2.46,.18l-5.55-2.71c-1.05-.51-1.67-1.44-1.37-2.05s1.41-.7,2.46-.18l5.55,2.71c1.05,.51,1.67,1.44,1.37,2.05Z"/><path class="r" d="M185.97,38.38c-.3,.61-1.41,.7-2.46,.18l-5.55-2.71c-1.05-.51-1.67-1.44-1.37-2.05s1.41-.7,2.46-.18l5.55,2.71c1.05,.51,1.67,1.44,1.37,2.05Z"/></g><g><path class="g" d="M184.88,40.62c-.3,.61-1.41,.7-2.46,.18l-5.55-2.71c-1.05-.51-1.67-1.44-1.37-2.05s1.41-.7,2.46-.18l5.55,2.71c1.05,.51,1.67,1.44,1.37,2.05Z"/><path class="r" d="M184.88,40.62c-.3,.61-1.41,.7-2.46,.18l-5.55-2.71c-1.05-.51-1.67-1.44-1.37-2.05s1.41-.7,2.46-.18l5.55,2.71c1.05,.51,1.67,1.44,1.37,2.05Z"/></g><g><path class="g" d="M183.79,42.85c-.3,.61-1.41,.7-2.46,.18l-5.55-2.71c-1.05-.51-1.67-1.44-1.37-2.05s1.41-.7,2.46-.18l5.55,2.71c1.05,.51,1.67,1.44,1.37,2.05Z"/><path class="r" d="M183.79,42.85c-.3,.61-1.41,.7-2.46,.18l-5.55-2.71c-1.05-.51-1.67-1.44-1.37-2.05s1.41-.7,2.46-.18l5.55,2.71c1.05,.51,1.67,1.44,1.37,2.05Z"/></g></g><circle class="aa" cx="186.69" cy="26.69" r="7.21" transform="translate(-1.88 29.29) rotate(-8.93)"/></g><g class="ab"><g><path class="x" d="M117.99,44.79c.8-2.71,2.65-8.21,3.91-11.64-.84-2.78-1.25-6.4,.11-10.29,2.6-7.39,9.17-8.1,12.7-7.9,5.75-3.28,16.78-2.88,23.65,4.91,.84,.95,5.4,6.86,5.72,14.11,.24,5.41,0,9.77-.95,15.61-1.9,11.72-7.44,13.21-12.13,12.01-3.29-.84-7.49-2.3-9.97-2.4-3.66-.15-4.81,.46-8.98,.15-3.37-.25-6.75-.99-9.87-2.91-3.57-2.2-5.4-7.56-4.2-11.65Z"/><polyline class="x" points="118.36 127.2 117.59 148.1 158.29 148.1 156.3 127.96"/><path class="i" d="M143.96,132.68c-.25-3.33-.11-9.72-.24-14.58-.58-20.88,2.11-38.99,6.08-49.6-4.1-.26-13.13-2.56-18.4-2.91-3.63,12.3-4.6,43.82-4.6,43.82,0,0-1,12.82-1.89,22.36,4.8,1.45,11.88,2.41,19.05,.91Z"/><path class="i" d="M144.79,52.11s-1.9,9.89,.5,13.21c2.29,3.17,4.65,3.52,4.65,3.52,0,0,1.9,5.28-1.66,8.57-2.97,2.75-10.99,3.14-13.27,2.83-2.03-.27-6.26-1.61-7.36-3.14-2.42-3.36-.16-8.15-.16-8.15,0,0,3.83,1.86,5.68-3.55,1.8-5.24,.99-13.24,.99-13.24"/><path class="x" d="M126.8,109.41s.98-31.52,4.6-43.82c-1.65-.11-2.86-.19-3.34-.23-5.05-.39-9.56,.56-11.1,2.99,0,0-12.87,27.63-13.19,28.26-3.96,7.77-1.37,14.17,.3,14.63,8.24,2.25,14-7.25,14-7.25,1.27,5.45,1,6.73,1.18,10.39,.22,4.38-4.81,26.08-5.19,26.83-.24,.48,4.42,1.37,11.13,1.52,2.28-9.33,1.59-33.33,1.59-33.33Z"/><path class="x" d="M157.89,70.7c-1.08-.63-6.67-1.93-8.43-2.34-3.97,10.61-6.32,28.86-5.74,49.73,.3,10.82,.67,21.7,1.31,25.71,7.93,.61,17.68-.76,17.68-.76,0,0-5.04-23.06-5.18-23.62-.68-5.16,3.18-20.66,5.99-31.92,.87-3.48-2.63-15.07-5.62-16.8Z"/><path class="q" d="M156.64,100.88l6.34,8.75s-1.33,1.03-3.16,2.38c.7,3.28,2.7,6.76,5.12,8.94,4.68-2.57,10.81-6.29,12.71-8.15,1.92-1.88-.47-7.32-3.66-13.75-5.63-11.38-13.36-25.68-13.36-25.68-.86-1.96-3-2.71-3.98-3.11"/><path class="x" d="M162.98,109.63c.44-.14,2.88-2.04,2.88-2.04"/><path class="x" d="M114.3,85.64s-5.28,5.76-5.08,5.76"/><path class="f" d="M118.09,103.99c1.36-2.37,3.63-8.81,4.9-11.65"/><path class="l" d="M124.88,35.29c-2.7,.19-4.91,1.37-4.73,3.93,.18,2.55,2.52,4.47,5.22,4.28"/><path class="l" d="M122.96,40.72c.9-5.59,1.29-10.41,2.76-14.24,1.91-4.96,4.79-7.12,9.34-8.25,1.4,3.62,4.78,9.75,10.21,14.87,5.69,5.37,9.53,8.74,11.31,10.27-.87,2.53-1.95,4.84-3.04,6.45-4.04,5.99-11.43,10.54-19.3,9.68-8.45-.93-12.65-10.28-11.28-18.79Z"/><path class="u" d="M145.66,23.83c1.54,3.99,5.77,8.98,9.09,10.31"/><path class="u" d="M150.64,22.45c1.07,3.12,3.79,6.9,6.5,7.94"/><path class="o" d="M135.45,37.62c-2.91,3.28-5.22,3.75-5.22,3.75l3.81,2.75"/><path class="l" d="M154.47,42.53c2.62,.68,4.58,2.24,3.94,4.72-.64,2.48-3.28,3.94-5.9,3.27"/><path class="ad" d="M146.39,37.4c.1,.73-.42,1.41-1.15,1.51-.73,.1-1.41-.42-1.51-1.15-.1-.73,.42-1.41,1.15-1.51,.73-.1,1.41,.42,1.51,1.15Z"/><path class="ad" d="M132.39,34.49c.1,.73-.42,1.41-1.15,1.51-.73,.1-1.41-.42-1.51-1.15-.1-.73,.42-1.41,1.15-1.51,.73-.1,1.41,.42,1.51,1.15Z"/><g><path class="f" d="M119.1,48.98c-.28-1.06,1.72-1.25,2.26-.27,1.57,2.85,2.39,9.54,2.82,9.61,.43,.07,1.74-2.45,2.99-2.09,1.08,.31,1.23,3.34,2.02,2.91,0,0,1.18-.97,1.74-.9,1.02,.12,.56,2.7,.56,2.7,0,0,2.11-1.38,2.33-.02,.15,.9,.77,3,.37,4.08-.24,.64-1.4,.97-1.93,1.25,.28,.57,.74,2.9-.34,4.89-.95,1.75-1.72,1.96-2.46,2.12l-6.47,19.08h-.04c-.37,.04-3.2,.25-6.51-1.83-3.55-2.23-2.13-4.88-2.13-4.88l9.09-12.79s-.89-5.11-1.14-6.6c-.25-1.49-.7-3.91-.9-4.72-.78-3.13-1.36-9.17-2.25-12.55"/><line class="h" x1="125.42" y1="61.41" x2="128.67" y2="59.4"/><line class="h" x1="125.86" y1="61.04" x2="126.61" y2="59.35"/><path class="h" d="M128.67,62.42s2.99-1.48,2.82-1.47"/><line class="h" x1="131.07" y1="64.37" x2="132.26" y2="66.25"/><line class="h" x1="130.16" y1="64.89" x2="132" y2="63.82"/></g><circle class="g" cx="149.52" cy="87.34" r="1.3"/><circle class="g" cx="148.46" cy="98.24" r="1.3"/><circle class="g" cx="147.62" cy="108.3" r="1.3" transform="translate(21.09 240.63) rotate(-82.55)"/><path class="g" d="M148.46,117.14c0,.72-.58,1.3-1.3,1.3s-1.3-.58-1.3-1.3,.58-1.3,1.3-1.3,1.3,.58,1.3,1.3Z"/><path class="g" d="M148.3,129.48c0,.72-.58,1.3-1.3,1.3s-1.3-.58-1.3-1.3,.58-1.3,1.3-1.3,1.3,.58,1.3,1.3Z"/><g><path class="i" d="M161.66,133.46c-1.29-.41-2.91-.07-2.91-.07,0,0,1.22-1.22,.34-1.96-.64-.54-2.21-.3-3.02-.12,.06-.78,.12-1.47,.16-1.93,.15-1.83-.91-3.35-.91-3.35,0,0,4.61-2.33,9.63-5.08-2.41-2.18-4.42-5.66-5.12-8.94-3.15,2.33-7.98,5.99-9.61,7.23-2.89,2.19-2.17,5.08-1.92,7.55,.35,3.5,2.9,8.38,4.88,10.06,.89,.75,1.83,.65,2.52,.34,0,0,4.95-1.56,5.76-1.76,.81-.2,1.49-1.56,.2-1.96Z"/><path class="i" d="M156.06,131.31c-.3,1.68-.36,3.24-.36,3.24"/><line class="i" x1="156.03" y1="133.73" x2="158.74" y2="133.39"/></g><path class="l" d="M155.01,51.42c-.02,.94-.81,1.69-1.75,1.66-.94-.02-1.69-.81-1.66-1.75,.02-.94,.81-1.69,1.75-1.66,.94,.02,1.69,.81,1.66,1.75Z"/><path class="o" d="M132.88,49.17c1.56,.35,3.77,.43,6.19-.2,0,0,0,5.24-2.13,5.65-2.12,.41-4.06-5.45-4.06-5.45Z"/><g><line class="v" x1="127.7" y1="4.63" x2="127.07" y2="9.53"/><line class="v" x1="121.12" y1="5.52" x2="123.03" y2="10.08"/><line class="v" x1="115.88" y1="9.58" x2="119.81" y2="12.57"/></g></g></g></g></g></g></g></g></svg>