<?xml version="1.0" encoding="UTF-8"?><svg xmlns="http://www.w3.org/2000/svg" width="12.42" height="26.17" viewBox="0 0 12.42 26.17"><defs><style>.d{fill:#0075cc;}</style></defs><g id="a"/><g id="b"><g id="c"><g><polygon class="d" points="10.37 5.23 10.05 6.05 9.47 6.81 9.24 7.65 8.78 8.44 8.37 9.24 7.93 10.03 7.68 10.87 7.18 11.65 6.88 12.47 6.44 13.26 6.11 14.08 5.74 14.93 5.34 15.77 4.84 16.58 4.5 17.44 4.04 18.27 3.68 19.12 3.21 19.94 2.78 20.77 2.35 21.61 1.95 22.45 1.64 23.31 1.22 24.15 .86 25 .5 25.8 .84 25.02 1.04 24.17 1.18 23.32 1.47 22.48 1.65 21.62 1.63 20.75 2 19.92 1.98 19.07 2.28 18.27 2.34 17.44 2.52 16.62 2.81 15.81 2.95 14.99 3.1 14.17 3.28 13.31 3.58 12.46 3.82 11.61 3.91 10.74 4.2 9.89 4.18 9.01 4.5 8.17 4.57 7.3 4.82 6.45 5.03 5.59 5.29 4.74 5.34 3.87 5.45 3 5.79 2.16 6.01 1.3 6.04 .43 7.23 .23 8.45 .46 9.67 .73 10.91 .93 11.99 1.26 11.73 2.05 11.3 2.82 10.94 3.61 10.64 4.42 10.37 5.23"/><path class="d" d="M9.31,5.04l.84-1.58c.06-.12,.08-.14,.13-.22l.12-.19,.25-.42,.54-.74-.03,.06c.11-.26,.18-.53,.27-.79l.34,.48-.54-.17c-.18-.06-.35-.14-.52-.2l.09,.02c-.4-.1-.81-.2-1.21-.3h-.03c-.39-.12-.79-.21-1.2-.3l-.6-.12c-.2-.04-.41-.08-.61-.11h.16l-1.19,.21,.27-.24v.88l-.02,.03h0l-.2,.86v.02h0l-.34,.85v-.05l-.09,.85c0,.29-.05,.58-.07,.87v.05l-.23,.63-.06,.16-.05,.15-.09,.32-.09,.32-.05,.17-.05,.16-.21,.64v-.03c-.02,.29-.03,.58,0,.87h0v.05l-.23,.86,.02-.09c.03,.29,.03,.59,.04,.88,0,.02,0,.05,0,.07h0l-.28,.86v-.06l-.08,.87v.04l-.25,.88c-.1,.28-.21,.56-.3,.84v-.04c-.12,.84-.24,1.66-.34,2.51v.03l-.02,.03-.26,.81v-.05l-.14,.82v-.05l-.02,.83s0,.05-.01,.08v.02l-.28,.81,.02-.14c.01,.28,.04,.56,.02,.84v.05s-.02,.08-.03,.12l-.4,.82,.03-.16-.02,.87v.08l-.24,.85v.04c-.13,.28-.23,.56-.33,.84v-.05l-.15,.87-.21,.85h0v.05l-.36,.78-.98-.22,.56-1.24,.14-.31,.08-.17,.08-.15,.31-.62v.03l.3-.86v-.02l.42-.85,.46-.83,.46-.84,.5-.81v.03l.37-.84h0v-.02l.49-.82v.02l.36-.85h0v-.03l.53-.81v.02l.29-.62c.1-.21,.18-.4,.28-.62,.18-.42,.32-.84,.48-1.27h0v-.02c.14-.27,.28-.53,.41-.8l-.02,.03,.22-.84h0l.02-.05,.42-.8-.04,.08,.16-.85,.03-.07,.26-.61,.06-.15,.05-.14,.12-.31,.12-.31,.03-.08,.05-.1,.07-.15,.27-.61-.06,.13,.13-.86s.02-.06,.03-.09l.07-.12,.48-.8-.1,.18,.03-.12,.35-.66Zm.72,1.98l.06-.13-.26,.84v.02s-.02,.04-.04,.06l-.36,.58-.09,.15-.07,.13-.16,.3-.16,.3-.17,.31-.34,.59,.03-.06-.27,.84h0s-.02,.06-.03,.08l-.51,.77,.03-.06-.32,.82h0v.04c-.17,.26-.3,.53-.44,.79l.02-.03-.49,1.27-.12,.32-.14,.33-.28,.63h0l-.02,.03c-.15,.28-.34,.54-.51,.81l.03-.05-.36,.85h0v.04l-.48,.82v-.03l-.36,.85h0v.03l-.5,.82-.44,.82-.44,.83-.41,.83v-.02l-.32,.86h0v.03l-.32,.62-.07,.16-.06,.14-.13,.32-.52,1.26c-.08,.19-.35,.3-.62,.24s-.41-.25-.34-.44h0l.32-.8-.02,.05,.18-.85,.12-.84v-.04h.01c.09-.29,.18-.57,.25-.86v.04l.12-.86v.08l-.07-.87s0-.09,.02-.13v-.03l.35-.84-.03,.16c-.02-.28,0-.56,0-.84v-.02s0-.08,.02-.12l.32-.8-.02,.1,.08-.83v-.05l.21-.81v-.05l.34-.8-.02,.06c.17-.83,.37-1.68,.58-2.5v-.02h.01c.11-.29,.21-.58,.31-.86l.23-.83v.04l.08-.87s0-.04,.01-.06l.3-.84v.08c0-.29-.02-.59,0-.88v-.05s0-.03,.02-.04l.42-.82v.05c.06-.29,.1-.58,.11-.87v-.02h0l.17-.65,.04-.16,.03-.15,.07-.32,.07-.32,.04-.17,.04-.16,.17-.64v.05c0-.29,0-.58,.02-.87l.12-.88h0s0-.04,.01-.05l.35-.84v.03l.22-.85v.04l.03-.88h0c0-.12,.11-.22,.27-.24L7.16,0h.01s.09,0,.14,0l1.23,.24c.4,.09,.8,.19,1.22,.25h-.02l1.26,.14,.07,.02c.37,.09,.73,.2,1.09,.32h.03c.18,.07,.27,.21,.22,.35l-.3,.79h0v.04l-.45,.77-.35,.76-.3,.79-.27,.81-.5,1.48-.21,.26Z"/></g></g></g></svg>