<svg xmlns="http://www.w3.org/2000/svg" viewBox="0 0 185.67 103.67"><defs><style>.cls-1{isolation:isolate;}.cls-2,.cls-6{fill:#231815;}.cls-3,.cls-4,.cls-5{fill:#939494;}.cls-10,.cls-11,.cls-12,.cls-13,.cls-14,.cls-15,.cls-17,.cls-18,.cls-19,.cls-20,.cls-22,.cls-23,.cls-24,.cls-25,.cls-26,.cls-27,.cls-28,.cls-29,.cls-3,.cls-30,.cls-31,.cls-32,.cls-33,.cls-34,.cls-35,.cls-4,.cls-6,.cls-7,.cls-8,.cls-9{stroke:#231815;stroke-linecap:round;stroke-linejoin:round;}.cls-12,.cls-3{stroke-width:0.59px;}.cls-14,.cls-4{stroke-width:0.42px;}.cls-18,.cls-6{stroke-width:1.3px;}.cls-7{fill:#656565;}.cls-19,.cls-7,.cls-8{stroke-width:1.34px;}.cls-10,.cls-8,.cls-9{fill:#989798;}.cls-9{stroke-width:1.23px;}.cls-10{stroke-width:1.1px;}.cls-11,.cls-17,.cls-19,.cls-20,.cls-27,.cls-28,.cls-33{fill:#fff;}.cls-11{stroke-width:1.15px;}.cls-12,.cls-22,.cls-30,.cls-35{fill:#b5b5b5;}.cls-13,.cls-14,.cls-18,.cls-23,.cls-26,.cls-31,.cls-34{fill:none;}.cls-13,.cls-15{stroke-width:0.65px;}.cls-15,.cls-24,.cls-32{fill:#dbdddc;}.cls-16{fill:#aaabab;}.cls-17{stroke-width:0.81px;}.cls-20{stroke-width:1.27px;}.cls-21{fill:#d9d9d9;mix-blend-mode:multiply;}.cls-22,.cls-24{stroke-width:0.6px;}.cls-23{stroke-width:0.42px;}.cls-25{fill:#858585;stroke-width:0.87px;}.cls-26{stroke-width:0.97px;}.cls-27{stroke-width:0.73px;}.cls-28,.cls-29,.cls-35{stroke-width:1.14px;}.cls-29{fill:#f7be16;}.cls-30,.cls-32{stroke-width:0.77px;}.cls-31{stroke-width:0.54px;}.cls-33{stroke-width:0.97px;}.cls-34{stroke-width:1.25px;}</style></defs><g class="cls-1"><g id="Layer_1" data-name="Layer 1"><ellipse class="cls-2" cx="95.83" cy="93.17" rx="89.84" ry="10.5"/><path class="cls-3" d="M24.38,403.33l-8.13.58c-5.83.42-10,7.58-9.44,16s5.85,14.9,11.68,14.48l8.12-.58c5.83-.42,10.06-7.58,9.44-16S30.21,402.91,24.38,403.33Z" transform="translate(6.18 -346.45)"/><path class="cls-4" d="M9.15,413.42a21.29,21.29,0,0,0-.48,6.36c.62,8.41,5.85,14.9,11.68,14.48" transform="translate(6.18 -346.45)"/><path class="cls-4" d="M12.57,406.61a14.05,14.05,0,0,0-2.77,4.65" transform="translate(6.18 -346.45)"/><path class="cls-4" d="M11.24,413.27a21.29,21.29,0,0,0-.48,6.36c.62,8.41,5.85,14.9,11.68,14.48" transform="translate(6.18 -346.45)"/><path class="cls-4" d="M14.66,406.46a14.05,14.05,0,0,0-2.77,4.65" transform="translate(6.18 -346.45)"/><path class="cls-4" d="M13.49,413.11a21.25,21.25,0,0,0-.48,6.35c.62,8.42,5.85,14.91,11.68,14.49" transform="translate(6.18 -346.45)"/><path class="cls-4" d="M16.91,406.3A14.05,14.05,0,0,0,14.14,411" transform="translate(6.18 -346.45)"/><ellipse class="cls-3" cx="25.5" cy="418.57" rx="10.58" ry="15.28" transform="translate(-24.93 -343.38) rotate(-4.27)"/><path class="cls-5" d="M31.25,413.37h0l-.17-.42h0a3.52,3.52,0,0,0-.18-.4h0l-.19-.38h0c-1.3-2.54-3.24-4.2-5.34-4.34h-.9l-.1,0h0c-2,.36-3.68,2.13-4.65,4.66h0c-.05.13-.1.26-.14.4h0c0,.13-.09.27-.13.41h0c-.05.14-.09.28-.13.42h0a16.46,16.46,0,0,0,.67,10.15h0a12.36,12.36,0,0,0,.78,1.59h0c1.32,2.27,3.18,3.71,5.18,3.77h.44l.16,0h.31l.09,0h0c2-.43,3.62-2.24,4.55-4.78h0c.05-.14.1-.27.14-.41h0l.12-.41v0c0-.14.08-.28.11-.42h0a16.63,16.63,0,0,0-.63-9.77Z" transform="translate(6.18 -346.45)"/><path class="cls-4" d="M8.69,418.67a9.59,9.59,0,0,1,1,.79" transform="translate(6.18 -346.45)"/><path class="cls-4" d="M9,421.38c.09.05.85.77.85.77" transform="translate(6.18 -346.45)"/><line class="cls-4" x1="15.81" y1="78.01" x2="16.49" y2="78.43"/><path class="cls-4" d="M13.73,407.63a7.75,7.75,0,0,0,1-.31" transform="translate(6.18 -346.45)"/><line class="cls-4" x1="14.95" y1="69" x2="15.77" y2="69.71"/><line class="cls-4" x1="16.9" y1="63.03" x2="17.4" y2="63.48"/><path class="cls-4" d="M12.06,407.31a5.61,5.61,0,0,1,.6.53" transform="translate(6.18 -346.45)"/><path class="cls-3" d="M31.46,424.44c0-.13.09-.26.14-.4h0c0-.14.09-.28.13-.41v0l.12-.42h0a16.12,16.12,0,0,0,.41-5.08,15.94,15.94,0,0,0-1-4.69h0l-.17-.41h0l-.18-.4h0c-.06-.13-.12-.26-.19-.39h0c-1.3-2.53-3.24-4.19-5.34-4.33h-1c-2,.36-3.68,2.13-4.65,4.65h0c-.05.14-.1.27-.14.41h0c-.05.14-.1.28-.14.42h0l-.12.43h0a15.71,15.71,0,0,0-.46,5.26A16.15,16.15,0,0,0,19.9,424h0a12.22,12.22,0,0,0,.78,1.58h0c1.32,2.27,3.18,3.72,5.18,3.78h.84l.07,0h.13c2-.43,3.62-2.24,4.56-4.79ZM31,418.18a15.24,15.24,0,0,1-.16,3.61L27,418.63l3.38-3.71A14.6,14.6,0,0,1,31,418.18Zm-1.26-5-3.21,3.52L26,409.47A6.44,6.44,0,0,1,29.72,413.21Zm-7-2.92a3.88,3.88,0,0,1,1.58-.85l.54,7.39-4.11-3.4A7.3,7.3,0,0,1,22.71,410.29ZM20.06,419a14.66,14.66,0,0,1,.2-3.79l4.36,3.61-3.74,4.1A14.42,14.42,0,0,1,20.06,419Zm1.55,5.55,3.5-3.83.52,7.1a3.85,3.85,0,0,1-1.68-.61A7.34,7.34,0,0,1,21.61,424.52Zm5.69,3-.51-6.93,3.59,3A6.34,6.34,0,0,1,27.3,427.52Z" transform="translate(6.18 -346.45)"/><path class="cls-6" d="M24.38,403.33l-8.13.58c-5.83.42-10,7.58-9.44,16s5.85,14.9,11.68,14.48l8.12-.58c5.83-.42,10.06-7.58,9.44-16S30.21,402.91,24.38,403.33Z" transform="translate(6.18 -346.45)"/><path class="cls-7" d="M53.31,401.66s12.37-1.69,15,3.6,6.15,14.67,6.15,14.67l9-.33s-1.88-17.92-9.92-20.89C60.29,393.86,53.31,401.66,53.31,401.66Z" transform="translate(6.18 -346.45)"/><path class="cls-8" d="M16.38,428.34a29.74,29.74,0,0,0,11.76,1.08c7.12-.65,13.81-3,18.45-3.24s5.61.76,12-.21,13.45-5.47,15.86-6c0,0,.07-8.7-2.63-13s-5.61-7.41-13.88-7.19c-9.84.26-11.86,3.6-18.88,8.77S16.38,428.34,16.38,428.34Z" transform="translate(6.18 -346.45)"/><rect class="cls-9" x="56.84" y="405.55" width="2.4" height="10.3" transform="translate(-158.61 -285.6) rotate(-24.45)"/><rect class="cls-9" x="54.02" y="401.03" width="3.91" height="10.3" transform="translate(-156.92 -286.85) rotate(-24.45)"/><path class="cls-10" d="M54.48,398.81A1.64,1.64,0,1,1,52.3,398,1.64,1.64,0,0,1,54.48,398.81Z" transform="translate(6.18 -346.45)"/><path class="cls-11" d="M86,418.93c-.28.1-9.12,7.45-9.12,7.45l9.87,5.94s4.41.23,4.18,0-9.86-6.23-9.86-6.23l8.28-7.34Z" transform="translate(6.18 -346.45)"/><path class="cls-11" d="M90.75,418.93c.28.1,9.11,7.63,9.11,7.63L90,432.32s-4.42.23-4.19,0,9.86-6.23,9.86-6.23l-8.27-7.34Z" transform="translate(6.18 -346.45)"/><rect class="cls-11" x="86.69" y="85.78" width="16.09" height="2.79"/><path class="cls-11" d="M80.47,426.28a1.17,1.17,0,1,1-1.16-1.16A1.16,1.16,0,0,1,80.47,426.28Z" transform="translate(6.18 -346.45)"/><path class="cls-11" d="M98.51,426.28a1.16,1.16,0,1,1-1.16-1.16A1.16,1.16,0,0,1,98.51,426.28Z" transform="translate(6.18 -346.45)"/><path class="cls-11" d="M89.58,430.83a1.16,1.16,0,1,1-1.16-1.16A1.16,1.16,0,0,1,89.58,430.83Z" transform="translate(6.18 -346.45)"/><path class="cls-11" d="M89.58,420a1.16,1.16,0,1,1-1.16-1.17A1.16,1.16,0,0,1,89.58,420Z" transform="translate(6.18 -346.45)"/><path class="cls-7" d="M116.17,389.94s12.94-2.05,15.53,3.24,9.13,12.45,9.13,12.45l9-.33s-.38-16.66-8.42-19.63C128.21,380.82,116.17,389.94,116.17,389.94Z" transform="translate(6.18 -346.45)"/><path class="cls-12" d="M136.28,388.77l-8.13.58c-5.83.42-10.05,7.58-9.44,16s5.85,14.9,11.68,14.48l8.12-.58c5.83-.42,10.06-7.58,9.44-16S142.11,388.35,136.28,388.77Z" transform="translate(6.18 -346.45)"/><path class="cls-13" d="M121.05,398.86a21.31,21.31,0,0,0-.48,6.36c.62,8.41,5.85,14.9,11.68,14.48" transform="translate(6.18 -346.45)"/><path class="cls-14" d="M124.47,392.06a13.9,13.9,0,0,0-2.77,4.64" transform="translate(6.18 -346.45)"/><path class="cls-13" d="M123.14,398.71a21.31,21.31,0,0,0-.48,6.36c.62,8.41,5.85,14.9,11.67,14.48" transform="translate(6.18 -346.45)"/><path class="cls-14" d="M126.56,391.91a13.9,13.9,0,0,0-2.77,4.64" transform="translate(6.18 -346.45)"/><path class="cls-13" d="M125.39,398.55a21.29,21.29,0,0,0-.48,6.36c.62,8.41,5.85,14.9,11.68,14.48" transform="translate(6.18 -346.45)"/><path class="cls-13" d="M128.81,391.74a14.05,14.05,0,0,0-2.77,4.65" transform="translate(6.18 -346.45)"/><ellipse class="cls-15" cx="137.4" cy="404.01" rx="10.58" ry="15.28" transform="translate(-23.53 -335.09) rotate(-4.27)"/><path class="cls-16" d="M143.15,398.81h0l-.17-.42h0c-.05-.13-.11-.26-.18-.4h0c-.06-.13-.13-.26-.19-.38h0c-1.3-2.54-3.24-4.2-5.34-4.34h-.9l-.1,0h0c-2,.36-3.68,2.13-4.65,4.66h0c0,.13-.1.26-.14.4h0c0,.13-.09.27-.13.41h0c0,.14-.09.28-.13.42h0a16.46,16.46,0,0,0,.67,10.15h0a13,13,0,0,0,.77,1.59h0c1.33,2.27,3.19,3.71,5.19,3.77h.44l.16,0h.31l.09,0h0c2-.42,3.62-2.23,4.55-4.78h0c.05-.14.1-.27.14-.41h0l.12-.41v0c0-.14.08-.28.11-.42h0a16.63,16.63,0,0,0-.63-9.77Z" transform="translate(6.18 -346.45)"/><path class="cls-14" d="M120.59,404.11a9.59,9.59,0,0,1,1,.79" transform="translate(6.18 -346.45)"/><path class="cls-14" d="M120.89,406.83c.09,0,.85.76.85.76" transform="translate(6.18 -346.45)"/><line class="cls-14" x1="127.7" y1="63.46" x2="128.39" y2="63.87"/><path class="cls-14" d="M125.63,393.07a8,8,0,0,0,1-.3" transform="translate(6.18 -346.45)"/><line class="cls-14" x1="126.85" y1="54.44" x2="127.67" y2="55.15"/><line class="cls-14" x1="128.8" y1="48.47" x2="129.3" y2="48.92"/><path class="cls-14" d="M124,392.75a5.61,5.61,0,0,1,.6.53" transform="translate(6.18 -346.45)"/><path class="cls-17" d="M143.36,409.89c0-.14.09-.27.14-.41h0c0-.14.09-.27.13-.41v0l.12-.42h0a16.63,16.63,0,0,0-.63-9.77h0c-.05-.14-.11-.28-.17-.42h0l-.18-.4h0c-.06-.13-.12-.26-.19-.39h0c-1.3-2.53-3.24-4.19-5.34-4.33h-.9l-.1,0h0c-2,.36-3.68,2.13-4.65,4.65h0c0,.14-.1.27-.14.41h0c0,.14-.09.28-.13.42h0l-.12.42h0a15.74,15.74,0,0,0-.46,5.26,16.15,16.15,0,0,0,1.12,4.9h0a13,13,0,0,0,.78,1.59h0c1.32,2.27,3.18,3.71,5.18,3.77h.91l.09,0h0c2-.43,3.62-2.24,4.56-4.78Zm-.48-6.27a15.24,15.24,0,0,1-.16,3.61l-3.82-3.16,3.38-3.7A14.41,14.41,0,0,1,142.88,403.62Zm-1.26-5-3.21,3.52-.53-7.26A6.44,6.44,0,0,1,141.62,398.65Zm-7-2.92a3.85,3.85,0,0,1,1.58-.84l.54,7.38-4.11-3.4A7.3,7.3,0,0,1,134.61,395.73ZM132,404.41a14.66,14.66,0,0,1,.2-3.79l4.36,3.61-3.74,4.1A14.34,14.34,0,0,1,132,404.41Zm1.55,5.55,3.5-3.83.52,7.1a3.85,3.85,0,0,1-1.68-.61A7.26,7.26,0,0,1,133.51,410Zm5.69,3-.51-6.93,3.59,3A6.31,6.31,0,0,1,139.2,413Z" transform="translate(6.18 -346.45)"/><path class="cls-18" d="M136.28,388.77l-8.13.58c-5.83.42-10.05,7.58-9.44,16s5.85,14.9,11.68,14.48l8.12-.58c5.83-.42,10.06-7.58,9.44-16S142.11,388.35,136.28,388.77Z" transform="translate(6.18 -346.45)"/><ellipse class="cls-19" cx="72.24" cy="71.32" rx="3.61" ry="3.99"/><ellipse class="cls-19" cx="35.8" cy="379.91" rx="8.63" ry="4.8" transform="translate(-55.7 -335.42) rotate(-9.45)"/><path class="cls-19" d="M154,379.8c-4.7-7.64-19.74-8.95-20.17-8.95s-8.49-18.1-19.31-21.57c-16.83-5.39-48,.54-55.67,4.31a37.67,37.67,0,0,0-7.28,4.72c2.31-.63,5.12-1.23,8.47-1.81a125.51,125.51,0,0,1,20.17-1.72L71.4,378.72a179.53,179.53,0,0,0-21.58.65C43,380,39,380.53,36.69,381c-.09.31-14.92,2.74-26,9.31S-1,409-1,409a19.93,19.93,0,0,0-4.21,6.69c-1.29,3.77,1.51,13.16,6.69,14s45-6.47,45.64-6.58S41.57,401.35,62.44,398c19-3,20.93,21.57,20.93,21.57s20.71-3.63,39.83-7.68c-.72-4.51-2.47-21.38,10.87-24.46,12.49-2.88,15.15,12.05,15.72,17.84,2.7-.91,4.46-1.74,4.89-2.42C159.63,395.11,157.48,385.41,154,379.8Z" transform="translate(6.18 -346.45)"/><polygon class="cls-19" points="14.04 68.57 16.19 76.66 31.89 74.07 29.57 65.66 14.04 68.57"/><path class="cls-19" d="M37.27,414.7c.29,1.35-1.4,2.7-3.62,3.18s-4.33-.14-4.61-1.41,1.35-2.69,3.62-3.18S37,413.43,37.27,414.7Z" transform="translate(6.18 -346.45)"/><ellipse class="cls-19" cx="1.38" cy="420.74" rx="4.21" ry="2.35" transform="translate(-72.17 -338.82) rotate(-10.74)"/><path class="cls-19" d="M71.4,378.72l8.84-23.94a125.51,125.51,0,0,0-20.17,1.72c-3.35.58-6.16,1.18-8.47,1.81C41.4,366.69,37.43,378.48,36.69,381c2.3-.42,6.31-1,13.13-1.58A179.53,179.53,0,0,1,71.4,378.72Z" transform="translate(6.18 -346.45)"/><ellipse class="cls-19" cx="32.45" cy="399.33" rx="7.55" ry="4.96" transform="translate(-350.96 -40.58) rotate(-71.86)"/><ellipse class="cls-20" cx="5.05" cy="404.18" rx="7.2" ry="4.69" transform="translate(-375.3 -60.51) rotate(-72.27)"/><path class="cls-19" d="M83.91,354.46l-7.77,23.29,53.4-6.68s-6.58-16.29-15.75-18.23S86.93,352.41,83.91,354.46Z" transform="translate(6.18 -346.45)"/><path class="cls-21" d="M9.27,399.1a20.41,20.41,0,0,1-7.34,11.45,3.23,3.23,0,0,0,.9.47c2.46.82,5.45-1.59,6.68-5.37A8.59,8.59,0,0,0,9.27,399.1Z" transform="translate(6.18 -346.45)"/><path class="cls-21" d="M34.8,392.15l-.23-.07c-.53,3.62-2.16,10.5-6,13.38a3.52,3.52,0,0,0,1.54,1c2.61.85,5.77-1.67,7.07-5.63S37.41,393,34.8,392.15Z" transform="translate(6.18 -346.45)"/><path class="cls-21" d="M68,355.43c-3.71,6-13.46,18.58-19.41,24.05l1.23-.11a179.53,179.53,0,0,1,21.58-.65l8.84-23.94A121.38,121.38,0,0,0,68,355.43Z" transform="translate(6.18 -346.45)"/><path class="cls-21" d="M113.79,352.84a41.52,41.52,0,0,0-5.42-.72c-.32,4.38-1.8,15.6-5.16,22.24l26.33-3.29S123,354.78,113.79,352.84Z" transform="translate(6.18 -346.45)"/><ellipse class="cls-19" cx="83.91" cy="374.79" rx="8.63" ry="4.8" transform="translate(-54.2 -327.59) rotate(-9.45)"/><ellipse class="cls-19" cx="71.8" cy="71.65" rx="7.39" ry="7.77"/><ellipse class="cls-19" cx="66.06" cy="417.77" rx="3.61" ry="3.99" transform="translate(0.09 -345.44) rotate(-0.84)"/><path class="cls-19" d="M67.16,417.79A1.11,1.11,0,1,0,66,419,1.16,1.16,0,0,0,67.16,417.79Z" transform="translate(6.18 -346.45)"/><path class="cls-19" d="M68.7,408.28l-1.4,2.91L72.15,418,76,416.47s1.51-.43-1.08-5.28S68.7,408.28,68.7,408.28Z" transform="translate(6.18 -346.45)"/><path class="cls-19" d="M70.35,410.9a16.42,16.42,0,0,1,2.88,4.6" transform="translate(6.18 -346.45)"/><path class="cls-22" d="M141.28,420.71c0,.85-.12,8.16-.13,9-.06,5,8.06,9.22,18.14,9.41s18.27-3.71,18.33-8.72c0-.84.12-8.15.13-9,.06-5-8.06-9.23-18.14-9.42S141.34,415.7,141.28,420.71Z" transform="translate(6.18 -346.45)"/><path class="cls-23" d="M151.79,436.59a34.51,34.51,0,0,0,7.51.94c10.07.2,18.28-3.71,18.34-8.71" transform="translate(6.18 -346.45)"/><path class="cls-23" d="M144,433.09a18.29,18.29,0,0,0,5.26,2.76" transform="translate(6.18 -346.45)"/><path class="cls-23" d="M151.82,434.31a34.5,34.5,0,0,0,7.52.95c10.07.19,18.28-3.71,18.33-8.72" transform="translate(6.18 -346.45)"/><path class="cls-23" d="M144.05,430.81a18,18,0,0,0,5.27,2.76" transform="translate(6.18 -346.45)"/><path class="cls-23" d="M151.86,431.89a34.49,34.49,0,0,0,7.51.95c10.07.19,18.28-3.71,18.33-8.72" transform="translate(6.18 -346.45)"/><path class="cls-23" d="M144.09,428.39a17.81,17.81,0,0,0,5.26,2.76" transform="translate(6.18 -346.45)"/><ellipse class="cls-24" cx="159.52" cy="421.06" rx="9.07" ry="18.24" transform="translate(-258.75 224.88) rotate(-88.75)"/><line class="cls-23" x1="164.79" y1="88.66" x2="163.82" y2="87.62"/><path class="cls-23" d="M162.51,435.13a8.86,8.86,0,0,0-.82-.87" transform="translate(6.18 -346.45)"/><path class="cls-23" d="M165.64,434.71l-.82-.85" transform="translate(6.18 -346.45)"/><line class="cls-23" x1="174.72" y1="87.69" x2="173.83" y2="86.93"/><line class="cls-23" x1="177.43" y1="86.7" x2="176.51" y2="86.08"/><path class="cls-23" d="M173.57,431.94a7.06,7.06,0,0,0-.64-.55" transform="translate(6.18 -346.45)"/><line class="cls-23" x1="181.23" y1="84.59" x2="180.71" y2="84.19"/><path class="cls-23" d="M158,437.43a10.16,10.16,0,0,1,1-.75" transform="translate(6.18 -346.45)"/><path class="cls-23" d="M161.25,437.4c.06-.07,1-.65,1-.65" transform="translate(6.18 -346.45)"/><line class="cls-23" x1="171.14" y1="90.68" x2="171.7" y2="90.13"/><line class="cls-23" x1="174.25" y1="90.02" x2="174.69" y2="89.15"/><line class="cls-23" x1="177.06" y1="89.1" x2="177.43" y2="88.25"/><line class="cls-23" x1="179.71" y1="87.99" x2="180.24" y2="86.87"/><line class="cls-23" x1="161.29" y1="88.41" x2="160.5" y2="87.51"/><path class="cls-23" d="M148,433c-.06-.17-.58-1-.58-1" transform="translate(6.18 -346.45)"/><path class="cls-23" d="M145.35,431.7a4.91,4.91,0,0,0-.27-.91" transform="translate(6.18 -346.45)"/><line class="cls-23" x1="160.33" y1="90.63" x2="161.26" y2="90"/><line class="cls-23" x1="153.42" y1="88.46" x2="154.01" y2="88.08"/><path class="cls-23" d="M144.8,433.59a5.78,5.78,0,0,1,.68-.48" transform="translate(6.18 -346.45)"/><path class="cls-25" d="M172.37,421.15V421a.13.13,0,0,1,0-.06v-.06s0-.06,0-.08v0c-.32-1.73-2.31-3.28-5.26-4.29h0l-.47-.16h0l-.48-.14h0l-.5-.13h0a26.26,26.26,0,0,0-6-.78,26.74,26.74,0,0,0-5.68.48h0l-.51.11h0c-.16,0-.33.07-.49.12h0l-.48.13h0c-3.13.89-5.29,2.4-5.66,4.18v0a.19.19,0,0,0,0,.08v.06a.13.13,0,0,0,0,.06.28.28,0,0,0,0,.09v.05a.57.57,0,0,0,0,.13v.14s0,0,0,.06v.06s0,.06,0,.09v0c.23,1.74,2.17,3.31,5.09,4.36h0l.46.15h0l.48.15h0l.5.14h0a25.61,25.61,0,0,0,6.21.84,26.25,26.25,0,0,0,5.93-.54h0a17.44,17.44,0,0,0,2-.53h0c2.83-.93,4.72-2.4,5-4.09v0s0-.06,0-.08a.15.15,0,0,1,0-.07v-.06c0-.05,0-.09,0-.14A.57.57,0,0,0,172.37,421.15Z" transform="translate(6.18 -346.45)"/><path class="cls-26" d="M141.28,420.71c0,.85-.12,8.16-.13,9-.06,5,8.06,9.22,18.14,9.41s18.27-3.71,18.33-8.72c0-.84.12-8.15.13-9,.06-5-8.06-9.23-18.14-9.42S141.34,415.7,141.28,420.71Z" transform="translate(6.18 -346.45)"/><path class="cls-27" d="M172.37,421.15V421a.13.13,0,0,1,0-.06v-.06s0-.06,0-.08v0c-.32-1.73-2.31-3.28-5.26-4.29h0l-.47-.16h0l-.48-.14h0l-.5-.13h0a26.26,26.26,0,0,0-6-.78,26.74,26.74,0,0,0-5.68.48h0l-.51.11h0c-.16,0-.33.07-.49.12h0l-.48.13h0c-3.13.89-5.29,2.4-5.66,4.18v0a.19.19,0,0,0,0,.08v.06a.13.13,0,0,0,0,.06.28.28,0,0,0,0,.09v.05a.57.57,0,0,0,0,.13v.14s0,0,0,.06v.06s0,.06,0,.09v0c.23,1.74,2.17,3.31,5.09,4.36h0l.46.15h0l.48.15h0l.5.14h0a25.61,25.61,0,0,0,6.21.84,26.25,26.25,0,0,0,5.93-.54h0a17.44,17.44,0,0,0,2-.53h0c2.83-.93,4.72-2.4,5-4.09v0s0-.06,0-.08a.15.15,0,0,1,0-.07v-.06c0-.05,0-.09,0-.14A.57.57,0,0,0,172.37,421.15Zm-6.46-3.83c2.24.72,3.86,1.77,4.43,3l-8.3-.15Zm-6.33-1a23.6,23.6,0,0,1,4.27.45l-4.12,3-4.08-3.2A23.61,23.61,0,0,1,159.58,416.35Zm-6,.64,3.89,3.05-8.69-.17C149.36,418.64,151.13,417.62,153.54,417Zm-.58,7.7a9.09,9.09,0,0,1-3.55-2,3,3,0,0,1-.86-1.42l8.84.17Zm6.52,1a24,24,0,0,1-4.49-.49l4.71-3.42,4.52,3.55A24.41,24.41,0,0,1,159.48,425.73Zm10.13-2.61a8.69,8.69,0,0,1-3.38,1.76L162,421.57l8.49.16A3,3,0,0,1,169.61,423.12Z" transform="translate(6.18 -346.45)"/><path class="cls-22" d="M141.28,407.89c0,.85-.12,8.16-.13,9-.06,5,8.06,9.22,18.14,9.42s18.27-3.71,18.33-8.72c0-.85.12-8.16.13-9,.06-5-8.06-9.22-18.14-9.41S141.34,402.89,141.28,407.89Z" transform="translate(6.18 -346.45)"/><path class="cls-23" d="M151.79,423.77a34.49,34.49,0,0,0,7.51,1c10.07.19,18.28-3.71,18.34-8.72" transform="translate(6.18 -346.45)"/><path class="cls-23" d="M144,420.27a17.81,17.81,0,0,0,5.26,2.76" transform="translate(6.18 -346.45)"/><path class="cls-23" d="M151.82,421.49a34.5,34.5,0,0,0,7.52.95c10.07.19,18.28-3.71,18.33-8.72" transform="translate(6.18 -346.45)"/><path class="cls-23" d="M144.05,418a17.75,17.75,0,0,0,5.27,2.76" transform="translate(6.18 -346.45)"/><path class="cls-23" d="M151.86,419.08a35.11,35.11,0,0,0,7.51.95c10.07.19,18.28-3.72,18.33-8.72" transform="translate(6.18 -346.45)"/><path class="cls-23" d="M144.09,415.58a18.29,18.29,0,0,0,5.26,2.76" transform="translate(6.18 -346.45)"/><ellipse class="cls-24" cx="159.52" cy="408.24" rx="9.07" ry="18.24" transform="translate(-245.94 212.34) rotate(-88.75)"/><line class="cls-23" x1="164.79" y1="75.84" x2="163.82" y2="74.8"/><path class="cls-23" d="M162.51,422.32a8,8,0,0,0-.82-.88" transform="translate(6.18 -346.45)"/><path class="cls-23" d="M165.64,421.89l-.82-.85" transform="translate(6.18 -346.45)"/><line class="cls-23" x1="174.72" y1="74.87" x2="173.83" y2="74.12"/><line class="cls-23" x1="177.43" y1="73.88" x2="176.51" y2="73.26"/><path class="cls-23" d="M173.57,419.12a6.82,6.82,0,0,0-.64-.54" transform="translate(6.18 -346.45)"/><line class="cls-23" x1="181.23" y1="71.78" x2="180.71" y2="71.38"/><path class="cls-23" d="M158,424.61a9.83,9.83,0,0,1,1-.74" transform="translate(6.18 -346.45)"/><path class="cls-23" d="M161.25,424.58c.06-.07,1-.65,1-.65" transform="translate(6.18 -346.45)"/><line class="cls-23" x1="171.14" y1="77.86" x2="171.7" y2="77.31"/><line class="cls-23" x1="174.25" y1="77.2" x2="174.69" y2="76.33"/><line class="cls-23" x1="177.06" y1="76.28" x2="177.43" y2="75.43"/><line class="cls-23" x1="179.71" y1="75.17" x2="180.24" y2="74.05"/><line class="cls-23" x1="161.29" y1="75.59" x2="160.5" y2="74.7"/><path class="cls-23" d="M148,420.14c-.06-.16-.58-1-.58-1" transform="translate(6.18 -346.45)"/><path class="cls-23" d="M145.35,418.89a4.91,4.91,0,0,0-.27-.91" transform="translate(6.18 -346.45)"/><line class="cls-23" x1="160.33" y1="77.82" x2="161.26" y2="77.18"/><line class="cls-23" x1="153.42" y1="75.64" x2="154.01" y2="75.26"/><path class="cls-23" d="M144.8,420.77a5.61,5.61,0,0,1,.68-.47" transform="translate(6.18 -346.45)"/><path class="cls-25" d="M172.37,408.33v-.13a.17.17,0,0,1,0-.07v-.06s0-.05,0-.08v0c-.32-1.73-2.31-3.27-5.26-4.29h0l-.47-.15h0l-.48-.14h0l-.5-.13h0a27.14,27.14,0,0,0-11.68-.3h0l-.51.11h0l-.49.12h0l-.48.13h0c-3.13.89-5.29,2.41-5.66,4.18v0a.22.22,0,0,0,0,.08v.06a.17.17,0,0,0,0,.07.22.22,0,0,0,0,.08v0a.66.66,0,0,0,0,.14v.13s0,0,0,.07v.06s0,.06,0,.08v0c.23,1.75,2.17,3.32,5.09,4.36h0l.46.16h0l.48.15h0l.5.14h0a27.38,27.38,0,0,0,12.14.31h0a19.87,19.87,0,0,0,2-.53h0c2.83-.94,4.72-2.4,5-4.1v0s0-.05,0-.08a.13.13,0,0,1,0-.06v-.07s0-.09,0-.13A.66.66,0,0,0,172.37,408.33Z" transform="translate(6.18 -346.45)"/><path class="cls-26" d="M141.28,407.89c0,.85-.12,8.16-.13,9-.06,5,8.06,9.22,18.14,9.42s18.27-3.71,18.33-8.72c0-.85.12-8.16.13-9,.06-5-8.06-9.22-18.14-9.41S141.34,402.89,141.28,407.89Z" transform="translate(6.18 -346.45)"/><path class="cls-27" d="M172.37,408.33v-.13a.17.17,0,0,1,0-.07v-.06s0-.05,0-.08v0c-.32-1.73-2.31-3.27-5.26-4.29h0l-.47-.15h0l-.48-.14h0l-.5-.13h0a27.14,27.14,0,0,0-11.68-.3h0l-.51.11h0l-.49.12h0l-.48.13h0c-3.13.89-5.29,2.41-5.66,4.18v0a.22.22,0,0,0,0,.08v.06a.17.17,0,0,0,0,.07.22.22,0,0,0,0,.08v0a.66.66,0,0,0,0,.14v.13s0,0,0,.07v.06s0,.06,0,.08v0c.23,1.75,2.17,3.32,5.09,4.36h0l.46.16h0l.48.15h0l.5.14h0a27.38,27.38,0,0,0,12.14.31h0a19.87,19.87,0,0,0,2-.53h0c2.83-.94,4.72-2.4,5-4.1v0s0-.05,0-.08a.13.13,0,0,1,0-.06v-.07s0-.09,0-.13A.66.66,0,0,0,172.37,408.33Zm-6.46-3.82c2.24.71,3.86,1.76,4.43,3l-8.3-.16Zm-6.33-1a24.53,24.53,0,0,1,4.27.45l-4.12,3-4.08-3.21A26,26,0,0,1,159.58,403.53Zm-6,.65,3.89,3-8.69-.17C149.36,405.83,151.13,404.8,153.54,404.18Zm-.58,7.7a9.09,9.09,0,0,1-3.55-2,3,3,0,0,1-.86-1.42l8.84.17Zm6.52,1a24,24,0,0,1-4.49-.49L159.7,409l4.52,3.54A23.65,23.65,0,0,1,159.48,412.91Zm10.13-2.61a8.69,8.69,0,0,1-3.38,1.76L162,408.75l8.49.16A2.93,2.93,0,0,1,169.61,410.3Z" transform="translate(6.18 -346.45)"/><path class="cls-28" d="M117.38,406.11c-.2.06-8.28,3-8.28,3s-.62-.93-1.71-2.27c-.54-.67-1.06-1.05-1.46-1.6-.88-1.21-1.78-1.46-2.14-1.21-1,.68,1.58,4.41,1.58,4.41s-7.36-2.78-8.16-1.17,5,2.59,5,2.59-5.14-.87-5.22.7,5.45,1.52,5.32,1.32-5.08.68-4.8,1.74,5.17.39,5.17.39-3.5,2.3-2.48,3.07,4.68-1.71,4.68-1.71a6.44,6.44,0,0,0,3.44-.34,8.66,8.66,0,0,0,2.4-1.43s9.46-2,9.47-2.2Z" transform="translate(6.18 -346.45)"/><path class="cls-28" d="M109.1,409.08s-.62-.93-1.71-2.27c-.54-.67-1.06-1.05-1.46-1.6-.88-1.21-1.78-1.46-2.14-1.21-1,.68,1.58,4.41,1.58,4.41s-7.36-2.78-8.16-1.17,5,2.59,5,2.59-5.14-.87-5.22.7c0,1.08,2.51,1.39,4.09,1.42a3.15,3.15,0,0,1,1.23-.1,3,3,0,0,1-1.23.1c-1.48.26-3.76.91-3.57,1.64.28,1.06,5.17.39,5.17.39s-3.5,2.3-2.48,3.07,4.68-1.71,4.68-1.71a6.44,6.44,0,0,0,3.44-.34,8.66,8.66,0,0,0,2.4-1.43,1.43,1.43,0,0,0,1.1.33,20.16,20.16,0,0,0-1.15-6A3.73,3.73,0,0,0,109.1,409.08Z" transform="translate(6.18 -346.45)"/><path class="cls-28" d="M102.32,411.85a3.15,3.15,0,0,0-1.23.1A3,3,0,0,0,102.32,411.85Z" transform="translate(6.18 -346.45)"/><path class="cls-29" d="M124.67,394.79c-.47,1.74-1.22,7.4-2.27,8.81l-12.89,4.69,2.32,5.61s14.32-3.91,17.51-8.13" transform="translate(6.18 -346.45)"/><path class="cls-30" d="M94.73,405.37l-10.31.8c-7.4.56-12.69,10.12-11.83,21.34s7.56,19.86,15,19.29L97.86,446c7.39-.57,12.69-10.13,11.83-21.35S102.13,404.8,94.73,405.37Z" transform="translate(6.18 -346.45)"/><path class="cls-31" d="M75.49,418.86a29.68,29.68,0,0,0-.54,8.47c.86,11.22,7.56,19.85,15,19.29" transform="translate(6.18 -346.45)"/><path class="cls-31" d="M79.77,409.78A18.64,18.64,0,0,0,76.3,416" transform="translate(6.18 -346.45)"/><path class="cls-31" d="M78.14,418.65a29.77,29.77,0,0,0-.54,8.48c.86,11.22,7.56,19.85,15,19.28" transform="translate(6.18 -346.45)"/><path class="cls-31" d="M82.42,409.57A18.79,18.79,0,0,0,79,415.78" transform="translate(6.18 -346.45)"/><path class="cls-31" d="M81,418.43a29.41,29.41,0,0,0-.54,8.48c.86,11.22,7.55,19.85,15,19.28" transform="translate(6.18 -346.45)"/><path class="cls-31" d="M85.28,409.35a18.79,18.79,0,0,0-3.47,6.21" transform="translate(6.18 -346.45)"/><ellipse class="cls-32" cx="96.29" cy="425.69" rx="13.43" ry="20.38" transform="translate(-26.16 -337.81) rotate(-4.4)"/><path class="cls-16" d="M103.55,418.75h0c-.07-.19-.15-.37-.22-.55v0c-.07-.18-.15-.36-.23-.53v0c-.07-.17-.16-.34-.24-.51h0c-1.67-3.37-4.15-5.59-6.82-5.77h-.76l-.2,0h-.19l-.12,0h0c-2.56.48-4.65,2.84-5.86,6.21h0l-.18.54h0c-.06.18-.11.36-.17.55h0l-.15.57h0a22.42,22.42,0,0,0-.54,7,22.9,22.9,0,0,0,1.47,6.53h0a17.17,17.17,0,0,0,1,2.11h0c1.7,3,4.08,5,6.61,5h.57l.2,0h.08l.12,0,.09,0H98l.12,0h0c2.52-.57,4.58-3,5.74-6.38h0c.06-.18.12-.36.17-.54v0c.05-.18.11-.36.16-.55v0c0-.19.1-.37.14-.56v0a22.2,22.2,0,0,0,.47-6.77A22.43,22.43,0,0,0,103.55,418.75Z" transform="translate(6.18 -346.45)"/><line class="cls-31" x1="83.92" y1="79.85" x2="85.34" y2="78.64"/><path class="cls-31" d="M78.14,430.64a11.4,11.4,0,0,0,1.2-1" transform="translate(6.18 -346.45)"/><path class="cls-31" d="M79.13,434.07l1.16-1" transform="translate(6.18 -346.45)"/><line class="cls-31" x1="86.48" y1="90.77" x2="87.5" y2="89.69"/><line class="cls-31" x1="88.25" y1="93.66" x2="89.06" y2="92.56"/><path class="cls-31" d="M84.12,442.53a8.3,8.3,0,0,0,.73-.78" transform="translate(6.18 -346.45)"/><line class="cls-31" x1="91.79" y1="97.62" x2="92.33" y2="96.99"/><path class="cls-31" d="M75,425.86a11.62,11.62,0,0,1,1.21,1" transform="translate(6.18 -346.45)"/><path class="cls-31" d="M75.37,429.47c.11.06,1.08,1,1.08,1" transform="translate(6.18 -346.45)"/><line class="cls-31" x1="82.38" y1="87.13" x2="83.25" y2="87.68"/><line class="cls-31" x1="83.71" y1="90.5" x2="85.04" y2="90.88"/><line class="cls-31" x1="85.38" y1="93.5" x2="86.68" y2="93.81"/><line class="cls-31" x1="87.32" y1="96.31" x2="89.04" y2="96.76"/><line class="cls-31" x1="83.89" y1="75.93" x2="85.13" y2="74.94"/><path class="cls-31" d="M79.71,414.24c.23-.08,1.42-.76,1.42-.76" transform="translate(6.18 -346.45)"/><path class="cls-31" d="M81.26,411.13a8.69,8.69,0,0,0,1.31-.41" transform="translate(6.18 -346.45)"/><line class="cls-31" x1="81.22" y1="75.1" x2="82.25" y2="76.06"/><line class="cls-31" x1="83.63" y1="67.14" x2="84.26" y2="67.75"/><path class="cls-31" d="M79.13,410.71a8,8,0,0,1,.77.7" transform="translate(6.18 -346.45)"/><path class="cls-33" d="M103.91,433.51c.07-.17.12-.35.18-.54h0c.06-.18.11-.37.16-.55v0c0-.19.09-.38.14-.57h0a22.53,22.53,0,0,0,.48-6.77,23,23,0,0,0-1.36-6.25h0c-.07-.18-.14-.37-.22-.55h0c-.08-.18-.15-.36-.23-.53v0l-.24-.51h0c-1.68-3.38-4.15-5.59-6.82-5.78h-.77l-.19,0-.1,0h-.09l-.13,0h0c-2.55.48-4.65,2.84-5.85,6.21h0c-.06.17-.13.35-.18.53v0c-.05.18-.11.36-.16.54v0c-.06.18-.11.37-.16.57h0a23.2,23.2,0,0,0,.94,13.54h0a17.87,17.87,0,0,0,1,2.11h0c1.7,3,4.08,4.94,6.62,5h.56l.2,0h.2l.1,0,.09,0,.11,0h.06c2.52-.57,4.57-3,5.73-6.39Zm-.66-8.34a20.46,20.46,0,0,1-.17,4.8l-4.88-4.2,4.26-4.95A20.23,20.23,0,0,1,103.25,425.17Zm-1.64-6.63-4,4.69-.74-9.67C98.7,414.1,100.42,415.93,101.61,418.54Zm-8.93-3.88a4.65,4.65,0,0,1,2-1.13l.76,9.85-5.25-4.53A9.68,9.68,0,0,1,92.68,414.66Zm-3.29,11.57a20.87,20.87,0,0,1,.22-5.05L95.19,426l-4.72,5.47A20.89,20.89,0,0,1,89.39,426.23Zm2,7.4,4.41-5.11.72,9.46a4.82,4.82,0,0,1-2.14-.81A9.44,9.44,0,0,1,91.42,433.63Zm7.25,4L98,428.38l4.58,3.95C101.74,434.91,100.37,436.84,98.67,437.62Z" transform="translate(6.18 -346.45)"/><path class="cls-34" d="M94.73,405.37l-10.31.8c-7.4.56-12.69,10.12-11.83,21.34s7.56,19.86,15,19.29L97.86,446c7.39-.57,12.69-10.13,11.83-21.35S102.13,404.8,94.73,405.37Z" transform="translate(6.18 -346.45)"/><path class="cls-29" d="M148.73,431c1.17,1.6.93,4.08,1.1,6a7.88,7.88,0,0,1,1.49-.35c1.29.69,1.74,4.3,3,6.34.55.94,2.07.86,3.19.3-.61-4.86-2.46-11.14-4.18-14.16C152.22,429.54,150.41,430.35,148.73,431Z" transform="translate(6.18 -346.45)"/><path class="cls-28" d="M157.32,434.69c-.59-2.07-1.57-6.11-3.25-5.82a5.28,5.28,0,0,0-.79.26c1.72,3,3.57,9.3,4.18,14.16a2.92,2.92,0,0,0,.95-.71C159,441.89,157.92,436.76,157.32,434.69Z" transform="translate(6.18 -346.45)"/><path class="cls-29" d="M126.13,445.48a15,15,0,0,0-.55-4.59c0-.19-.11-.46-.17-.8a12.46,12.46,0,0,1-6.71-.12,1.55,1.55,0,0,1,0,.33c-.24,1.08-5.56,1.72-8,3a2.62,2.62,0,0,0-1.12,2.52C114.34,446.58,120.86,446.21,126.13,445.48Z" transform="translate(6.18 -346.45)"/><path class="cls-28" d="M109.5,445.85a2.76,2.76,0,0,0,.39,1.51c.91,1,5.72.89,7.89.69s3.06-.49,4.25-.49,3.35.3,3.84-.79a3.57,3.57,0,0,0,.26-1.29C120.86,446.21,114.34,446.58,109.5,445.85Z" transform="translate(6.18 -346.45)"/><path class="cls-29" d="M140.67,434.08s2.11-7.76,2.3-10.22-11.22-1.6-11.22-1.6-.68,15.47,2.38,18.43c2.74,2.65,13.4-1.25,16.33-2-.17-2-.73-6.85-1.9-8.45A57,57,0,0,0,140.67,434.08Z" transform="translate(6.18 -346.45)"/><path class="cls-29" d="M145.8,415.85a19.14,19.14,0,0,0,.08-8.62c-1.53-6.18-2.9-10.51-5.51-14-2.88-3.8-5.87-4.8-7.59-4.91-3.67-.25-5.63,2.33-6.94,4.82a12.09,12.09,0,0,0-1.23,5.3c-.06,2.63-.11,1.53.62,4.68s3.86,5.7,4.33,8a23.76,23.76,0,0,1,.89,4.93c-4.59-.22-13,.05-13.67,2.63-1.21,4.57,1.09,19.26,1,21.87a22.76,22.76,0,0,0,9.09.36c.13-3.48-1.53-16.4-1.53-16.4s11.05,2.32,17.2.84C146.69,424.34,146.79,419.63,145.8,415.85Z" transform="translate(6.18 -346.45)"/><path class="cls-28" d="M112.93,373.62c-4.51,2.35-1.85,10.87-1.79,11.18a38.82,38.82,0,0,1-.56,5.32l3.64-.22s3.17,5.47,6.63,4.35a13.9,13.9,0,0,0,8.21-7.09C134.53,377.17,125.4,367.11,112.93,373.62Z" transform="translate(6.18 -346.45)"/><path class="cls-35" d="M115.86,380.37c4.18-.59,5.92,4.62,5.92,4.62l1-.45s.15-3.24,1.85-3.55c1.26-.23,5.45,5.19,5.45,5.19a10.81,10.81,0,0,0,1.19-3.35c1-4.24-.16-11-6.21-13.48-3-1.2-7.46.06-9.44,1.14a8.85,8.85,0,0,0-3.81,3.41C110.21,376.08,110,381.21,115.86,380.37Z" transform="translate(6.18 -346.45)"/><circle class="cls-2" cx="121.34" cy="38.33" r="0.76"/><path class="cls-28" d="M117.58,391.27a2.53,2.53,0,0,0,3-1.29" transform="translate(6.18 -346.45)"/><path class="cls-28" d="M123,383a2.26,2.26,0,0,1,2.08-2.19,2.48,2.48,0,0,1,.09,4.91,1.31,1.31,0,0,1-.28,0" transform="translate(6.18 -346.45)"/><path class="cls-28" d="M116.71,413.17c-.2.07-8.14,3.34-8.14,3.34s-.67-.91-1.81-2.19c-.57-.65-1.11-1-1.53-1.54-.93-1.17-1.85-1.38-2.19-1.11-.92.72,1.77,4.34,1.77,4.34s-7.48-2.45-8.2-.8,5.12,2.36,5.12,2.36-5.18-.64-5.18.93,5.51,1.27,5.38,1.08-5.05.9-4.73,1.95,5.19.16,5.19.16-3.4,2.46-2.34,3.18,4.6-1.92,4.6-1.92a6.46,6.46,0,0,0,3.42-.49,8.71,8.71,0,0,0,2.33-1.54s9.36-2.43,9.36-2.63Z" transform="translate(6.18 -346.45)"/><path class="cls-28" d="M108.39,416.26s-.49-.66-1.63-1.94c-.57-.65-1.11-1-1.53-1.54-.93-1.17-1.85-1.38-2.19-1.11-.92.72,1.77,4.34,1.77,4.34s-7.48-2.45-8.2-.8,5.12,2.36,5.12,2.36-5.18-.64-5.18.93c0,1.08,2.54,1.12,4.12,1.07.58,0,1.26,0,1.26,0s-.46.12-1.21.27c-1.48.33-3.74,1-3.52,1.68.33,1.06,5.19.16,5.19.16s-3.4,2.46-2.34,3.18,4.6-1.92,4.6-1.92a6.46,6.46,0,0,0,3.42-.49,9.54,9.54,0,0,0,2.26-1.41,16.25,16.25,0,0,0,2.35-.2c-.05-2-1.47-4.67-2-5.86A18.11,18.11,0,0,0,108.39,416.26Z" transform="translate(6.18 -346.45)"/><path class="cls-28" d="M118.16,440.53s2.71,2.57,1.73,3.21-2.07-.92-2.07-.92.34,1.49-.58,1.49-2.47-1.49-2.3-2.24,2.53-1.46,2.88-1.5" transform="translate(6.18 -346.45)"/><path class="cls-28" d="M151.1,436.85s2.62-2.66,3.24-1.68-1,2.06-1,2.06,1.5-.32,1.49.6-1.54,2.45-2.28,2.27-1.42-2.56-1.45-2.9" transform="translate(6.18 -346.45)"/><path class="cls-28" d="M124.58,384.16c0-.37,0-1.3.26-1.36" transform="translate(6.18 -346.45)"/><path class="cls-29" d="M133.81,415.42s4.15,2.19,7.72,2" transform="translate(6.18 -346.45)"/><path class="cls-28" d="M125.38,424.49s-.08-1.69-.15-2.53" transform="translate(6.18 -346.45)"/><path class="cls-28" d="M140.67,434.08s-.63,1.54-.78,1.85" transform="translate(6.18 -346.45)"/><path class="cls-29" d="M109.83,379.63s-.25-6.29.3-7.59c.82-1.94,12.21-5.58,15.11-5.06s5.73,8.41,5.73,8.41-10.87,3.64-12.73,4.16S109.83,379.63,109.83,379.63Z" transform="translate(6.18 -346.45)"/><path class="cls-29" d="M109.83,379.63l-6.55,5.06s1.34.22,4.54.59,11.47-4.91,11.54-5.8C119.36,379.48,112.51,377.69,109.83,379.63Z" transform="translate(6.18 -346.45)"/><path class="cls-29" d="M130,385.76s-7.94,7.85-7.68,8a31.67,31.67,0,0,1,1.9,2.76l8.54-8.19Z" transform="translate(6.18 -346.45)"/><path class="cls-29" d="M125.38,397.8c-1.09,3.75-1.13,10-2.26,11.11-.47.46-12.31,5.67-12.31,5.67l1.87,6.27s13.56-3.74,15.78-4.91c2-1.07,4.27-4.19,7.16-10.95" transform="translate(6.18 -346.45)"/><path class="cls-28" d="M126.57,403.35c.43,0,4.74.95,4.74.95l-1.47,4.22-4.31-.94Z" transform="translate(6.18 -346.45)"/><path class="cls-29" d="M114.6,370.18s.29,7.14.52,8.52" transform="translate(6.18 -346.45)"/></g></g></svg>