<?xml version="1.0" encoding="UTF-8"?><svg xmlns="http://www.w3.org/2000/svg" width="133" height="147.17" xmlns:xlink="http://www.w3.org/1999/xlink" viewBox="0 0 133 147.17"><defs><style>.e,.f,.g,.h,.i,.j,.k{stroke:#231815;stroke-linecap:round;stroke-linejoin:round;}.e,.g,.h,.i,.k{stroke-width:1.46px;}.e,.j{fill:#f9be00;}.f{fill:#b4b4b5;stroke-width:1.15px;}.l{clip-path:url(#d);}.g{fill:#dbdcdc;}.m,.h,.n{fill:none;}.i{fill:#fff;}.o{fill:#231815;}.j{stroke-width:1.5px;}.k{fill:#e5e5e6;}.n{stroke:#000;stroke-width:1.97px;}</style><clipPath id="d"><rect class="m" width="133" height="130"/></clipPath></defs><g id="a"/><g id="b"><g id="c"><g class="l"><g><path class="i" d="M32.46,86.48s-5.51-16.58-6.96-24.36l-10.24,1.99,5.38,25.33,11.82-2.96Z"/><g><path class="i" d="M24.13,65.35s2.34-1.14,3.17-4.1c.66-2.34,1.37-4.27,.4-6.74-1.46-3.68-3.94-4.62-4.28-5.71-.34-1.09-1.12-7.19-2.66-12.74-.56-2-1.51-3.4-2.49-3.29-1.13,.12-1.78,1.47-1.22,4.66,.64,3.61,.88,8.73,.88,8.73,0,0-1.41-1.03-3.07,.4-1.1,.95-.68,2.95-.68,2.95,0,0-1.61-.49-2.6,.06-1.53,.86-.77,3.06-.77,3.06,0,0-2.44-.04-2.78,2.13-.27,1.68,1.44,6.85,3.43,9.01,2.64,2.87,5.1,2.89,5.1,2.89"/><path class="i" d="M10.49,58.41s2.79,2.88,3.78,2.57c1.95-.62,1.09-1.86,1.09-1.86"/><path class="i" d="M17.96,56.92c0,1.42-1.86,1.6-2.63,1.85-.55,.18-4.32-5.66-4.32-5.66"/><path class="i" d="M18.13,46.64s2.25,6.67,2.22,8.22c-.03,1.36-1.99,2.23-2.56,1.51-.58-.72-3.32-6.82-3.32-6.82"/></g><path class="i" d="M25.45,53.28s-1.31-1.37-2.65-1.71c-1.06-.27-6.68,.48-7.47,.92-1.01,.57,.09,2.41,2.19,2.81,1.2,.23,4.58,.83,4.58,.83,0,0-1.07,3.31-.27,5.42"/><path class="e" d="M102.82,82.75c-.13-3.09,1.09-15.67-4.04-19.44-3.22-2.37-16.58-4.67-16.52-4.71,.85-.62-12.84-.69-23.3,.42-4.85,.51-12.38,2.19-15.45,6.06-3.07,3.87-7.84,21.35-7.84,21.35l-5.98-19.93-17.42,5.5s7.64,25.04,9.63,31.44c4.34,13.92,15.97,16.7,23.43-3.7,.57,6.4,3.86,43.51,3.47,44.28-.39,.78,11.25,2.66,19.22,2.43,14.99-.43,30.33-2.36,30.33-2.36,0,0,.9-29.5,.75-30.08,1.89,1.24,3.96-25.44,3.73-31.24Z"/><rect class="i" x="62.44" y="48.77" width="16.09" height="12.51"/><line class="e" x1="45.33" y1="99.72" x2="44.26" y2="84.51"/><line class="g" x1="35.68" y1="86.42" x2="36.91" y2="89.56"/><path class="e" d="M100.89,65.74c1.2,3.15,7.62,22.04,10.13,33.51,.62,2.83,1.54,7.98,1.19,12.35-.18,2.24-1.52,7.81-5.81,8.65-6.85,1.34-21.46-9.68-21.46-9.68"/><g><line class="n" x1="17.92" y1="19.76" x2="17.92" y2="25"/><line class="n" x1="10.45" y1="22.18" x2="13.98" y2="26.05"/><line class="n" x1="25.38" y1="22.18" x2="21.85" y2="26.05"/></g><polygon class="e" points="78.98 53.38 69.89 61.43 77.19 71.11 83.6 58.75 78.98 53.38"/><polygon class="e" points="62.62 54.91 69.15 61.43 61.69 70.96 58.42 59.64 62.62 54.91"/><polygon class="k" points="46.15 67.4 85.3 68.83 90.05 117.16 51.37 116.05 46.15 67.4"/><polygon class="i" points="75.14 68.46 75.52 74.38 56.62 73.61 56.03 67.75 75.14 68.46"/><g><path class="i" d="M96.82,96.75c-.19-1.49-1.49-6.87-5.02-8.73-3.28-1.72-4.7-2.25-4.7-2.25l.43,3.97c-.45-.15-1.63-.79-2.74-1.2-1.25-.45-2.69-.88-4.51-.89-3.16-.03-4.74-.42-4.74,1.39,0,.96,1.63,2.14,3.89,2.36,2.35,.23,4.37,1.15,3.96,1.07-.75-.15-7.7-1.24-8.3,.84-.6,2.09,8.65,2.98,8.65,2.98,0,0-7.27-1.59-6.97,1.09,.13,1.18,2.38,2.26,4.07,2.44,2.15,.22,4.55,.35,4.55,.35,0,0-7.47-.16-6.5,2.53,.25,.7,2.3,1.04,4.04,1.16,1.75,.12,3.49,.46,3.49,.46,0,0-.19,4.5,3.44,5.08,4.16,.66,4.84-.94,5.67-2.53,.65-1.25,1.62-7.53,1.3-10.12Z"/><line class="i" x1="87.99" y1="89.93" x2="89.99" y2="91.09"/><path class="i" d="M83.72,92.48s2.18,.6,2.46,.7"/><line class="i" x1="83.74" y1="96.29" x2="87.02" y2="96.75"/><line class="i" x1="85.38" y1="100.16" x2="87.62" y2="100.47"/></g><line class="e" x1="96.82" y1="96.75" x2="102.45" y2="97.84"/><g><path class="i" d="M84.72,43.85c2.91,.48,6.38-2.63,6.49-6.62,.07-2.5-3.36-4.71-5.52-2.81-.79,.7-1.71,1.79-2.02,2.3"/><path class="i" d="M87.4,38.09c-.6,.27-1.35,.66-1.55,1.65"/><path class="i" d="M55.45,43.67c-2.91,.48-6.38-2.63-6.49-6.62-.07-2.5,3.36-4.71,5.52-2.81,.79,.7,1.71,1.79,2.02,2.3"/><path class="i" d="M52.68,37.91c.6,.27,1.35,.66,1.55,1.65"/><path class="i" d="M52.45,25.43c-.58,3.96,.86,10.45,1.61,15.95,1.98,14.44,11.87,17.13,15.36,16.95,7.91-.41,13.77-6.16,15.61-15.05,.96-4.62,1.98-12.42,.18-17.54-1.8-5.12-8.05-18.11-20.24-10.5-7.15,4.46-11.47,3.04-12.52,10.2Z"/><path class="i" d="M74.18,48.32s-1.25,2.49-4.81,2.49c-3.12,0-4.27-2.22-4.27-2.22"/><path class="i" d="M67.95,42.76l-1.6-1.33s.87-4.19,1.07-6.14"/><path class="o" d="M77.42,33.74c.25,.66-.09,1.39-.75,1.64-.66,.25-1.39-.09-1.64-.75-.25-.66,.09-1.39,.75-1.64,.66-.25,1.39,.09,1.64,.75Z"/><path class="o" d="M62.55,33.99c.25,.66-.09,1.39-.75,1.64-.66,.25-1.39-.09-1.64-.75-.25-.66,.09-1.39,.75-1.64,.66-.25,1.39,.09,1.64,.75Z"/><path class="f" d="M53.88,28.75c-.56,3.92-.62,9.78-.62,9.78,0,0-1.74-6.19-1.74-10.16,0-5.32,.89-12.06,4.81-14.59,2.45-1.59,7.89-4.37,10.81-5.12,4.74-1.22,10.06-.25,13.59,2.07,3.95,2.59,3.7,6.27,3.7,6.27,0,0,.33-1.73,1.41,1.77,3.92,12.73-.56,21.6-.26,21.28,0,0,.76-5.87-2.67-9.87-3.61-4.21-4.52-9.98-4.27-13.3,0,0-5.57,8.74-14.03,12.32,0,0,2.53-6.03,1.84-8.89,0,0-6.97,3.95-9.41,7.63l1.66-7.37s-4.27,4.45-4.81,8.19Z"/><path class="h" d="M82.9,19.23c-.07,2.54,1.21,5.35,3.2,7.25"/><path class="h" d="M67.86,10.65c-1.78,.8-8.28,3.28-9.26,4.36"/><path class="h" d="M63.14,16.7c1.45-.85,7.46-3.48,8.81-4.36"/></g><path class="e" d="M51,28.4s-.58-12.41,4.55-20.33c2.46-3.8,26.04-4.91,29.28,.78,2.41,4.23,3.12,20.7,3.12,20.7l-17.61-12.06-19.34,10.91Z"/><path class="e" d="M51.26,28.72c.45,.55,.89,1.34,4.62,1.34,5.66,0,7.3-7.94,13.71-7.94s10.13,7.99,13.56,7.99,4.75-.25,4.75-.25c0,0-3.41-13.4-18.31-13.4s-18.33,12.26-18.33,12.26Z"/><ellipse class="i" cx="69.5" cy="11.22" rx="6.33" ry="2.98"/><path class="h" d="M99.95,78.71c-1.6-5.32-2.69-10.5-3.09-11.41-1.04-2.38-14.6-4.84-14.6-4.84"/><path class="h" d="M99.69,102.23s3.73,1.79,5.36,1.04c1.64-.74,.6-5.21,.6-5.21,0,0-.64-2.21-1.59-5.44"/><path class="h" d="M58.56,61.8s-10.62,1.99-11.77,3.35c-4.07,4.82-10.37,24.87-9.88,24.41"/><line class="j" x1="14.75" y1="78.4" x2="31.15" y2="72.97"/><path class="h" d="M98.2,97.76c1.64,5.51,2.24,16.53-4.47,18.02"/><polyline class="h" points="104.31 76.76 96.56 80.34 99.69 89.57 106.4 93 108.34 90.02"/><line class="e" x1="68.55" y1="117.27" x2="69.59" y2="143.92"/><path class="o" d="M61.72,71.06c0,.37-.3,.67-.67,.67s-.67-.3-.67-.67,.3-.67,.67-.67,.67,.3,.67,.67Z"/><path class="o" d="M71.19,71.51c0,.37-.3,.67-.67,.67s-.67-.3-.67-.67,.3-.67,.67-.67,.67,.3,.67,.67Z"/><path class="h" d="M98.65,84.81c.22,0,7.15-2.75,7.15-2.75"/></g></g></g></g></svg>