<?xml version="1.0" encoding="UTF-8"?><svg xmlns="http://www.w3.org/2000/svg" width="18" height="18" viewBox="0 0 18 18"><defs><style>.e{fill:#0075cc;}</style></defs><g id="a"/><g id="b"><g id="c"><g id="d"><path class="e" d="M9,0C4.03,0,0,4.03,0,9s4.03,9,9,9,9-4.03,9-9S13.97,0,9,0Zm5.27,9.92l-3.14,3.4c-.23,.25-.55,.38-.87,.38-.29,0-.57-.1-.8-.31-.48-.44-.51-1.19-.07-1.67l1.31-1.42H3.51c-.65,0-1.18-.53-1.18-1.18s.53-1.18,1.18-1.18h7.38l-1.54-1.84c-.42-.5-.35-1.24,.15-1.66,.5-.42,1.24-.35,1.66,.15l3.16,3.78c.38,.45,.36,1.12-.04,1.56Z"/></g></g></g></svg>