<?xml version="1.0" encoding="UTF-8"?><svg xmlns="http://www.w3.org/2000/svg" width="198" height="138.18" xmlns:xlink="http://www.w3.org/1999/xlink" viewBox="0 0 198 138.18"><defs><style>.f{stroke:#fff;}.f,.g,.h,.i,.j,.k,.l,.m,.n,.o{stroke-linecap:round;stroke-linejoin:round;}.f,.k,.p{fill:none;}.f,.o{stroke-width:.88px;}.q,.h,.o{fill:#fff;}.g{fill:#f9be00;}.g,.h,.i,.j,.k,.l,.m,.n,.o{stroke:#231815;}.g,.h,.i,.k,.l,.m,.n{stroke-width:1.17px;}.i{fill:#e6e6e6;}.j{fill:#b4b4b5;stroke-width:1.14px;}.r{clip-path:url(#e);}.s{clip-path:url(#d);}.l{fill:#bebfbf;}.m{fill:#5084c4;}.t{fill:#231815;}.n{fill:#eeeeef;}</style><clipPath id="d"><rect class="p" y="6.65" width="115.6" height="102.35"/></clipPath><clipPath id="e"><rect class="p" x="99.2" width="98.8" height="109"/></clipPath></defs><g id="a"/><g id="b"><g id="c"><g class="s"><g><path class="h" d="M85.2,97.38s1.67,5.49,2.29,14.68c.5,7.43,.46,25.54,.46,25.54h-25.43s-5.9-35.45-2.88-40.52l25.57,.31Z"/><path class="h" d="M91.57,85.94c-.1,.39,5.19,7.38,6.17,8.94l-2.66,3.54s-8.18-6.24-9.35-9.75"/><path class="h" d="M94.61,97.71s.79,1.83,4.94,3.78c2.52,1.18,3.7,1.12,3.8,.63,.1-.49-2.05-3.02-2.05-3.02,0,0,6.26-.32,8.28-.58,1.85-.24,1.12-1.46,.61-1.73-.44-.23-1.16-.17-1.16-.17,0,0,1.65-.06,1.17-1.14-.24-.55-1.52-.42-1.52-.42,0,0-.03-.55-.53-.7-.33-.09-1.64-.23-1.64-.23,0,0-.49-.39-.99-.39-1.36,0-5.73,.05-8.38,.47"/><path class="i" d="M59.63,59.12c1.87-1.82,4.96-2.62,7.68-3.11,2.73-.49,12.99-.26,14.64,.71,1.66,.97,3.92-.6,5.78,2.99,2.27,4.39,2.49,18.77,2.99,20.41,.45,1.49,2.6,5.91,2.6,5.91,0,0-.1,2.31-2.34,3.38-2.24,1.07-5.13,1.36-5.13,1.36l-2.07-4.4s-.48,3.17,.78,6.19c1.27,3.02,2.28,4.5,2.28,4.5,0,0-2.11,3.26-11.46,3.26-8.18,0-16.92-1.95-16.92-1.95,0,0,3.73-7.01,2.08-12.64-1.73-5.9-.36-7.21,3.17-8.18,1.22-.34-9.09-13.55-4.08-18.44Z"/><path class="h" d="M66.11,56.54s3.71,2.42,7.6,7.21c1.95,2.4,5.19,7.08,5.19,7.08,0,0,2.6-3.96,3.64-7.21,.77-2.41,1.49-6.5,1.49-6.5l-8.31-.62-9.61,.03Z"/><path class="h" d="M80.66,46.53c-.39,.29-2.27,7.15-.65,8.58,1.1,.97,2.99,1.88,4.03,2.01,0,0-.58,3.42-6.83,3.47-6.24,.05-11.09-4.05-11.09-4.05,0,0,4.26-.84,5.72-4.16,1.46-3.31,1.95-8.31,1.95-8.31l6.87,2.46Z"/><path class="k" d="M86.77,69.06s1.71,3.74,.59,8.05c-.75,2.87-2.36,5.21-3.58,9.28"/><path class="j" d="M80.48,18.18c2.34-.39,7.98,.66,9.08,4.94,1.66,6.43-.37,13.68,3.11,15.1,2.08,.84,4.22-1.1,4.22-1.1,0,0-.39,6.11-4.67,6.89-4.29,.78-5.68-2.01-6.36-2.79-.68-.78-5.37-23.02-5.37-23.02Z"/><path class="h" d="M85.07,22.78c2.88,3.45,2.48,6.18,3.51,9.75,1.3,4.52,2.88,9.41,.15,13.7-1.05,1.65-4.47,4.66-9.99,4.24-5.86-.45-11.49-3.31-12.66-7.99-1.17-4.68-1.66-13.55,1.66-16.57,3.31-3.02,13.83-7.31,17.34-3.12Z"/><path class="j" d="M83.9,19.04c.06,1.88,.02,4.21-4.11,8.27-2.98,2.93-4.44,3.32-4.44,3.32l-.41-3.77s-1.4,4.25-2.52,5.62c-.98,1.2-1.64,2.16-3.12,2.98,0,0,1.27,4.01,1.42,7.52,.17,4.12-2.74,7.01-5.18,7.36-5.8,.84-9.07-2.04-9.07-2.04,0,0,4.88-3.49,3.42-7.77-1.46-4.29-4.16-13.61,.65-18.94,3.31-3.67,7.11-3.8,7.11-3.8,0,0,4.12-3.64,8.99-3.64s7.21,2.99,7.27,4.87Z"/><path class="h" d="M85.07,34.95c.88,1.07,2.43,1.66,2.43,1.66l-1.66,1.75"/><path class="h" d="M79.16,44.95c.78,1.61,4.2,1.91,5.34-.24"/><path class="t" d="M78.13,34.79c0,.54-.44,.97-.97,.97s-.97-.44-.97-.97,.44-.97,.97-.97,.97,.44,.97,.97Z"/><circle class="t" cx="85.51" cy="32.14" r=".97"/><path class="f" d="M71.18,22.35c.19,2.34-1.3,6.85-3.44,8.09"/><path class="f" d="M66.5,23.91c.06,2.27-1.2,4.72-3.21,5.89"/><polyline class="h" points="63 89.55 58.71 103.33 52.74 102.16 55.47 89.03"/><path class="h" d="M58.8,102.29s.89,3.31,.6,6.71c-.25,2.99-.42,4.13-1.26,4.13-.37,0-.94-.85-.97-1.74-.03-1.36-.37-2.87-.64-2.87-.48,0-1.91,5.27-2.99,6.59-1.08,1.32-1.91,.12-1.91,.12,0,0-1.48,.65-2.08,.41-.6-.24-1.51-.65-1.63-1.85-.12-1.2,.72-5.39,1.79-7.9,1.08-2.51,3.59-4.67,3.59-4.67"/><path class="i" d="M59.37,59.36c-4.3,4.43-3.35,23.75-5.89,30.77,0,0,3.12,1.63,5.07,1.92,1.95,.29,4.78,.29,4.78,.29l2.93-15.44"/><path class="h" d="M103.33,96.83c1.38-.05,5.03-.2,5.87-.23"/><line class="h" x1="103.34" y1="95.13" x2="108.44" y2="95.05"/><path class="h" d="M51.62,115.23c.27-.07,1.18-3.69,1.44-4.7"/><path class="h" d="M49.9,115.35s1.24-4.85,1.27-5.24"/><path class="o" d="M48.5,114.63s1.11-4.59,1.14-4.89"/><path class="f" d="M66.37,39.77c.44,.78,.88,5.33-1.42,6.3"/></g><g><g><path class="h" d="M48.41,109.91l.68,6.29s-1.27,1.47-1.17,2.93c.18,2.6,1.11,3.7,2.37,5.18,1.11,1.3,2.37,2.54,2.96,1.24,.59-1.3-1.11-3.44-1.11-3.44,0,0,2.06,1.31,2.67,2.39,.61,1.08,1.42,2.75,2.31,3.32,1.37,.88,1.53-1.07,1.53-1.07,0,0,.67,.73,1.27,.62,.6-.11,.52-1.27,.52-1.27,0,0,.59,.38,1.14,.33,.27-.03,.65-.78,.65-.78,0,0,.46-.29,.52-.91,.07-.65-1.14-3.8-2.93-6.12-1.79-2.32-3.87-3.94-3.87-3.94l-1.2-5.28"/><path class="h" d="M58.66,126.75s-.83-2.25-1.07-2.64l-1.46-2.35"/><path class="h" d="M57.95,121.06c.2,.05,1.56,2.64,1.71,2.98,.15,.34,.8,2.05,.8,2.05"/><path class="h" d="M61.98,125.71c-.13-.75-1.62-4.13-2.15-4.79"/></g><polygon class="l" points="49.23 108.87 46.49 137.4 16.99 137.23 17.76 108.07 49.23 108.87"/><path class="i" d="M58.47,114.4l-4.82-24.63s-1.11-16.61-1.63-24.76c-.26-6.38-2.82-9.23-7.78-11.08-.52-.19-3.26-1.52-4.39-1.56-.33,1.83-5.86,7.56-5.86,7.56,0,0-4.89-3.76-8.54-6.56-.88,.11-1.69,.23-2.42,.33,0,0-8.89,4.32-11.56,6.68-2.67,2.36-3.85,4.51-4.23,8.27-.41,4.06-4.21,23.79-4.23,26.97-.03,6.42,6.12,9.84,10.67,14.01l-.78,12.9c.67,.22,9.14,1.09,16.5,1.21,2.15,.03,8.88-.23,8.88-.23,0,0,1.26-3.43,1.69-8.73,.92,5.78,2.21,8.14,2.21,8.14,0,0,11.25-1.98,11.03-2.05-.08-.03-.2-2.81-.34-4.69l5.58-1.79Z"/><circle class="h" cx="36.34" cy="69.58" r="1.24"/><path class="h" d="M37.93,46.67s-1.08,8.27-.26,9.36l-1.99,8.01-3.64-5.02s-7.17-5.86-7.3-5.86c-.21,0,2.05-6.91,2.05-6.91"/><path class="i" d="M36.47,49.38s.75,3.19,.85,5.08c.2,3.78-1.63,9.58-1.63,9.58l4.82-5.41,5.4,1.95s-2.96-8.18-5.27-9.58c-2.31-1.4-4.17-1.63-4.17-1.63Z"/><path class="n" d="M25.56,48.45s1.25,4.37,2.84,6.28c1.79,2.15,3.64,4.3,3.64,4.3l-6.25,5.21c.18,.49-2-2.22-3.32-5.15-1.11-2.46-1.56-5.21-1.56-5.21l4.65-5.43Z"/><path class="h" d="M25.36,104.56l3.65,2.74c2.44-1.02,4.43-.98,5.6-1.47,1.66-.68,3.75-1.83,3.68-.13-.04,1.07-2.76,3.46-2.76,3.46,0,0,2.5,1.16,5.23,1.98,1.3,.39,4.1,1.41,4.15,2.26,.13,2.38-6.99-.31-6.99-.31,0,0,7.03,2.1,6.16,3.83-.44,.87-7.28-1.86-7.28-1.86,0,0,7.28,2.72,6.26,4.06-.62,.81-7.81-1.91-7.81-1.91,0,0,4.85,2.97,4.05,3.86-.97,1.08-5.18-1.34-8.93-3.25-1.51-.77-3.53-2.32-4.33-3.85-.11-.22-5.22-3.9-5.36-4.03-.24-.22,4.29-4.81,4.68-5.37Z"/><g><path class="j" d="M41.93,15.44c2.2,.07,3.89-1.01,3.89-1.01,.37,2-.95,3.45-2,4.26,.05,.14,.1,.29,.15,.44,2.03,6.41-2.18,11.72-2.18,11.72l-6.65-16.2s4.29-4.16,6.79,.8Z"/><path class="h" d="M42.49,22.94c1.09,3.13,1.24,9.23,1.49,13.8,.62,11.48-3.17,14.47-8.71,15.02-6.51,.65-11.54-2.13-14.98-9.19-1.71-3.51-4.02-10.02-3.43-14.44,.59-4.42,7.48-12.46,14.18-11.58,6.7,.89,9.48,.74,11.45,6.39Z"/><path class="j" d="M17.21,36.06s-8.24-10.18-.03-18.93c5.46-5.82,19.05-6.27,20.29-1.31,.16,.66-3.89,1.63-6.35,9.01,0,0-1.48-.81-1.83-2.92,0,0-1.46,3.06-4.67,4.28-3.79,1.44-3.45,4.67-3.29,5.51,.16,.85,1.01,6.09,1.01,6.09,0,0-3.64-2.85-4.67-2.43-1.03,.42-.46,.7-.46,.7"/><path class="h" d="M30.79,44.95s.98,2.29,4.69,1.76c2.12-.31,3.07-2.34,3.07-2.34"/><path class="h" d="M20.62,41.92c-2.96,1.07-5.62-1.66-6.07-3.68-.45-2.02,1.37-3.8,3.66-3.55,1.24,.13,3.16,2.12,3.16,2.12"/><path class="t" d="M28.42,32.6c-.09,.56,.28,1.08,.84,1.17,.55,.09,1.08-.28,1.17-.84,.09-.56-.28-1.08-.84-1.17-.55-.09-1.08,.28-1.17,.84Z"/><path class="t" d="M39.06,30.87c-.09,.56,.28,1.08,.84,1.17,.55,.09,1.08-.28,1.17-.84,.09-.56-.28-1.08-.84-1.17-.55-.09-1.08,.28-1.17,.84Z"/><path class="h" d="M19.54,38.96c-.32-.78-.97-.98-1.48-1.11"/><path class="f" d="M24.69,16.6c-1.87,3.78-3.74,5.42-5.03,6.13"/><path class="f" d="M27.48,17.47c-1.75,3.84-3.56,5.54-4.82,6.29"/><path class="h" d="M37.57,33.53c.94,1.45,3.24,3.8,3.24,3.8l-2.47,2.02"/></g><polyline class="i" points="13.69 109.65 23.84 116.49 30.29 105.84 17.72 94.73 20.39 80.85"/><path class="i" d="M52.84,116.1s-.88-12.31-1.27-17.07c-.28-3.4-.78-15.64-.78-15.64"/><line class="i" x1="17.72" y1="94.73" x2="16.06" y2="93.1"/><polygon class="n" points="41.69 72.88 49.55 71.89 50.15 81.48 46.89 85.13 42.59 82.36 41.69 72.88"/><polyline class="k" points="28.55 61.93 32.04 59.03 35.69 64.04"/></g></g><g class="r"><g><path class="h" d="M153.22,49.49l1.18,7.39s14.55-1.81,14.27-1.88-2.3-9.65-2.3-9.65l-13.15,4.14Z"/><path class="j" d="M175.87,25.94s1.88,3.55,.1,7.32c-1.77,3.76-4.59,5.23-4.59,5.23,0,0-3.76-3.76-5.64-5.85-1.88-2.09-4.91-8.47-4.91-8.47,0,0,3.65-1.36,4.07-1.15,.42,.21,10.96,2.93,10.96,2.93Z"/><path class="m" d="M150.61,106.2c-.63,1.36-1.22,2.51-1.43,5.43-.21,2.93-1.29,9.33-2.33,13.62-1.04,4.28-2.29,11.75-2.29,11.75h32.16s1.82-7.08,2.67-11.4c.39-1.98,2.08-6.78,.46-12.61-1.12-4.03-2.3-8.78-2.3-8.78l-26.94,1.99Z"/><path class="g" d="M184.96,62.94c-2.19-3.62-14.41-8.57-14.41-8.57-3.45-.84-1.77-1.78-9.08-.63-7.31,1.15-9.03,1.29-12.48,2.65-3.45,1.36-4.23,1.74-5.17,4.15-.94,2.4-4.59,19.44-4.59,19.44l-6.79-12.02-8.14,6.9s6.58,16.72,11.49,21.32c4.43,4.15,9.04-4.83,9.65-6.6-.06,1.69,.76,14.68,.76,19.49,0,5.33,6.7,4.23,9.37,4.82,2.75,.6,6.16,1.02,8.98,.91,2.82-.1,6.7-.68,8.98-.78,3.02-.13,6.31-1.2,7.94-3.39,1.43-1.91,.31-7.5,0-9.64,3.47,.37,5.14-.33,5.99-4.82,1.1-5.85-.61-30.11-2.5-33.23Z"/><path class="g" d="M181.47,100.98c-.9-.11-6.49-1.74-9.76-3.71-2.11-1.27-6.38-4.55-6.38-4.55l3.76-8.67,10.88,3.12"/><line class="h" x1="175.98" y1="74.43" x2="175.84" y2="85.61"/><path class="q" d="M173.1,56.19c-2.09,1.46-7.98,11.34-8.51,14.27l5.32,2.09s4.09-11.55,7.33-14.16l-4.15-2.2Z"/><path class="q" d="M169.19,54.16c-2.09,1.46-7.73,11.6-8.25,14.53l1.88,.84s5.12-11.6,8.35-14.21l-1.98-1.15Z"/><polygon class="g" points="167.64 49.11 156.35 54.37 159.79 60.22 170.13 53.99 167.64 49.11"/><polygon class="g" points="153.32 51.02 156.35 54.37 153.97 59.86 151.34 56.04 153.32 51.02"/><path class="h" d="M148.83,26.98c-.56,.51-7.45,5.02-7.45,6.06s5.5,2.86,5.5,2.86c0,0-1.39,12.91,5.5,14.18,5.39,1,8.77-.18,11-1.01,4.56-1.71,6.13-7.32,6.13-7.32,0,0,4.49,.17,5.01-3.48,.52-3.66-1.36-4.57-1.67-4.6-2.71-.28-3.55,2.09-3.86,2.09s-6.89-8.78-6.89-8.78c0,0-8.67-4.6-10.44-4.49-1.77,.1-2.82,4.49-2.82,4.49Z"/><path class="h" d="M150.47,42.03l7.62-1.25s-.1,5.33-3.34,5.33-4.28-4.08-4.28-4.08Z"/><g><path class="h" d="M132.52,70.79c.22-2.87-.2-4.23-2.03-5.76-1.33-1.1-2.78-3.22-3.42-5.01-.57-1.57-2-1.9-2.52-1.25-.4,.5-.4,1.22-.39,1.89,.04,2.02,1.11,4.16,1.11,4.16,0,0-9.87,1.16-11.49,1.77-1.66,.62-.29,1.69-.29,1.69,0,0-2.8,.13-3.32,1.17-.52,1.05,2.05,1.17,2.05,1.17,0,0-2.21,.15-2.31,1.4-.1,1.25,2.08,.98,2.08,.98,0,0-.5,1.22,.75,1.64,1.25,.42,5.53,.73,6.58,.84,1.04,.1,3.26,.12,5.98,.32,2.71,.21,4.77-.21,5.92-1.47,.94-1.03,1.2-2.19,1.3-3.54Z"/><path class="h" d="M125.43,65.02s-.42,3.06,1.33,4.01"/><path class="h" d="M122.27,66.49s-2.96,3.63-3.16,6.37"/><path class="h" d="M113.91,68.34s5.13-.63,6.38-.52"/><path class="h" d="M112.21,70.62s5.34-.49,6.8-.49"/><path class="h" d="M111.99,73s5.47-.72,6.67-.72"/></g><circle class="t" cx="153.01" cy="30.96" r="1.04"/><path class="h" d="M161.29,121.18s-1.87,12.94-2.64,15.1"/><polygon class="h" points="133.48 62.73 160.9 64.89 167.42 98.68 141 97.01 133.48 62.73"/><polyline class="k" points="142.01 63.91 142.91 69 153.32 69.94 152.7 64.5"/><g><line class="k" x1="139.27" y1="5.72" x2="142.25" y2="8.51"/><line class="k" x1="135.62" y1="13.08" x2="140.33" y2="13.68"/><line class="k" x1="147.03" y1="2.33" x2="147.23" y2="6.91"/></g><g><path class="h" d="M170.21,83.85c-.13-1.04-1.04-4.82-3.51-6.12-2.3-1.21-3.51-1.89-3.51-1.89l.52,3.09c-.31-.1-1.14-.55-1.92-.84-.87-.32-1.88-.61-3.16-.63-2.21-.02-3.32-.29-3.32,.98,0,.67,1.14,1.5,2.73,1.65,1.65,.16,3.06,.8,2.78,.75-.52-.1-5.39-.87-5.81,.59-.42,1.46,6.06,2.09,6.06,2.09,0,0-5.09-1.12-4.88,.76,.09,.83,1.66,1.59,2.85,1.71,1.51,.16,3.18,.24,3.18,.24,0,0-5.23-.11-4.55,1.78,.18,.49,1.61,.73,2.83,.81s2.44,.33,2.44,.33c0,0-.13,3.16,2.41,3.56,2.92,.46,3.39-.66,3.97-1.78,.46-.87,1.14-5.28,.91-7.1Z"/><line class="h" x1="164.02" y1="79.06" x2="165.42" y2="79.87"/><path class="h" d="M161.03,80.85s1.53,.42,1.72,.49"/><line class="h" x1="161.05" y1="83.52" x2="163.34" y2="83.85"/><line class="h" x1="162.2" y1="86.24" x2="163.76" y2="86.45"/></g><g><path class="g" d="M151.5,16.71s4.68-7.01,7.7-6.75c3.02,.26,15.99,5.46,17.78,7.81,1.79,2.36-.63,14.77-.63,14.77,0,0-13.48-4.16-18.6-7.95-5.13-3.79-6.24-7.88-6.24-7.88Z"/><path class="g" d="M138.19,20.63s4.92,.17,8.57,2.39c2.95,1.78,5.71,3.66,7.83,3.93,4.77,.62,11.64,1.23,11.64,1.23,0,0-5.82-6.72-9.17-9.21-3.35-2.49-5.95-1.87-5.95-1.87l-12.92,3.54Z"/></g><path class="h" d="M169.88,39.02c.2-.78,1.11-1.5,1.5-1.56"/><path class="k" d="M187.07,75.93s-.73,.54-3.47,.73c-2.63,.19-4.93,.05-4.93,.05l.39,6.65,5.17,2.54,2.93-1.66"/></g></g></g></g></svg>