<?xml version="1.0" encoding="UTF-8"?><svg xmlns="http://www.w3.org/2000/svg" width="146" height="10.86" viewBox="0 0 146 10.86"><defs><style>.d{fill:#799eb5;}.e{fill:none;}</style></defs><g id="a"/><g id="b"><g id="c"><g><g><rect class="e" width="9.71" height="10.86"/><rect class="e" width="9.71" height="10.86"/><path class="d" d="M4.79,.42c.22-.22,.58-.22,.8,0l4.12,4.1v1.81l-4.12,4.1c-.11,.11-.25,.17-.4,.17s-.29-.06-.4-.17L.17,5.83c-.11-.11-.17-.25-.17-.4s.06-.29,.17-.4L4.79,.42Zm.4,8.82l3.83-3.81L5.19,1.62,1.37,5.43l3.83,3.81Z"/></g><path class="d" d="M18.75,4.53v1.81l-4.12,4.1c-.11,.11-.25,.17-.4,.17s-.29-.06-.4-.17l-4.12-4.1v-1.81L13.83,.42c.22-.22,.58-.22,.8,0l4.12,4.1Zm-.69,.9l-3.83-3.81-3.83,3.81,3.83,3.81,3.83-3.81Z"/><path class="d" d="M27.8,4.53v1.81l-4.12,4.1c-.11,.11-.25,.17-.4,.17s-.29-.06-.4-.17l-4.12-4.1v-1.81L22.87,.42c.22-.22,.58-.22,.8,0l4.12,4.1Zm-.69,.9l-3.83-3.81-3.83,3.81,3.83,3.81,3.83-3.81Z"/><path class="d" d="M36.84,4.53v1.81l-4.12,4.1c-.11,.11-.25,.17-.4,.17s-.29-.06-.4-.17l-4.12-4.1v-1.81L31.92,.42c.22-.22,.58-.22,.8,0l4.12,4.1Zm-.69,.9l-3.83-3.81-3.83,3.81,3.83,3.81,3.83-3.81Z"/><path class="d" d="M45.88,4.53v1.81l-4.12,4.1c-.11,.11-.25,.17-.4,.17s-.29-.06-.4-.17l-4.12-4.1v-1.81L40.96,.42c.22-.22,.58-.22,.8,0l4.12,4.1Zm-.69,.9l-3.83-3.81-3.83,3.81,3.83,3.81,3.83-3.81Z"/><path class="d" d="M54.92,4.53v1.81l-4.12,4.1c-.11,.11-.25,.17-.4,.17s-.29-.06-.4-.17l-4.12-4.1v-1.81L50,.42c.22-.22,.58-.22,.8,0l4.12,4.1Zm-.69,.9l-3.83-3.81-3.83,3.81,3.83,3.81,3.83-3.81Z"/><path class="d" d="M63.96,4.53v1.81l-4.12,4.1c-.11,.11-.25,.17-.4,.17s-.29-.06-.4-.17l-4.12-4.1v-1.81L59.04,.42c.22-.22,.58-.22,.8,0l4.12,4.1Zm-.69,.9l-3.83-3.81-3.83,3.81,3.83,3.81,3.83-3.81Z"/><path class="d" d="M73,4.53v1.81l-4.12,4.1c-.11,.11-.25,.17-.4,.17s-.29-.06-.4-.17l-4.12-4.1v-1.81L68.08,.42c.22-.22,.58-.22,.8,0l4.12,4.1Zm-.69,.9l-3.83-3.81-3.83,3.81,3.83,3.81,3.83-3.81Z"/><path class="d" d="M82.04,4.53v1.81l-4.12,4.1c-.11,.11-.25,.17-.4,.17s-.29-.06-.4-.17l-4.12-4.1v-1.81L77.12,.42c.22-.22,.58-.22,.8,0l4.12,4.1Zm-.69,.9l-3.83-3.81-3.83,3.81,3.83,3.81,3.83-3.81Z"/><path class="d" d="M91.08,4.53v1.81l-4.12,4.1c-.11,.11-.25,.17-.4,.17s-.29-.06-.4-.17l-4.12-4.1v-1.81L86.16,.42c.22-.22,.58-.22,.8,0l4.12,4.1Zm-.69,.9l-3.83-3.81-3.83,3.81,3.83,3.81,3.83-3.81Z"/><path class="d" d="M100.12,4.53v1.81l-4.12,4.1c-.11,.11-.25,.17-.4,.17s-.29-.06-.4-.17l-4.12-4.1v-1.81L95.2,.42c.22-.22,.58-.22,.8,0l4.12,4.1Zm-.69,.9l-3.83-3.81-3.83,3.81,3.83,3.81,3.83-3.81Z"/><path class="d" d="M109.16,4.53v1.81l-4.12,4.1c-.11,.11-.25,.17-.4,.17s-.29-.06-.4-.17l-4.12-4.1v-1.81L104.24,.42c.22-.22,.58-.22,.8,0l4.12,4.1Zm-.69,.9l-3.83-3.81-3.83,3.81,3.83,3.81,3.83-3.81Z"/><path class="d" d="M118.2,4.53v1.81l-4.12,4.1c-.11,.11-.25,.17-.4,.17s-.29-.06-.4-.17l-4.12-4.1v-1.81L113.28,.42c.22-.22,.58-.22,.8,0l4.12,4.1Zm-.69,.9l-3.83-3.81-3.83,3.81,3.83,3.81,3.83-3.81Z"/><path class="d" d="M127.25,4.53v1.81l-4.12,4.1c-.11,.11-.25,.17-.4,.17s-.29-.06-.4-.17l-4.12-4.1v-1.81L122.32,.42c.22-.22,.58-.22,.8,0l4.12,4.1Zm-.69,.9l-3.83-3.81-3.83,3.81,3.83,3.81,3.83-3.81Z"/><path class="d" d="M136.29,4.53v1.81l-4.12,4.1c-.11,.11-.25,.17-.4,.17s-.29-.06-.4-.17l-4.12-4.1v-1.81l4.12-4.1c.22-.22,.58-.22,.8,0l4.12,4.1Zm-.69,.9l-3.83-3.81-3.83,3.81,3.83,3.81,3.83-3.81Z"/><g><rect class="e" x="136.29" width="9.71" height="10.86"/><path class="d" d="M145.83,5.03c.11,.11,.17,.25,.17,.4s-.06,.29-.17,.4l-4.63,4.61c-.11,.11-.25,.17-.4,.17s-.29-.06-.4-.17l-4.12-4.1v-1.81l4.12-4.1c.22-.22,.58-.22,.8,0l4.63,4.61Zm-1.2,.4l-3.83-3.81-3.83,3.81,3.83,3.81,3.83-3.81Z"/></g></g></g></g></svg>