<?xml version="1.0" encoding="UTF-8"?><svg xmlns="http://www.w3.org/2000/svg" width="12" height="12" viewBox="0 0 12 12"><defs><style>.e{fill:#fff;}</style></defs><g id="a"/><g id="b"><g id="c"><g id="d"><g><path class="e" d="M10.14,0H1.86C.83,0,0,.83,0,1.86H0L5.14,6.55c.25,.22,.55,.33,.86,.33,.31,0,.62-.11,.86-.33L12,1.87h0c0-1.03-.83-1.87-1.86-1.87Z"/><path class="e" d="M6,8.29c-.65,0-1.3-.23-1.81-.7L0,3.76v6.37c0,1.03,.83,1.86,1.86,1.86H10.14c1.03,0,1.86-.83,1.86-1.86V3.76l-4.19,3.82c-.51,.47-1.16,.7-1.81,.7Z"/></g></g></g></g></svg>