<?xml version="1.0" encoding="UTF-8"?><svg xmlns="http://www.w3.org/2000/svg" width="26" height="26" viewBox="0 0 26 26"><defs><style>.e{fill:#002d4f;}</style></defs><g id="a"/><g id="b"><g id="c"><g id="d"><path class="e" d="M13,0C5.82,0,0,5.82,0,13s5.82,13,13,13,13-5.82,13-13S20.18,0,13,0Zm6.97,17.13l-2.35,2.8c-.19,.22-.51,.29-.77,.15,0,0-.77-.38-1.36-.73-1.62-.96-3.53-2.52-4.92-3.92-1.39-1.39-2.96-3.31-3.92-4.92-.35-.59-.73-1.36-.73-1.36-.14-.26-.08-.58,.15-.77l2.8-2.35c.25-.21,.61-.19,.84,.04l2.23,2.23c.22,.22,.24,.58,.04,.83l-.94,1.17c-.19,.23-.18,.56,0,.79,0,0,.67,1,1.77,2.09,1.1,1.1,2.09,1.77,2.09,1.77,.23,.19,.56,.2,.79,0l1.17-.94c.25-.2,.6-.18,.83,.04l2.24,2.23c.23,.23,.24,.59,.04,.84Z"/></g></g></g></svg>