<?xml version="1.0" encoding="UTF-8"?><svg xmlns="http://www.w3.org/2000/svg" width="208" height="59" viewBox="0 0 208 59"><defs><style>.d{fill:#002d4f;}.e{fill:#0075cc;}</style></defs><g id="a"/><g id="b"><g id="c"><g><path class="d" d="M4.18,53.74c-2.79-3.03-4.18-7.75-4.18-14.15,0-12.33,5.79-18.49,17.36-18.49,1.73,0,3.5,.18,5.3,.55,1.8,.36,3.21,.84,4.21,1.43,.9,.52,1.35,1.07,1.35,1.66,0,.49-.19,1.12-.57,1.9-.38,.78-.84,1.47-1.38,2.08-.54,.61-1.01,.91-1.43,.91-.1,0-.52-.16-1.25-.47s-1.61-.59-2.65-.83c-1.04-.24-2.29-.36-3.74-.36-3.05,0-5.31,.97-6.78,2.91-1.47,1.94-2.21,4.87-2.21,8.78,0,7.9,2.96,11.84,8.89,11.84,1.56,0,2.91-.16,4.05-.47,1.14-.31,2.25-.71,3.33-1.19,.55-.28,.94-.42,1.14-.42,.52,0,1.01,.29,1.48,.88,.47,.59,.85,1.26,1.14,2,.29,.74,.44,1.29,.44,1.64,0,.9-.61,1.7-1.82,2.39-1.14,.66-2.65,1.15-4.52,1.48-1.87,.33-3.62,.49-5.25,.49-5.82,0-10.13-1.51-12.92-4.55Z"/><path class="d" d="M34.28,57.38c-.33-.33-.49-.86-.49-1.58V23.07c0-1.11,1.04-1.66,3.12-1.66h1.77c2.08,0,3.12,.55,3.12,1.66v28h11.23c.55,0,.95,.21,1.2,.62,.24,.42,.36,1.07,.36,1.97v1.61c0,.9-.12,1.56-.36,1.97-.24,.42-.64,.62-1.2,.62h-17.15c-.73,0-1.26-.16-1.59-.49Z"/><path class="d" d="M106.02,54.99c-2.63-2.2-3.95-5.29-3.95-9.27V23.07c0-1.11,1.04-1.66,3.12-1.66h1.77c2.08,0,3.12,.55,3.12,1.66v22.13c0,1.84,.66,3.34,1.98,4.52,1.32,1.18,3.01,1.77,5.09,1.77s3.79-.59,5.12-1.77c1.33-1.18,2-2.68,2-4.52V23.07c0-1.11,1.04-1.66,3.12-1.66h1.72c2.08,0,3.12,.55,3.12,1.66v22.65c0,3.98-1.32,7.07-3.95,9.27-2.63,2.2-6.34,3.3-11.12,3.3s-8.49-1.1-11.12-3.3Z"/><path class="d" d="M140.09,57.38c-.33-.33-.49-.86-.49-1.58V23.59c0-.73,.16-1.25,.49-1.58s.86-.49,1.59-.49h11.12c5.37,0,9.49,1.57,12.34,4.7,2.86,3.13,4.29,7.63,4.29,13.48s-1.43,10.35-4.29,13.48c-2.86,3.13-6.97,4.7-12.34,4.7h-11.12c-.73,0-1.26-.16-1.59-.49Zm12.71-6.31c2.77,0,4.87-.97,6.29-2.91,1.42-1.94,2.13-4.76,2.13-8.47s-.71-6.53-2.13-8.47c-1.42-1.94-3.52-2.91-6.29-2.91h-5.15v22.75h5.15Z"/><path class="d" d="M180.88,57.12c-.52-.73-.93-1.58-1.21-2.53-.28-.95-.43-1.71-.43-2.28,0-.52,.06-.88,.18-1.07,.12-.19,.37-.33,.75-.43,3.61-1,6.8-2.73,9.58-5.19,2.78-2.47,4.73-5.41,5.87-8.82-2.18,1.19-4.56,1.78-7.12,1.78-2.04,0-4.13-.5-6.26-1.49s-3.96-2.62-5.48-4.87c-1.52-2.25-2.28-5.16-2.28-8.71s.81-6.66,2.42-9.03c1.61-2.37,3.68-4.11,6.19-5.23,2.52-1.11,5.22-1.67,8.12-1.67s5.61,.63,8.15,1.89c2.54,1.26,4.62,3.27,6.23,6.05,1.61,2.77,2.42,6.32,2.42,10.63,0,8.11-1.82,14.55-5.45,19.31-3.63,4.77-7.49,8.09-11.57,9.96-4.08,1.87-6.81,2.81-8.19,2.81-.76,0-1.4-.37-1.92-1.1Zm16.3-28.56c.05-.71,.07-1.8,.07-3.27,0-3.32-.56-5.71-1.67-7.18-1.12-1.47-2.6-2.21-4.45-2.21-1.71,0-3.14,.69-4.31,2.06-1.16,1.38-1.74,3.13-1.74,5.26s.57,3.9,1.71,5.16c1.14,1.26,2.73,1.89,4.77,1.89,1.71,0,3.58-.57,5.62-1.71Z"/><g><path class="e" d="M77.07,20.61c-10.61,0-19.21,8.59-19.21,19.2s8.6,19.2,19.21,19.2,19.21-8.59,19.21-19.2c0-10.6-8.6-19.2-19.21-19.2Zm0,31.43c-6.76,0-12.25-5.48-12.25-12.24s5.48-12.24,12.25-12.24,12.24,5.48,12.24,12.24-5.48,12.24-12.24,12.24Z"/><path class="e" d="M77.07,40.99c.65,0,1.18-.53,1.18-1.18s-.53-1.18-1.18-1.18-1.18,.53-1.18,1.18c0,.65,.53,1.18,1.18,1.18Z"/><path class="e" d="M69.17,35.35c.08,.22,.26,.39,.49,.47l4.22,1.37c.39,.13,.82,.06,1.16-.18,.33-.24,.53-.63,.53-1.04v-4.43c0-.24-.11-.46-.29-.61-.19-.15-.43-.2-.66-.15,0,0,.06-.05-.36,.09-1.99,.63-3.7,1.9-4.87,3.57-.24,.34-.15,.25-.15,.25-.12,.2-.14,.45-.06,.67Z"/><path class="e" d="M73.78,40.87c-.13-.39-.44-.7-.83-.83l-4.22-1.37c-.22-.07-.47-.04-.67,.09-.2,.13-.32,.35-.34,.58,0,0-.03-.07-.03,.37-.02,2.09,.67,4.1,1.9,5.73,.25,.34,.19,.22,.19,.22,.16,.18,.38,.28,.62,.27,.24,0,.46-.13,.59-.32l2.61-3.59c.24-.33,.31-.76,.18-1.16Z"/><path class="e" d="M78.12,43.79c-.24-.33-.63-.53-1.04-.53s-.8,.2-1.04,.53l-2.61,3.58c-.14,.19-.18,.44-.12,.66,.06,.23,.23,.41,.45,.51,0,0-.08,0,.34,.14,1.98,.66,4.11,.63,6.04-.03,.4-.14,.26-.11,.26-.11,.22-.09,.38-.28,.45-.51,.06-.23,.02-.47-.12-.66l-2.61-3.59Z"/><path class="e" d="M85.41,38.68l-4.22,1.37c-.39,.13-.7,.43-.83,.83-.13,.39-.06,.82,.18,1.15l2.61,3.59c.14,.19,.36,.31,.6,.32,.24,.01,.46-.09,.62-.27,0,0-.02,.08,.24-.28,1.24-1.68,1.87-3.71,1.84-5.75,0-.42-.02-.28-.02-.28-.02-.24-.15-.45-.34-.58-.2-.13-.44-.16-.67-.09Z"/><path class="e" d="M79.1,37.01c.33,.24,.76,.31,1.16,.18l4.22-1.37c.23-.07,.4-.24,.49-.47,.08-.22,.06-.47-.06-.67,0,0,.07,.04-.19-.32-1.21-1.7-2.95-2.93-4.91-3.52-.4-.12-.28-.06-.28-.06-.23-.05-.47,0-.66,.15-.19,.15-.29,.37-.29,.6v4.44c0,.41,.2,.8,.53,1.04Z"/></g><g><path class="e" d="M50.53,12.35V3.48h-2.82c-.1,0-.17-.03-.22-.1-.05-.07-.07-.18-.07-.34v-.24c0-.16,.02-.27,.07-.34,.05-.07,.12-.1,.22-.1h6.89c.11,0,.18,.03,.23,.1s.07,.18,.07,.34v.24c0,.16-.02,.27-.07,.34-.04,.07-.12,.1-.23,.1h-2.78V12.35c0,.22-.2,.32-.59,.32h-.12c-.39,0-.59-.11-.59-.32Z"/><path class="e" d="M57.78,12.35V2.66c0-.22,.2-.32,.59-.32h.12c.39,0,.59,.11,.59,.32V12.35c0,.22-.2,.32-.59,.32h-.12c-.39,0-.59-.11-.59-.32Z"/><path class="e" d="M63.11,12.35V2.81c0-.16,.03-.27,.1-.34,.07-.07,.18-.1,.34-.1h2.47c1.18,0,2.06,.21,2.65,.62,.59,.42,.89,1.07,.89,1.97,0,.61-.15,1.12-.44,1.53-.29,.42-.71,.73-1.25,.95v.06c.28,.1,.52,.29,.71,.57,.19,.28,.39,.7,.61,1.26l1.15,2.89c.03,.09,.04,.16,.04,.21,0,.16-.21,.23-.62,.23h-.15c-.15,0-.27-.02-.38-.07-.11-.04-.18-.1-.21-.17l-1.12-2.88c-.22-.56-.48-.94-.81-1.14-.32-.2-.78-.3-1.38-.3h-1.32v4.23c0,.22-.2,.32-.59,.32h-.12c-.39,0-.59-.11-.59-.32Zm3.23-5.34c.34,0,.66-.08,.95-.25,.29-.17,.52-.39,.68-.66,.17-.27,.25-.57,.25-.9,0-.58-.18-1.01-.53-1.29-.35-.28-.84-.43-1.45-.43h-1.84v3.52h1.94Z"/><path class="e" d="M73.37,12.54c-.07-.07-.1-.18-.1-.34V2.81c0-.16,.03-.27,.1-.34,.07-.07,.18-.1,.34-.1h5.13c.11,0,.18,.03,.23,.1s.07,.18,.07,.34v.24c0,.16-.02,.27-.07,.34-.04,.07-.12,.1-.23,.1h-4.27v3.35h3.83c.11,0,.18,.03,.23,.1,.04,.07,.07,.18,.07,.34v.23c0,.16-.02,.27-.07,.34s-.12,.1-.23,.1h-3.83v3.58h4.29c.11,0,.18,.03,.23,.1,.04,.07,.07,.18,.07,.34v.23c0,.16-.02,.27-.07,.34s-.12,.1-.23,.1h-5.14c-.16,0-.27-.03-.34-.1Z"/><path class="e" d="M87.26,12.54c-.07-.07-.1-.18-.1-.34V2.81c0-.16,.03-.27,.1-.34,.07-.07,.18-.1,.34-.1h5.13c.11,0,.18,.03,.23,.1s.07,.18,.07,.34v.24c0,.16-.02,.27-.07,.34-.04,.07-.12,.1-.23,.1h-4.27v3.35h3.83c.11,0,.18,.03,.23,.1,.04,.07,.07,.18,.07,.34v.23c0,.16-.02,.27-.07,.34s-.12,.1-.23,.1h-3.83v3.58h4.29c.11,0,.18,.03,.23,.1,.04,.07,.07,.18,.07,.34v.23c0,.16-.02,.27-.07,.34s-.12,.1-.23,.1h-5.14c-.16,0-.27-.03-.34-.1Z"/><path class="e" d="M95.36,12.61c-.1-.04-.15-.1-.15-.19,0-.07,.04-.16,.12-.26l3.29-4.87-2.94-4.43c-.08-.11-.12-.2-.12-.26,0-.17,.23-.25,.68-.25h.21c.17,0,.3,.01,.4,.04s.18,.09,.24,.18l2.35,3.54,2.42-3.55c.09-.14,.3-.21,.63-.21h.09c.24,0,.42,.02,.52,.06s.15,.1,.15,.19c0,.07-.04,.16-.12,.26l-2.94,4.36,3.3,4.95c.08,.11,.12,.2,.12,.26,0,.17-.23,.25-.68,.25h-.23c-.17,0-.3-.01-.4-.04s-.18-.09-.23-.18l-2.7-4.04-2.73,4.05c-.09,.14-.3,.21-.63,.21h-.12c-.25,0-.42-.02-.52-.06Z"/><path class="e" d="M107.06,11.46c-.77-.85-1.15-2.17-1.15-3.96,0-3.48,1.59-5.23,4.76-5.23,.48,0,.94,.05,1.39,.15,.45,.1,.8,.23,1.07,.37,.23,.14,.35,.26,.35,.38,0,.14-.06,.31-.18,.53-.12,.22-.23,.32-.32,.32-.03,0-.15-.06-.37-.18-.22-.12-.49-.23-.81-.32-.32-.09-.68-.14-1.09-.14-1.18,0-2.06,.33-2.61,.98s-.84,1.7-.84,3.14,.28,2.44,.83,3.1c.55,.66,1.41,.99,2.56,.99,.48,0,.89-.06,1.23-.17,.34-.11,.68-.26,1.01-.43,.14-.09,.23-.13,.28-.13,.09,0,.2,.11,.32,.32s.19,.37,.19,.47c0,.15-.16,.31-.47,.48-.29,.17-.67,.3-1.12,.41-.45,.11-.94,.16-1.45,.16-1.62,0-2.81-.42-3.58-1.27Z"/><path class="e" d="M116.77,12.35V2.66c0-.22,.2-.32,.59-.32h.12c.39,0,.59,.11,.59,.32V6.82h5.32V2.66c0-.22,.2-.32,.59-.32h.12c.39,0,.59,.11,.59,.32V12.35c0,.22-.2,.32-.59,.32h-.12c-.39,0-.59-.11-.59-.32V7.93h-5.32v4.42c0,.22-.2,.32-.59,.32h-.12c-.39,0-.59-.11-.59-.32Z"/><path class="e" d="M127.45,12.42s.01-.12,.04-.21l3.48-9.64c.06-.16,.25-.23,.59-.23h.43c.35,0,.55,.08,.59,.23l3.48,9.66c.03,.07,.04,.13,.04,.19,0,.17-.21,.25-.63,.25h-.12c-.34,0-.54-.08-.59-.23l-.87-2.41h-4.32l-.84,2.41c-.05,.16-.24,.23-.59,.23h-.07c-.42,0-.63-.08-.63-.25Zm6.05-3.51l-1.54-4.37c-.05-.16-.11-.44-.18-.85h-.03c-.08,.39-.15,.68-.22,.85l-1.54,4.37h3.51Z"/><path class="e" d="M138.78,12.35V2.66c0-.22,.2-.32,.59-.32h.31c.16,0,.28,.02,.37,.06s.17,.11,.24,.22l4.61,6.96c.17,.24,.33,.54,.48,.88h.06c-.02-.24-.03-.57-.03-1.01V2.66c0-.22,.2-.32,.59-.32h.1c.39,0,.59,.11,.59,.32V12.35c0,.22-.2,.32-.59,.32h-.29c-.25,0-.43-.07-.51-.21l-4.73-7.13c-.17-.24-.33-.54-.48-.88h-.06c.02,.24,.03,.57,.03,1.01v6.88c0,.22-.2,.32-.59,.32h-.1c-.39,0-.59-.11-.59-.32Z"/><path class="e" d="M157.74,7.45c.07,.07,.1,.18,.1,.34v3.89c0,.38-.31,.65-.92,.81-.61,.16-1.4,.24-2.36,.24-1.48,0-2.61-.43-3.38-1.28s-1.16-2.14-1.16-3.86c0-3.54,1.59-5.31,4.76-5.31,.46,0,.91,.05,1.34,.14,.44,.09,.79,.21,1.06,.36,.27,.15,.4,.28,.4,.41,0,.14-.06,.31-.18,.53-.12,.22-.23,.32-.32,.32-.03,0-.15-.06-.37-.18-.22-.12-.49-.23-.81-.32-.32-.09-.68-.14-1.09-.14-1.24,0-2.13,.34-2.66,1.03s-.79,1.7-.79,3.04,.24,2.28,.73,3.03c.49,.75,1.34,1.12,2.56,1.12,.36,0,.72-.02,1.07-.05,.35-.03,.62-.08,.83-.14v-2.97h-1.72c-.1,0-.17-.03-.22-.1s-.07-.18-.07-.34v-.23c0-.16,.02-.27,.07-.34,.05-.07,.12-.1,.22-.1h2.57c.16,0,.27,.03,.34,.1Z"/><path class="e" d="M161.78,12.54c-.07-.07-.1-.18-.1-.34V2.81c0-.16,.03-.27,.1-.34,.07-.07,.18-.1,.34-.1h5.13c.11,0,.18,.03,.23,.1s.07,.18,.07,.34v.24c0,.16-.02,.27-.07,.34-.04,.07-.12,.1-.23,.1h-4.27v3.35h3.83c.11,0,.18,.03,.23,.1,.04,.07,.07,.18,.07,.34v.23c0,.16-.02,.27-.07,.34s-.12,.1-.23,.1h-3.83v3.58h4.29c.11,0,.18,.03,.23,.1,.04,.07,.07,.18,.07,.34v.23c0,.16-.02,.27-.07,.34s-.12,.1-.23,.1h-5.14c-.16,0-.27-.03-.34-.1Z"/></g><g><g><path class="e" d="M27.71,1.35h3.22l-.43-1.35h-3.22l.43,1.35Zm2.76-.65c0,.06-.07,.12-.15,.12s-.15-.05-.15-.12,.07-.12,.15-.12,.15,.05,.15,.12Zm-2.49,0c0,.06-.07,.12-.15,.12s-.15-.05-.15-.12,.07-.12,.15-.12,.15,.05,.15,.12Z"/><path class="e" d="M27.28,12.75h3.22l.43-1.35h-3.22l-.43,1.35Zm3.03-.58c-.08,0-.15-.05-.15-.12s.07-.12,.15-.12,.15,.05,.15,.12-.07,.12-.15,.12Zm-2.49,0c-.08,0-.15-.05-.15-.12s.07-.12,.15-.12,.15,.05,.15,.12-.07,.12-.15,.12Z"/><path class="e" d="M31.02,11.1l.68-2.14v-1.04s-.05,.02-.09,.02c-.08,0-.15-.05-.15-.12s.07-.12,.15-.12c.03,0,.06,0,.09,.02v-.73h-2.6l-1.29,4.09h3.22Zm-2.05-3.27c0-.06,.07-.12,.15-.12s.15,.05,.15,.12-.07,.12-.15,.12-.15-.05-.15-.12Zm-.7,2.36c0-.06,.07-.12,.15-.12s.15,.05,.15,.12-.07,.12-.15,.12-.15-.05-.15-.12Zm2.49,0c0-.06,.07-.12,.15-.12s.15,.05,.15,.12-.07,.12-.15,.12-.15-.05-.15-.12Z"/><path class="e" d="M31.69,5.74v-.73s-.05,.02-.09,.02c-.08,0-.15-.05-.15-.12s.07-.12,.15-.12c.03,0,.06,0,.09,.02v-1.04l-.68-2.14h-3.22l1.29,4.09h2.6Zm-3.43-3.19c0-.06,.07-.12,.15-.12s.15,.05,.15,.12-.07,.12-.15,.12-.15-.05-.15-.12Zm2.49,0c0-.06,.07-.12,.15-.12s.15,.05,.15,.12-.07,.12-.15,.12-.15-.05-.15-.12Zm-1.79,2.36c0-.06,.07-.12,.15-.12s.15,.05,.15,.12-.07,.12-.15,.12-.15-.05-.15-.12Z"/><path class="e" d="M27.28,4.82s.07,.06,.07,.09-.03,.07-.07,.09v.73h.62l-.62-1.96v1.04Z"/><path class="e" d="M27.28,7.01v.73s.07,.06,.07,.09-.03,.07-.07,.1v1.04l.62-1.96h-.62Z"/><path class="e" d="M31.69,4.82s.07,.06,.07,.09-.03,.07-.07,.09v.73h.62l-.62-1.96v1.04Z"/><path class="e" d="M31.69,7.01v.73s.07,.06,.07,.09-.03,.07-.07,.1v1.04l.62-1.96h-.62Z"/><path class="e" d="M40.12,4.82s.07,.06,.07,.09-.03,.07-.07,.09v.73h.62l-.62-1.96v1.04Z"/><path class="e" d="M40.12,7.01v.73s.07,.06,.07,.09-.03,.07-.07,.1v1.04l.62-1.96h-.62Z"/><path class="e" d="M23.89,4.82s.07,.06,.07,.09-.03,.07-.07,.09v.73h.62l-.62-1.96v1.04Z"/><path class="e" d="M23.89,7.01v.73s.07,.06,.07,.09-.03,.07-.07,.1v1.04l.62-1.96h-.62Z"/><path class="e" d="M16.09,4.82s.07,.06,.07,.09-.03,.07-.07,.09v.73h.62l-.62-1.96v1.04Z"/><path class="e" d="M16.09,7.01v.73s.07,.06,.07,.09-.03,.07-.07,.1v1.04l.62-1.96h-.62Z"/><path class="e" d="M8.29,4.82s.07,.06,.07,.09-.03,.07-.07,.09v.73h.62l-.62-1.96v1.04Z"/><path class="e" d="M8.29,7.01v.73s.07,.06,.07,.09-.03,.07-.07,.1v1.04l.62-1.96h-.62Z"/></g><g><path class="e" d="M36.13,1.35h3.22l-.43-1.35h-3.22l.43,1.35Zm2.76-.65c0,.06-.07,.12-.15,.12s-.15-.05-.15-.12,.07-.12,.15-.12,.15,.05,.15,.12Zm-2.49,0c0,.06-.07,.12-.15,.12s-.15-.05-.15-.12,.07-.12,.15-.12,.15,.05,.15,.12Z"/><path class="e" d="M35.7,12.75h3.22l.43-1.35h-3.22l-.43,1.35Zm3.03-.58c-.08,0-.15-.05-.15-.12s.07-.12,.15-.12,.15,.05,.15,.12-.07,.12-.15,.12Zm-2.49,0c-.08,0-.15-.05-.15-.12s.07-.12,.15-.12,.15,.05,.15,.12-.07,.12-.15,.12Z"/><path class="e" d="M39.44,11.1l.68-2.14v-1.04s-.05,.02-.09,.02c-.08,0-.15-.05-.15-.12s.07-.12,.15-.12c.03,0,.06,0,.09,.02v-.73h-2.6l-1.29,4.09h3.22Zm-2.05-3.27c0-.06,.07-.12,.15-.12s.15,.05,.15,.12-.07,.12-.15,.12-.15-.05-.15-.12Zm-.7,2.36c0-.06,.07-.12,.15-.12s.15,.05,.15,.12-.07,.12-.15,.12-.15-.05-.15-.12Zm2.49,0c0-.06,.07-.12,.15-.12s.15,.05,.15,.12-.07,.12-.15,.12-.15-.05-.15-.12Z"/><path class="e" d="M40.12,5.74v-.73s-.05,.02-.09,.02c-.08,0-.15-.05-.15-.12s.07-.12,.15-.12c.03,0,.06,0,.09,.02v-1.04l-.68-2.14h-3.22l1.29,4.09h2.6Zm-3.43-3.19c0-.06,.07-.12,.15-.12s.15,.05,.15,.12-.07,.12-.15,.12-.15-.05-.15-.12Zm2.49,0c0-.06,.07-.12,.15-.12s.15,.05,.15,.12-.07,.12-.15,.12-.15-.05-.15-.12Zm-1.79,2.36c0-.06,.07-.12,.15-.12s.15,.05,.15,.12-.07,.12-.15,.12-.15-.05-.15-.12Z"/><path class="e" d="M35.7,4.82s.07,.06,.07,.09-.03,.07-.07,.09v.73h.62l-.62-1.96v1.04Z"/><path class="e" d="M35.7,7.01v.73s.07,.06,.07,.09-.03,.07-.07,.1v1.04l.62-1.96h-.62Z"/><path class="e" d="M3.96,4.82s.07,.06,.07,.09-.03,.07-.07,.09v.73h.62l-.62-1.96v1.04Z"/><path class="e" d="M3.96,7.01v.73s.07,.06,.07,.09-.03,.07-.07,.1v1.04l.62-1.96h-.62Z"/></g><g><path class="e" d="M19.91,1.35h3.22l-.43-1.35h-3.22l.43,1.35Zm2.76-.65c0,.06-.07,.12-.15,.12s-.15-.05-.15-.12,.07-.12,.15-.12,.15,.05,.15,.12Zm-2.49,0c0,.06-.07,.12-.15,.12s-.15-.05-.15-.12,.07-.12,.15-.12,.15,.05,.15,.12Z"/><path class="e" d="M19.48,12.75h3.22l.43-1.35h-3.22l-.43,1.35Zm3.03-.58c-.08,0-.15-.05-.15-.12s.07-.12,.15-.12,.15,.05,.15,.12-.07,.12-.15,.12Zm-2.49,0c-.08,0-.15-.05-.15-.12s.07-.12,.15-.12,.15,.05,.15,.12-.07,.12-.15,.12Z"/><path class="e" d="M23.22,11.1l.68-2.14v-1.04s-.05,.02-.09,.02c-.08,0-.15-.05-.15-.12s.07-.12,.15-.12c.03,0,.06,0,.09,.02v-.73h-2.6l-1.29,4.09h3.22Zm-2.05-3.27c0-.06,.07-.12,.15-.12s.15,.05,.15,.12-.07,.12-.15,.12-.15-.05-.15-.12Zm-.7,2.36c0-.06,.07-.12,.15-.12s.15,.05,.15,.12-.07,.12-.15,.12-.15-.05-.15-.12Zm2.49,0c0-.06,.07-.12,.15-.12s.15,.05,.15,.12-.07,.12-.15,.12-.15-.05-.15-.12Z"/><path class="e" d="M23.89,5.74v-.73s-.05,.02-.09,.02c-.08,0-.15-.05-.15-.12s.07-.12,.15-.12c.03,0,.06,0,.09,.02v-1.03l-.68-2.14h-3.22l1.29,4.09h2.6Zm-3.43-3.19c0-.06,.07-.12,.15-.12s.15,.05,.15,.12-.07,.12-.15,.12-.15-.05-.15-.12Zm2.49,0c0-.06,.07-.12,.15-.12s.15,.05,.15,.12-.07,.12-.15,.12-.15-.05-.15-.12Zm-1.79,2.36c0-.06,.07-.12,.15-.12s.15,.05,.15,.12-.07,.12-.15,.12-.15-.05-.15-.12Z"/><path class="e" d="M19.48,4.82s.07,.06,.07,.09-.03,.07-.07,.09v.73h.62l-.62-1.96v1.04Z"/><path class="e" d="M19.48,7.01v.73s.07,.06,.07,.09-.03,.07-.07,.1v1.04l.62-1.96h-.62Z"/></g><g><path class="e" d="M12.1,1.35h3.22l-.43-1.35h-3.22l.43,1.35Zm2.76-.65c0,.06-.07,.12-.15,.12s-.15-.05-.15-.12,.07-.12,.15-.12,.15,.05,.15,.12Zm-2.49,0c0,.06-.07,.12-.15,.12s-.15-.05-.15-.12,.07-.12,.15-.12,.15,.05,.15,.12Z"/><path class="e" d="M11.68,12.75h3.22l.43-1.35h-3.22l-.43,1.35Zm3.03-.58c-.08,0-.15-.05-.15-.12s.07-.12,.15-.12,.15,.05,.15,.12-.07,.12-.15,.12Zm-2.49,0c-.08,0-.15-.05-.15-.12s.07-.12,.15-.12,.15,.05,.15,.12-.07,.12-.15,.12Z"/><path class="e" d="M15.41,11.1l.68-2.14v-1.04s-.05,.02-.09,.02c-.08,0-.15-.05-.15-.12s.07-.12,.15-.12c.03,0,.06,0,.09,.02v-.73h-2.6l-1.29,4.09h3.22Zm-2.05-3.27c0-.06,.07-.12,.15-.12s.15,.05,.15,.12-.07,.12-.15,.12-.15-.05-.15-.12Zm-.7,2.36c0-.06,.07-.12,.15-.12s.15,.05,.15,.12-.07,.12-.15,.12-.15-.05-.15-.12Zm2.49,0c0-.06,.07-.12,.15-.12s.15,.05,.15,.12-.07,.12-.15,.12-.15-.05-.15-.12Z"/><path class="e" d="M16.09,5.74v-.73s-.05,.02-.09,.02c-.08,0-.15-.05-.15-.12s.07-.12,.15-.12c.03,0,.06,0,.09,.02v-1.03l-.68-2.14h-3.22l1.29,4.09h2.6Zm-3.43-3.19c0-.06,.07-.12,.15-.12s.15,.05,.15,.12-.07,.12-.15,.12-.15-.05-.15-.12Zm2.49,0c0-.06,.07-.12,.15-.12s.15,.05,.15,.12-.07,.12-.15,.12-.15-.05-.15-.12Zm-1.79,2.36c0-.06,.07-.12,.15-.12s.15,.05,.15,.12-.07,.12-.15,.12-.15-.05-.15-.12Z"/><path class="e" d="M11.68,4.82s.07,.06,.07,.09-.03,.07-.07,.09v.73h.62l-.62-1.96v1.04Z"/><path class="e" d="M11.68,7.01v.73s.07,.06,.07,.09-.03,.07-.07,.1v1.04l.62-1.96h-.62Z"/></g><g><path class="e" d="M4.3,1.35h3.22l-.43-1.35H3.87l.43,1.35Zm2.76-.65c0,.06-.07,.12-.15,.12s-.15-.05-.15-.12,.07-.12,.15-.12,.15,.05,.15,.12Zm-2.49,0c0,.06-.07,.12-.15,.12s-.15-.05-.15-.12,.07-.12,.15-.12,.15,.05,.15,.12Z"/><path class="e" d="M3.87,12.75h3.22l.43-1.35h-3.22l-.43,1.35Zm3.03-.58c-.08,0-.15-.05-.15-.12s.07-.12,.15-.12,.15,.05,.15,.12-.07,.12-.15,.12Zm-2.49,0c-.08,0-.15-.05-.15-.12s.07-.12,.15-.12,.15,.05,.15,.12-.07,.12-.15,.12Z"/><path class="e" d="M7.61,11.1l.68-2.14v-1.04s-.05,.02-.09,.02c-.08,0-.15-.05-.15-.12s.07-.12,.15-.12c.03,0,.06,0,.09,.02v-.73h-2.6l-1.3,4.09h3.22Zm-2.05-3.27c0-.06,.07-.12,.15-.12s.15,.05,.15,.12-.07,.12-.15,.12-.15-.05-.15-.12Zm-.7,2.36c0-.06,.07-.12,.15-.12s.15,.05,.15,.12-.07,.12-.15,.12-.15-.05-.15-.12Zm2.49,0c0-.06,.07-.12,.15-.12s.15,.05,.15,.12-.07,.12-.15,.12-.15-.05-.15-.12Z"/><path class="e" d="M8.29,5.74v-.73s-.05,.02-.09,.02c-.08,0-.15-.05-.15-.12s.07-.12,.15-.12c.03,0,.06,0,.09,.02v-1.04l-.68-2.14h-3.22l1.3,4.09h2.6Zm-3.43-3.19c0-.06,.07-.12,.15-.12s.15,.05,.15,.12-.07,.12-.15,.12-.15-.05-.15-.12Zm2.49,0c0-.06,.07-.12,.15-.12s.15,.05,.15,.12-.07,.12-.15,.12-.15-.05-.15-.12Zm-1.79,2.36c0-.06,.07-.12,.15-.12s.15,.05,.15,.12-.07,.12-.15,.12-.15-.05-.15-.12Z"/></g></g></g></g></g></svg>