<?xml version="1.0" encoding="UTF-8"?><svg xmlns="http://www.w3.org/2000/svg" width="40" height="40" viewBox="0 0 40 40"><defs><style>.e{fill:#fff;}.f{fill:#0075cc;}</style></defs><g id="a"/><g id="b"><g id="c"><g id="d"><circle class="f" cx="20" cy="20" r="20"/><path class="e" d="M29.11,25.11c.04-.05,.08-.1,.12-.15,.01-.02,.03-.04,.04-.06,.49-.71,.78-1.58,.78-2.51v-7.56c0-2.45-1.99-4.44-4.44-4.44H14.39c-2.45,0-4.44,1.99-4.44,4.44v7.56c0,2.45,1.99,4.44,4.44,4.44h5.67l4.98,4.58c.14,.13,.32,.2,.51,.2,.1,0,.2-.02,.3-.06,.27-.12,.45-.38,.45-.68l.05-4.1c.66-.11,1.27-.37,1.8-.74,.02-.02,.05-.04,.07-.05,.08-.06,.15-.11,.23-.17,.07-.06,.13-.12,.2-.18,.03-.03,.06-.05,.08-.08,.07-.06,.13-.13,.19-.2,.02-.03,.05-.05,.07-.08,.04-.05,.08-.1,.12-.16Zm-14.01-3.84c0-.31,.25-.56,.56-.56h4.71c.31,0,.56,.25,.56,.56s-.25,.56-.56,.56h-4.71c-.31,0-.56-.25-.56-.56Zm.56-3.53h8.66c.31,0,.56,.25,.56,.56s-.25,.56-.56,.56H15.67c-.31,0-.56-.25-.56-.56,0-.31,.25-.56,.56-.56Zm8.66-1.83H15.67c-.31,0-.56-.25-.56-.56s.25-.56,.56-.56h8.66c.31,0,.56,.25,.56,.56,0,.31-.25,.56-.56,.56Z"/></g></g></g></svg>